<svg xmlns="http://www.w3.org/2000/svg" viewBox="0 0 336 442"><defs><style>.cls-1{fill:#0f265c;}.cls-2{fill:#2f7abf;}.cls-3{fill:#7c7c7c;}.cls-4{fill:#fc0;}.cls-5{fill:#eee;stroke-width:0.3px;}.cls-5,.cls-8{stroke:#d2d2d2;}.cls-5,.cls-6,.cls-8{stroke-miterlimit:10;}.cls-6{fill:#c7cfe1;stroke:#b5b9c4;}.cls-7{fill:#4a4a4a;}.cls-8{fill:none;stroke-width:0.5px;}</style></defs><g id="Capa_1" data-name="Capa 1"><path class="cls-1" d="M33.66,29.05H35v1.42H29.73V29.05h2l-1.25-3.57H23.82L22.5,29.05h1.9v1.42H19.24V29.05h1.53l4.9-13.49H23.85V14.15h4.63ZM27.25,15.73l-3,8.43h6l-2.9-8.43Z"/><path class="cls-1" d="M37.93,29.05V19.69H36v-1.1l1.89-.12V16.84a3.34,3.34,0,0,1,.75-2.43,3.63,3.63,0,0,1,2.59-.74,7.13,7.13,0,0,1,.89.05q.48,0,.93.12l-.16,1.32c-.28-.05-.51-.08-.71-.1s-.4,0-.59,0a2.2,2.2,0,0,0-1.58.43A2.13,2.13,0,0,0,39.61,17v1.47h3.08v1.22H39.61v9.36h2v1.42H36.28V29.05Z"/><path class="cls-1" d="M47.51,18.47V29.05h1.66v1.42h-5V29.05h1.66V19.89H44.17V18.47Zm0-1.95H45.83V13.67h1.68Z"/><path class="cls-1" d="M53.56,13.67V29.05h1.65v1.42h-5V29.05h1.66v-14H50.22V13.67Z"/><path class="cls-1" d="M59.61,18.47V29.05h1.65v1.42h-5V29.05h1.66V19.89H56.27V18.47Zm0-1.95H57.93V13.67h1.68Z"/><path class="cls-1" d="M63.69,18.71c.8-.16,1.58-.28,2.35-.36a20.51,20.51,0,0,1,2.11-.12,8.5,8.5,0,0,1,1.84.18,3.14,3.14,0,0,1,1.35.64,2.65,2.65,0,0,1,.83,1.21,5.71,5.71,0,0,1,.28,1.91v6.88h1.63v1.42H70.77v-1.2h0a6.47,6.47,0,0,1-1.67,1,5.71,5.71,0,0,1-1.88.39,6.43,6.43,0,0,1-1.6-.11A3.76,3.76,0,0,1,64.21,30a2.91,2.91,0,0,1-.94-1.11,3.76,3.76,0,0,1-.35-1.73,3.16,3.16,0,0,1,.43-1.74,3.08,3.08,0,0,1,1.13-1.08,4.64,4.64,0,0,1,1.61-.55,10.24,10.24,0,0,1,1.84-.16h2.84V22.26a2.63,2.63,0,0,0-.68-2,3.26,3.26,0,0,0-2.3-.64c-.32,0-.7,0-1.13,0s-1,.11-1.56.22v1.58H63.69Zm4.48,6a4.65,4.65,0,0,0-2.79.62,2.15,2.15,0,0,0-.81,1.8,2.06,2.06,0,0,0,.75,1.66,3.22,3.22,0,0,0,2.11.62,4.67,4.67,0,0,0,2-.4,6.91,6.91,0,0,0,1.3-.75V24.69Z"/><path class="cls-1" d="M78.49,18.47v1.92h.05a7.41,7.41,0,0,1,.93-.79,7.74,7.74,0,0,1,1.11-.7,6.3,6.3,0,0,1,1.27-.49,5.43,5.43,0,0,1,1.4-.18v1.58a6.72,6.72,0,0,0-1.42.16,9.2,9.2,0,0,0-1.32.4,8.65,8.65,0,0,0-1.14.52c-.34.2-.64.37-.88.53v7.63h2v1.42H75.16V29.05h1.65V19.89H75.16V18.47Z"/><path class="cls-1" d="M93,19.91a10.37,10.37,0,0,0-1.86-.28l-1.31,0a3.85,3.85,0,0,0-1.49.23,2.19,2.19,0,0,0-.82.52,1.5,1.5,0,0,0-.33.62,2.06,2.06,0,0,0-.07.45,2,2,0,0,0,.1.65,1.51,1.51,0,0,0,.42.58,3.87,3.87,0,0,0,.88.5,8.44,8.44,0,0,0,1.48.43c.65.15,1.27.3,1.83.47a5.54,5.54,0,0,1,1.47.66,3,3,0,0,1,1,1,2.8,2.8,0,0,1,.35,1.45,3.25,3.25,0,0,1-1.1,2.64,4.85,4.85,0,0,1-3.2.91,25.29,25.29,0,0,1-2.65-.13,17.18,17.18,0,0,1-2.37-.4V27.45h1.42V29a11.46,11.46,0,0,0,2,.28l1.42,0a3.71,3.71,0,0,0,1.52-.26,2.54,2.54,0,0,0,.85-.6,1.4,1.4,0,0,0,.36-.69,2.8,2.8,0,0,0,.08-.54,1.68,1.68,0,0,0-.12-.63,1.49,1.49,0,0,0-.46-.57,3.69,3.69,0,0,0-.92-.49,10.74,10.74,0,0,0-1.53-.42,14.59,14.59,0,0,1-1.73-.42,5.39,5.39,0,0,1-1.43-.67,3.28,3.28,0,0,1-1-1,3.16,3.16,0,0,1-.34-1.54,2.8,2.8,0,0,1,1.1-2.42,5.27,5.27,0,0,1,3.19-.82,21,21,0,0,1,2.49.13,18,18,0,0,1,2.19.4v2.73H93Z"/><path class="cls-1" d="M99,26.55A3.84,3.84,0,0,0,99.77,28a3.44,3.44,0,0,0,1.33.95,5.35,5.35,0,0,0,2,.33c.61,0,1.22,0,1.83-.08a9.54,9.54,0,0,0,1.92-.4l.21,1.37a11.87,11.87,0,0,1-2,.42,20,20,0,0,1-2.15.11,7.22,7.22,0,0,1-2.75-.46A4.61,4.61,0,0,1,98.29,29a5.19,5.19,0,0,1-1-2,10.65,10.65,0,0,1,0-5.06,5,5,0,0,1,1-2A4.4,4.4,0,0,1,100,18.69a6.85,6.85,0,0,1,2.68-.46,5.25,5.25,0,0,1,2.88.66A3.73,3.73,0,0,1,107,20.53a5.31,5.31,0,0,1,.41,2.1,10.87,10.87,0,0,1-.21,2.06H98.75A7.26,7.26,0,0,0,99,26.55Zm1.86-6.69a3.05,3.05,0,0,0-1.15.87A3.64,3.64,0,0,0,99.05,22a7.66,7.66,0,0,0-.3,1.57h6.84a5.52,5.52,0,0,0,.11-1.41,3.07,3.07,0,0,0-.36-1.3,2.59,2.59,0,0,0-1-.95,3.51,3.51,0,0,0-1.74-.37A4.33,4.33,0,0,0,100.87,19.86Z"/><path class="cls-1" d="M114.68,18.71c.8-.16,1.59-.28,2.36-.36a20.35,20.35,0,0,1,2.11-.12,8.34,8.34,0,0,1,1.83.18,3.12,3.12,0,0,1,1.36.64,2.73,2.73,0,0,1,.83,1.21,5.73,5.73,0,0,1,.27,1.91v6.88h1.64v1.42h-3.32v-1.2h0a6.47,6.47,0,0,1-1.67,1,5.71,5.71,0,0,1-1.89.39,6.35,6.35,0,0,1-1.59-.11,3.69,3.69,0,0,1-1.36-.58,3,3,0,0,1-.95-1.11,3.89,3.89,0,0,1-.34-1.73,3.16,3.16,0,0,1,.43-1.74,3.08,3.08,0,0,1,1.13-1.08,4.66,4.66,0,0,1,1.6-.55,10.43,10.43,0,0,1,1.85-.16h2.83V22.26a2.63,2.63,0,0,0-.67-2,3.28,3.28,0,0,0-2.3-.64c-.32,0-.7,0-1.13,0s-1,.11-1.56.22v1.58h-1.42Zm4.49,6a4.63,4.63,0,0,0-2.79.62,2.15,2.15,0,0,0-.81,1.8,2.06,2.06,0,0,0,.75,1.66,3.22,3.22,0,0,0,2.11.62,4.67,4.67,0,0,0,2-.4,6.48,6.48,0,0,0,1.29-.75V24.69Z"/><path class="cls-1" d="M146,15.56h-1.63V30.47H142.5l-8.69-13.08h-.05V29.05h1.71v1.42h-5V29.05h1.65V15.56h-1.65V14.15h3.38l8.79,13.3h0V15.56H141V14.15h5Z"/><path class="cls-1" d="M149.41,18.47v7.94a5.28,5.28,0,0,0,.13,1.16,2.36,2.36,0,0,0,.45.91,2.26,2.26,0,0,0,.81.6,3.3,3.3,0,0,0,1.25.21,4,4,0,0,0,1.15-.16,8.18,8.18,0,0,0,1.05-.41,6.44,6.44,0,0,0,.9-.52,7.77,7.77,0,0,0,.69-.51v-7.8h-2.11V18.47h3.79V29.05h1.64v1.42h-3.32V28.74h0a8.34,8.34,0,0,1-2,1.42,5.43,5.43,0,0,1-2.44.55,3.44,3.44,0,0,1-2.7-1,4.24,4.24,0,0,1-.9-2.94V19.89h-1.65V18.47Z"/><path class="cls-1" d="M163,26.55a3.84,3.84,0,0,0,.76,1.46,3.44,3.44,0,0,0,1.33.95,5.31,5.31,0,0,0,2,.33c.61,0,1.22,0,1.83-.08a9.83,9.83,0,0,0,1.92-.4l.21,1.37a11.87,11.87,0,0,1-2,.42,20,20,0,0,1-2.15.11,7.19,7.19,0,0,1-2.75-.46A4.61,4.61,0,0,1,162.25,29a5.19,5.19,0,0,1-1-2,10.65,10.65,0,0,1,0-5.06,5,5,0,0,1,1-2A4.4,4.4,0,0,1,164,18.69a6.85,6.85,0,0,1,2.68-.46,5.25,5.25,0,0,1,2.88.66A3.73,3.73,0,0,1,171,20.53a5.14,5.14,0,0,1,.4,2.1,10.14,10.14,0,0,1-.2,2.06h-8.47A7.26,7.26,0,0,0,163,26.55Zm1.86-6.69a3.05,3.05,0,0,0-1.15.87A3.64,3.64,0,0,0,163,22a7.66,7.66,0,0,0-.3,1.57h6.84a6,6,0,0,0,.11-1.41,3.07,3.07,0,0,0-.36-1.3,2.59,2.59,0,0,0-1-.95,3.51,3.51,0,0,0-1.74-.37A4.27,4.27,0,0,0,164.83,19.86Z"/><path class="cls-1" d="M185,18.47v1.42h-1.1l-4.3,10.7h-2l-4.29-10.7h-1.16V18.47h5v1.42h-1.92l3.53,8.92h0l3.46-8.92h-1.89V18.47Z"/><path class="cls-1" d="M186.4,18.71c.8-.16,1.58-.28,2.35-.36a20.51,20.51,0,0,1,2.11-.12,8.5,8.5,0,0,1,1.84.18,3.14,3.14,0,0,1,1.35.64,2.65,2.65,0,0,1,.83,1.21,5.71,5.71,0,0,1,.28,1.91v6.88h1.63v1.42h-3.31v-1.2h0a6.47,6.47,0,0,1-1.67,1,5.71,5.71,0,0,1-1.88.39,6.43,6.43,0,0,1-1.6-.11,3.76,3.76,0,0,1-1.36-.58,2.91,2.91,0,0,1-.94-1.11,3.76,3.76,0,0,1-.35-1.73,3.16,3.16,0,0,1,.43-1.74,3.08,3.08,0,0,1,1.13-1.08,4.64,4.64,0,0,1,1.61-.55,10.24,10.24,0,0,1,1.84-.16h2.84V22.26a2.63,2.63,0,0,0-.68-2,3.26,3.26,0,0,0-2.3-.64c-.32,0-.7,0-1.13,0s-1,.11-1.56.22v1.58H186.4Zm4.48,6a4.65,4.65,0,0,0-2.79.62,2.15,2.15,0,0,0-.81,1.8,2.06,2.06,0,0,0,.75,1.66,3.22,3.22,0,0,0,2.11.62,4.67,4.67,0,0,0,2-.4,6.91,6.91,0,0,0,1.3-.75V24.69Z"/><path class="cls-1" d="M214.73,23.53a4.11,4.11,0,0,1,.83,2.6,4.24,4.24,0,0,1-1.2,3.18,5,5,0,0,1-3.58,1.16h-8.59V29.05h1.65V15.56h-1.65V14.15h8.11a5,5,0,0,1,3.58,1.13,3.92,3.92,0,0,1,1.2,3,4.08,4.08,0,0,1-.71,2.43,3.6,3.6,0,0,1-2.05,1.38v.05A4,4,0,0,1,214.73,23.53Zm-2.32-7.15a3.07,3.07,0,0,0-2.3-.82h-4.49v5.89h4.49a3.22,3.22,0,0,0,2.3-.76,2.89,2.89,0,0,0,.79-2.2A2.91,2.91,0,0,0,212.41,16.38Zm-6.79,12.67h4.9a3.27,3.27,0,0,0,2.34-.79,3,3,0,0,0,.82-2.3,3,3,0,0,0-.87-2.26,3.64,3.64,0,0,0-2.61-.84h-4.58Z"/><path class="cls-1" d="M218.12,18.71c.8-.16,1.59-.28,2.36-.36a20.35,20.35,0,0,1,2.11-.12,8.34,8.34,0,0,1,1.83.18,3.12,3.12,0,0,1,1.36.64,2.73,2.73,0,0,1,.83,1.21,5.73,5.73,0,0,1,.27,1.91v6.88h1.64v1.42H225.2v-1.2h0a6.47,6.47,0,0,1-1.67,1,5.71,5.71,0,0,1-1.89.39,6.35,6.35,0,0,1-1.59-.11,3.69,3.69,0,0,1-1.36-.58,3,3,0,0,1-1-1.11,3.89,3.89,0,0,1-.34-1.73,3.16,3.16,0,0,1,.43-1.74,3.08,3.08,0,0,1,1.13-1.08,4.66,4.66,0,0,1,1.6-.55,10.43,10.43,0,0,1,1.85-.16h2.83V22.26a2.63,2.63,0,0,0-.67-2,3.28,3.28,0,0,0-2.3-.64c-.32,0-.7,0-1.13,0s-.95.11-1.56.22v1.58h-1.42Zm4.49,6a4.63,4.63,0,0,0-2.79.62,2.15,2.15,0,0,0-.81,1.8,2.06,2.06,0,0,0,.75,1.66,3.22,3.22,0,0,0,2.11.62,4.67,4.67,0,0,0,2-.4,6.48,6.48,0,0,0,1.29-.75V24.69Z"/><path class="cls-1" d="M239.36,29.05V22.53a3.54,3.54,0,0,0-.57-2.07,2.39,2.39,0,0,0-2.07-.81,4,4,0,0,0-1.15.16,7.51,7.51,0,0,0-1,.41,6.44,6.44,0,0,0-.9.52,6.76,6.76,0,0,0-.7.51v7.8h1.56v1.42h-4.9V29.05h1.66V19.89h-1.66V18.47h3.34v1.75h0a8,8,0,0,1,2-1.44,5.35,5.35,0,0,1,2.43-.55,3.41,3.41,0,0,1,2.7,1,4.26,4.26,0,0,1,.9,2.93v6.88h1.64v1.42H237.8V29.05Z"/><path class="cls-1" d="M252.8,19.91a10.9,10.9,0,0,0-1.56-.23l-1.05,0a4.2,4.2,0,0,0-1.83.36,3.3,3.3,0,0,0-1.22,1,4.44,4.44,0,0,0-.7,1.54,8.88,8.88,0,0,0,0,3.84,4.44,4.44,0,0,0,.7,1.54,3.3,3.3,0,0,0,1.22,1,4.2,4.2,0,0,0,1.83.36c.41,0,.9,0,1.45-.06a13.64,13.64,0,0,0,2.24-.42l.32,1.37c-.72.18-1.38.31-2,.4a13.86,13.86,0,0,1-2,.13,6.94,6.94,0,0,1-2.69-.46A4.37,4.37,0,0,1,245.72,29a5.13,5.13,0,0,1-1-2,10.82,10.82,0,0,1,0-5.06,5.13,5.13,0,0,1,1-2,4.37,4.37,0,0,1,1.78-1.28,6.94,6.94,0,0,1,2.69-.46,13.86,13.86,0,0,1,2,.13c.6.09,1.26.22,2,.4v2.73h-1.4Z"/><path class="cls-1" d="M256.69,18.71c.8-.16,1.59-.28,2.35-.36a20.69,20.69,0,0,1,2.12-.12,8.4,8.4,0,0,1,1.83.18,3.12,3.12,0,0,1,1.36.64,2.73,2.73,0,0,1,.83,1.21,5.73,5.73,0,0,1,.27,1.91v6.88h1.63v1.42h-3.31v-1.2h0a6.42,6.42,0,0,1-1.66,1,5.77,5.77,0,0,1-1.89.39,6.35,6.35,0,0,1-1.59-.11,3.69,3.69,0,0,1-1.36-.58,2.94,2.94,0,0,1-1-1.11,3.89,3.89,0,0,1-.35-1.73,3.16,3.16,0,0,1,.44-1.74,3.05,3.05,0,0,1,1.12-1.08,4.71,4.71,0,0,1,1.61-.55,10.43,10.43,0,0,1,1.85-.16h2.83V22.26a2.63,2.63,0,0,0-.67-2,3.29,3.29,0,0,0-2.3-.64c-.32,0-.7,0-1.13,0s-1,.11-1.56.22v1.58h-1.42Zm4.49,6a4.69,4.69,0,0,0-2.8.62,2.17,2.17,0,0,0-.8,1.8,2.08,2.08,0,0,0,.74,1.66,3.25,3.25,0,0,0,2.12.62,4.67,4.67,0,0,0,2-.4,6.48,6.48,0,0,0,1.29-.75V24.69Z"/><path class="cls-1" d="M290.84,18.47v1.42h-1.12l-3.32,10.7h-1.8l-2.93-9.24h0l-2.74,9.24h-1.8l-3.5-10.7h-1.11V18.47h4.95v1.42h-2l2.73,8.71h.05l2.91-10.13h1.41l3.05,10.22h0l2.49-8.8h-1.92V18.47Z"/><path class="cls-1" d="M294.63,26.55a4,4,0,0,0,.76,1.46,3.44,3.44,0,0,0,1.33.95,5.35,5.35,0,0,0,2,.33c.61,0,1.22,0,1.83-.08a9.54,9.54,0,0,0,1.92-.4l.21,1.37a11.68,11.68,0,0,1-2.05.42,20,20,0,0,1-2.15.11,7.13,7.13,0,0,1-2.74-.46A4.58,4.58,0,0,1,293.91,29a5,5,0,0,1-1-2,9.47,9.47,0,0,1-.32-2.53,9.92,9.92,0,0,1,.3-2.53,5,5,0,0,1,1-2,4.47,4.47,0,0,1,1.77-1.28,6.85,6.85,0,0,1,2.68-.46,5.25,5.25,0,0,1,2.88.66,3.73,3.73,0,0,1,1.43,1.64,5.31,5.31,0,0,1,.41,2.1,10.87,10.87,0,0,1-.21,2.06h-8.47A7.73,7.73,0,0,0,294.63,26.55Zm1.86-6.69a3.05,3.05,0,0,0-1.15.87,3.81,3.81,0,0,0-.67,1.28,7.66,7.66,0,0,0-.3,1.57h6.84a5.52,5.52,0,0,0,.11-1.41,3.07,3.07,0,0,0-.36-1.3,2.52,2.52,0,0,0-1-.95,3.46,3.46,0,0,0-1.74-.37A4.33,4.33,0,0,0,296.49,19.86Z"/><path class="cls-1" d="M307.71,13.67v6h.05a5.79,5.79,0,0,1,1.69-1,5.65,5.65,0,0,1,2.13-.41,4.3,4.3,0,0,1,2.11.48A3.75,3.75,0,0,1,315.08,20a5.84,5.84,0,0,1,.76,2,12.69,12.69,0,0,1,.23,2.46,11.94,11.94,0,0,1-.24,2.46,5.86,5.86,0,0,1-.78,2,3.91,3.91,0,0,1-1.42,1.32,4.34,4.34,0,0,1-2.12.48,6.07,6.07,0,0,1-2.12-.38,5.92,5.92,0,0,1-1.72-1h-.05l-.29,1.15h-2.95V29.05H306v-14h-1.65V13.67Zm6.42,9a4.47,4.47,0,0,0-.54-1.53,3,3,0,0,0-1-1.06,3.07,3.07,0,0,0-1.61-.39,4.42,4.42,0,0,0-1,.12,7,7,0,0,0-.91.28,5.24,5.24,0,0,0-.75.38c-.21.13-.39.26-.54.37v7.34c.15.11.33.24.54.37a5.24,5.24,0,0,0,.75.38,7,7,0,0,0,.91.28,4.42,4.42,0,0,0,1,.12,3.07,3.07,0,0,0,1.61-.38,2.83,2.83,0,0,0,1-1.06,4.55,4.55,0,0,0,.54-1.53,9.88,9.88,0,0,0,.16-1.85A10,10,0,0,0,314.13,22.63Z"/><path class="cls-2" d="M65.78,318.78a1.76,1.76,0,0,1-.79-.56,2.28,2.28,0,0,1-.38-.72,2.9,2.9,0,0,1-.11-.79,2.33,2.33,0,0,1,.25-1.11,2.11,2.11,0,0,1,.6-.76c.24-.19.48-.36.71-.52a2.56,2.56,0,0,0,.6-.52,1,1,0,0,0,.25-.66v-.39h1v.39a1.74,1.74,0,0,1-.24.93,2.22,2.22,0,0,1-.56.65l-.65.5a2.46,2.46,0,0,0-.57.59,1.41,1.41,0,0,0-.23.79c0,.86.53,1.29,1.6,1.29a5.72,5.72,0,0,0,1.93-.41l.34,1A6.85,6.85,0,0,1,67,319,3.39,3.39,0,0,1,65.78,318.78Zm1.06-7.07V310H68v1.69Z"/><path class="cls-2" d="M74.41,308.78v7.74H73.17v-7.74H70.74v-1.1h6.11v1.1Z"/><path class="cls-2" d="M78.49,307.68v1.62H77.32v-1.62Zm0,2.34v6.5H77.32V310Z"/><path class="cls-2" d="M81.05,313.46c0,1.48.76,2.21,2.15,2.21a7,7,0,0,0,2-.25l.16.94a9,9,0,0,1-2.34.29q-3.26,0-3.25-3.38T83,309.89a2.55,2.55,0,0,1,2,.64,2.46,2.46,0,0,1,.64,1.62,6.45,6.45,0,0,1-.07,1.31Zm0-.74h3.3a2.43,2.43,0,0,0,0-.69,1.33,1.33,0,0,0-.39-.89,1.52,1.52,0,0,0-1.09-.34Q81.2,310.8,81.05,312.72Z"/><path class="cls-2" d="M88,316.52H86.81V310H88v.91h0a3.27,3.27,0,0,1,2.31-1,1.86,1.86,0,0,1,1.46.55,2.36,2.36,0,0,1,.49,1.59v4.49H91.1v-4.23c0-1-.43-1.43-1.3-1.43a3.11,3.11,0,0,0-1.82.76Z"/><path class="cls-2" d="M94.83,313.46c0,1.48.76,2.21,2.15,2.21a7,7,0,0,0,2-.25l.16.94a9,9,0,0,1-2.34.29q-3.25,0-3.25-3.38t3.18-3.38a2.55,2.55,0,0,1,2,.64,2.46,2.46,0,0,1,.64,1.62,6.45,6.45,0,0,1-.07,1.31Zm0-.74h3.3a2.43,2.43,0,0,0,0-.69,1.3,1.3,0,0,0-.4-.89,1.49,1.49,0,0,0-1.08-.34Q95,310.8,94.83,312.72Z"/><path class="cls-2" d="M105,316.14a2.75,2.75,0,0,1-1.78.51,11.81,11.81,0,0,1-2.8-.29l.21-.94a10.61,10.61,0,0,0,2.46.29,1.38,1.38,0,0,0,1.07-.32,1,1,0,0,0,.29-.64.69.69,0,0,0-.31-.58,3,3,0,0,0-1.15-.39,4.54,4.54,0,0,1-1.81-.67,1.61,1.61,0,0,1-.63-1.4c0-1.21.81-1.82,2.41-1.82a10.66,10.66,0,0,1,2.6.3l-.22.93a9.56,9.56,0,0,0-2.32-.28,2,2,0,0,0-.68.1.8.8,0,0,0-.41.24,1,1,0,0,0-.16.27.68.68,0,0,0,0,.23.74.74,0,0,0,.29.59,2.81,2.81,0,0,0,1.11.4,9.19,9.19,0,0,1,1,.26,3.48,3.48,0,0,1,.77.35,1.51,1.51,0,0,1,.58.57,2,2,0,0,1-.44,2.29Z"/><path class="cls-2" d="M110.34,310.67h0a2.68,2.68,0,0,1,2-.78c1.61,0,2.41,1.13,2.41,3.38a4.57,4.57,0,0,1-.59,2.46,2.08,2.08,0,0,1-1.88.92,2.6,2.6,0,0,1-1.92-.74h0v3.21h-1.17V310h1.17Zm1.56.19a2.35,2.35,0,0,0-1.56.56v3.71a2.47,2.47,0,0,0,1.56.54q1.62,0,1.62-2.4C113.52,311.67,113,310.86,111.9,310.86Z"/><path class="cls-2" d="M117.23,316.52h-1.17V310h1.17v1h0a3.7,3.7,0,0,1,1.07-.83,2.84,2.84,0,0,1,1.37-.34V311a4.46,4.46,0,0,0-2.47.76Z"/><path class="cls-2" d="M120,313.27q0-3.37,3-3.38c2,0,3,1.13,3,3.38s-1,3.38-3,3.38S120,315.52,120,313.27Zm1.24,0c0,1.6.58,2.4,1.75,2.4s1.76-.8,1.76-2.4-.59-2.41-1.76-2.41S121.21,311.67,121.21,313.27Z"/><path class="cls-2" d="M128.42,310.67h0a2.69,2.69,0,0,1,2-.78c1.6,0,2.4,1.13,2.4,3.38a4.48,4.48,0,0,1-.59,2.46,2.07,2.07,0,0,1-1.88.92,2.85,2.85,0,0,1-2-.74h0l-.21.65h-.9v-9.14h1.17Zm1.56.19a2.35,2.35,0,0,0-1.56.56v3.71a2.47,2.47,0,0,0,1.56.54c1.09,0,1.63-.8,1.63-2.4S131.07,310.86,130,310.86Z"/><path class="cls-2" d="M134.14,307.42h1.17v9.1h-1.17Z"/><path class="cls-2" d="M137.87,313.46c0,1.48.76,2.21,2.15,2.21a7,7,0,0,0,2-.25l.15.94a9,9,0,0,1-2.34.29c-2.16,0-3.25-1.13-3.25-3.38s1.06-3.38,3.19-3.38a2.25,2.25,0,0,1,2.6,2.26,6.59,6.59,0,0,1-.08,1.31Zm0-.74h3.31a2.8,2.8,0,0,0,0-.69,1.29,1.29,0,0,0-.39-.89,1.52,1.52,0,0,0-1.09-.34Q138,310.8,137.87,312.72Z"/><path class="cls-2" d="M144.8,316.52h-1.17V310h1.17v.91h0a2.91,2.91,0,0,1,2.12-1,1.69,1.69,0,0,1,1.78,1.14,3.07,3.07,0,0,1,2.31-1.14,1.86,1.86,0,0,1,1.46.55A2.31,2.31,0,0,1,153,312v4.49h-1.17v-4.23c0-1-.43-1.43-1.3-1.43a3,3,0,0,0-1.66.77c0,.21,0,.45,0,.72v4.17h-1.17v-4.26c0-.93-.46-1.4-1.3-1.4a1.57,1.57,0,0,0-.65.15,2.76,2.76,0,0,0-.52.26l-.46.35Z"/><path class="cls-2" d="M154.83,311.11l-.19-.95a13.81,13.81,0,0,1,2.51-.27,2.9,2.9,0,0,1,1.82.47,2,2,0,0,1,.59,1.67v4.49h-1.17v-.65h0a3,3,0,0,1-2.05.78,2.13,2.13,0,0,1-1.52-.53,1.78,1.78,0,0,1-.56-1.38,1.65,1.65,0,0,1,.74-1.51,3.59,3.59,0,0,1,2-.48h1.43v-.65a1.16,1.16,0,0,0-.35-.94,1.78,1.78,0,0,0-1.15-.3A11.07,11.07,0,0,0,154.83,311.11Zm3.56,2.35H157a2.05,2.05,0,0,0-1.25.3,1,1,0,0,0-.37.87,1,1,0,0,0,.36.82,1.59,1.59,0,0,0,1,.29,2.55,2.55,0,0,0,1.63-.55Z"/><path class="cls-2" d="M165.37,316.14a2.75,2.75,0,0,1-1.78.51,11.75,11.75,0,0,1-2.8-.29l.21-.94a10.61,10.61,0,0,0,2.46.29,1.4,1.4,0,0,0,1.07-.32,1,1,0,0,0,.29-.64.67.67,0,0,0-.32-.58,2.83,2.83,0,0,0-1.15-.39,4.49,4.49,0,0,1-1.8-.67,1.61,1.61,0,0,1-.63-1.4c0-1.21.8-1.82,2.41-1.82a10.72,10.72,0,0,1,2.6.3l-.22.93a9.62,9.62,0,0,0-2.32-.28,2,2,0,0,0-.69.1.8.8,0,0,0-.4.24,1,1,0,0,0-.16.27.68.68,0,0,0,0,.23.74.74,0,0,0,.29.59,2.82,2.82,0,0,0,1.1.4,8.81,8.81,0,0,1,1,.26,3.48,3.48,0,0,1,.77.35,1.42,1.42,0,0,1,.57.57,1.63,1.63,0,0,1,.19.82A1.78,1.78,0,0,1,165.37,316.14Z"/><path class="cls-2" d="M170.74,310.67h0a2.71,2.71,0,0,1,2-.78c1.61,0,2.41,1.13,2.41,3.38a4.57,4.57,0,0,1-.59,2.46,2.09,2.09,0,0,1-1.88.92,2.64,2.64,0,0,1-1.93-.74h0v3.21h-1.17V310h1.17Zm1.56.19a2.35,2.35,0,0,0-1.56.56v3.71a2.47,2.47,0,0,0,1.56.54q1.62,0,1.62-2.4C173.92,311.67,173.38,310.86,172.3,310.86Z"/><path class="cls-2" d="M176.86,311.11l-.18-.95a13.72,13.72,0,0,1,2.51-.27,2.92,2.92,0,0,1,1.82.47,2,2,0,0,1,.58,1.67v4.49h-1.17v-.65h0a3,3,0,0,1-2.06.78,2.13,2.13,0,0,1-1.52-.53,1.82,1.82,0,0,1-.56-1.38,1.67,1.67,0,0,1,.74-1.51,3.64,3.64,0,0,1,2-.48h1.43v-.65a1.16,1.16,0,0,0-.35-.94,1.73,1.73,0,0,0-1.14-.3A11.07,11.07,0,0,0,176.86,311.11Zm3.56,2.35h-1.36a2,2,0,0,0-1.25.3,1,1,0,0,0-.38.87,1,1,0,0,0,.37.82,1.57,1.57,0,0,0,1,.29,2.54,2.54,0,0,0,1.62-.55Z"/><path class="cls-2" d="M184.19,316.52H183V310h1.17v1h0a3.61,3.61,0,0,1,1.08-.83,2.8,2.8,0,0,1,1.36-.34V311a4.48,4.48,0,0,0-2.47.76Z"/><path class="cls-2" d="M187.4,311.11l-.18-.95a13.72,13.72,0,0,1,2.51-.27,2.92,2.92,0,0,1,1.82.47,2,2,0,0,1,.58,1.67v4.49H191v-.65h0a3,3,0,0,1-2.06.78,2.15,2.15,0,0,1-1.52-.53,1.82,1.82,0,0,1-.56-1.38,1.66,1.66,0,0,1,.75-1.51,3.59,3.59,0,0,1,2-.48H191v-.65a1.13,1.13,0,0,0-.35-.94,1.73,1.73,0,0,0-1.14-.3A11.26,11.26,0,0,0,187.4,311.11Zm3.56,2.35H189.6a2,2,0,0,0-1.25.3,1,1,0,0,0-.38.87,1,1,0,0,0,.37.82,1.59,1.59,0,0,0,1,.29,2.5,2.5,0,0,0,1.62-.55Z"/><path class="cls-2" d="M197.07,307.68v1.62H195.9v-1.62Zm0,2.34v6.5H195.9V310Z"/><path class="cls-2" d="M199.67,316.52H198.5V310h1.17v.91h0a3.27,3.27,0,0,1,2.31-1,1.84,1.84,0,0,1,1.46.55A2.31,2.31,0,0,1,204,312v4.49h-1.17v-4.23c0-1-.43-1.43-1.3-1.43a3.14,3.14,0,0,0-1.82.76Z"/><path class="cls-2" d="M206.56,307.68v1.62h-1.17v-1.62Zm0,2.34v6.5h-1.17V310Z"/><path class="cls-2" d="M211.05,309.89a9.12,9.12,0,0,1,2.21.3l-.22.93a8.37,8.37,0,0,0-2-.26,1.72,1.72,0,0,0-1.47.65,3.47,3.47,0,0,0,0,3.52,1.71,1.71,0,0,0,1.47.64,8.34,8.34,0,0,0,2-.25l.22.94a9.13,9.13,0,0,1-2.21.29c-2.12,0-3.19-1.13-3.19-3.38S208.93,309.89,211.05,309.89Z"/><path class="cls-2" d="M215.4,307.68v1.62h-1.17v-1.62Zm0,2.34v6.5h-1.17V310Z"/><path class="cls-2" d="M217.24,311.11l-.19-.95a13.81,13.81,0,0,1,2.51-.27,2.9,2.9,0,0,1,1.82.47A2,2,0,0,1,222,312v4.49H220.8v-.65h0a3,3,0,0,1-2.05.78,2.13,2.13,0,0,1-1.52-.53,1.78,1.78,0,0,1-.56-1.38,1.65,1.65,0,0,1,.74-1.51,3.62,3.62,0,0,1,2-.48h1.43v-.65a1.16,1.16,0,0,0-.35-.94,1.78,1.78,0,0,0-1.15-.3A11.07,11.07,0,0,0,217.24,311.11Zm3.56,2.35h-1.37a2,2,0,0,0-1.24.3,1.15,1.15,0,0,0,0,1.69,1.61,1.61,0,0,0,1,.29,2.55,2.55,0,0,0,1.63-.55Z"/><path class="cls-2" d="M224.57,316.52H223.4V310h1.17v1h0a3.7,3.7,0,0,1,1.07-.83,2.84,2.84,0,0,1,1.37-.34V311a4.46,4.46,0,0,0-2.47.76Z"/><path class="cls-2" d="M234.93,316.14a2.75,2.75,0,0,1-1.78.51,11.81,11.81,0,0,1-2.8-.29l.21-.94a10.61,10.61,0,0,0,2.46.29,1.38,1.38,0,0,0,1.07-.32,1,1,0,0,0,.29-.64.67.67,0,0,0-.32-.58,2.83,2.83,0,0,0-1.15-.39,4.49,4.49,0,0,1-1.8-.67,1.61,1.61,0,0,1-.63-1.4c0-1.21.81-1.82,2.41-1.82a10.72,10.72,0,0,1,2.6.3l-.22.93a9.56,9.56,0,0,0-2.32-.28,2.09,2.09,0,0,0-.69.1.8.8,0,0,0-.4.24,1,1,0,0,0-.16.27.68.68,0,0,0,0,.23.74.74,0,0,0,.29.59,2.82,2.82,0,0,0,1.1.4,8.81,8.81,0,0,1,1,.26,3.48,3.48,0,0,1,.77.35,1.51,1.51,0,0,1,.58.57,2,2,0,0,1-.44,2.29Z"/><path class="cls-2" d="M237.92,313.46c0,1.48.76,2.21,2.14,2.21a7,7,0,0,0,2-.25l.16.94a9,9,0,0,1-2.34.29q-3.25,0-3.25-3.38t3.18-3.38a2.55,2.55,0,0,1,2,.64,2.46,2.46,0,0,1,.64,1.62,6.45,6.45,0,0,1-.07,1.31Zm0-.74h3.3a2.43,2.43,0,0,0,0-.69,1.38,1.38,0,0,0-.39-.89,1.53,1.53,0,0,0-1.09-.34Q238.07,310.8,237.92,312.72Z"/><path class="cls-2" d="M248.06,316.14a2.75,2.75,0,0,1-1.78.51,11.81,11.81,0,0,1-2.8-.29l.21-.94a10.61,10.61,0,0,0,2.46.29,1.38,1.38,0,0,0,1.07-.32,1,1,0,0,0,.29-.64.69.69,0,0,0-.31-.58,3,3,0,0,0-1.16-.39,4.55,4.55,0,0,1-1.8-.67,1.61,1.61,0,0,1-.63-1.4c0-1.21.81-1.82,2.41-1.82a10.66,10.66,0,0,1,2.6.3l-.22.93a9.62,9.62,0,0,0-2.32-.28,2,2,0,0,0-.69.1.8.8,0,0,0-.4.24,1,1,0,0,0-.16.27.68.68,0,0,0-.05.23.74.74,0,0,0,.29.59,2.82,2.82,0,0,0,1.1.4,8.81,8.81,0,0,1,1,.26,3.48,3.48,0,0,1,.77.35,1.42,1.42,0,0,1,.57.57,1.63,1.63,0,0,1,.19.82A1.75,1.75,0,0,1,248.06,316.14Z"/><path class="cls-2" d="M251.09,307.68v1.62h-1.17v-1.62Zm0,2.34v6.5h-1.17V310Z"/><path class="cls-2" d="M252.39,313.27c0-2.25,1-3.38,3-3.38s3,1.13,3,3.38-1,3.38-3,3.38S252.39,315.52,252.39,313.27Zm1.23,0c0,1.6.59,2.4,1.76,2.4s1.75-.8,1.75-2.4-.58-2.41-1.75-2.41S253.62,311.67,253.62,313.27Zm2-4H255l.78-1.56h1Z"/><path class="cls-2" d="M260.84,316.52h-1.17V310h1.17v.91h0a3.27,3.27,0,0,1,2.31-1,1.83,1.83,0,0,1,1.45.55,2.31,2.31,0,0,1,.5,1.59v4.49H264v-4.23c0-1-.43-1.43-1.3-1.43a3.11,3.11,0,0,0-1.82.76Z"/><path class="cls-2" d="M270.21,307.76a1.76,1.76,0,0,1,.79.56,2.28,2.28,0,0,1,.38.72,2.54,2.54,0,0,1,.12.78,2.34,2.34,0,0,1-.25,1.12,2.23,2.23,0,0,1-.6.76c-.24.19-.48.36-.71.52a3,3,0,0,0-.6.52,1,1,0,0,0-.25.66v.39h-1v-.39a1.83,1.83,0,0,1,.23-.93,2.22,2.22,0,0,1,.56-.65l.66-.5a2.25,2.25,0,0,0,.56-.59,1.41,1.41,0,0,0,.23-.79q0-1.29-1.59-1.29a6.08,6.08,0,0,0-1.93.41l-.34-1a6.57,6.57,0,0,1,2.53-.51A3.3,3.3,0,0,1,270.21,307.76Zm-1,7.07v1.69H268v-1.69Z"/><path class="cls-3" d="M94.21,370.78a1.76,1.76,0,0,1-.79-.56,2.28,2.28,0,0,1-.38-.72,2.9,2.9,0,0,1-.11-.79,2.33,2.33,0,0,1,.25-1.11,2.23,2.23,0,0,1,.6-.76c.24-.19.48-.36.71-.52a2.56,2.56,0,0,0,.6-.52,1,1,0,0,0,.25-.66v-.39h1v.39a1.76,1.76,0,0,1-.24.93,2.22,2.22,0,0,1-.56.65l-.65.5a2.46,2.46,0,0,0-.57.59,1.41,1.41,0,0,0-.23.79c0,.86.53,1.28,1.6,1.28a5.78,5.78,0,0,0,1.94-.4l.33,1a6.85,6.85,0,0,1-2.53.49A3.39,3.39,0,0,1,94.21,370.78Zm1.06-7.07V362h1.17v1.69Z"/><path class="cls-3" d="M105.09,360.79h-4.42v2.59h3.83v1.11h-3.83v2.93h4.48v1.1H99.43v-8.84h5.66Z"/><path class="cls-3" d="M107.75,368.52h-1.17V362h1.17v1h0a3.61,3.61,0,0,1,1.08-.83,2.8,2.8,0,0,1,1.36-.34V363a4.48,4.48,0,0,0-2.47.76Z"/><path class="cls-3" d="M111.76,365.46c0,1.48.75,2.21,2.14,2.21a7,7,0,0,0,2-.25l.16.94a9.09,9.09,0,0,1-2.34.29q-3.25,0-3.25-3.38t3.18-3.38a2.57,2.57,0,0,1,2,.64,2.51,2.51,0,0,1,.64,1.62,5.9,5.9,0,0,1-.08,1.31Zm0-.74h3.3a2.81,2.81,0,0,0,0-.68,1.35,1.35,0,0,0-.4-.9,1.51,1.51,0,0,0-1.08-.34Q111.91,362.8,111.76,364.72Z"/><path class="cls-3" d="M121.9,368.14a2.75,2.75,0,0,1-1.78.51,11.69,11.69,0,0,1-2.8-.29l.21-.94a10.55,10.55,0,0,0,2.46.29,1.4,1.4,0,0,0,1.07-.32,1,1,0,0,0,.29-.64.7.7,0,0,0-.32-.58,2.83,2.83,0,0,0-1.15-.39,4.61,4.61,0,0,1-1.81-.67,1.63,1.63,0,0,1-.62-1.4c0-1.21.8-1.82,2.41-1.82a10.72,10.72,0,0,1,2.6.3l-.23.93a9.48,9.48,0,0,0-2.31-.28,2,2,0,0,0-.69.1.8.8,0,0,0-.4.24,1,1,0,0,0-.16.27.68.68,0,0,0,0,.23.74.74,0,0,0,.29.59,2.82,2.82,0,0,0,1.1.4,8.81,8.81,0,0,1,1,.26,3.42,3.42,0,0,1,.76.35,1.45,1.45,0,0,1,.58.57,1.63,1.63,0,0,1,.19.82A1.79,1.79,0,0,1,121.9,368.14Z"/><path class="cls-3" d="M127.27,368.52h-1.18V362h1.18v.91h0a3.28,3.28,0,0,1,2.32-1,1.83,1.83,0,0,1,1.45.55,2.32,2.32,0,0,1,.5,1.6v4.48h-1.17v-4.23c0-1-.44-1.42-1.31-1.42a3.07,3.07,0,0,0-1.81.75Z"/><path class="cls-3" d="M137.28,362h1.17v6.5h-1.17v-.91h0a3.2,3.2,0,0,1-2.31,1,1.84,1.84,0,0,1-1.46-.55,2.32,2.32,0,0,1-.49-1.6V362h1.17v4.23c0,.95.43,1.42,1.3,1.42a3.19,3.19,0,0,0,1.82-.74Z"/><path class="cls-3" d="M141,365.46c0,1.48.75,2.21,2.14,2.21a7,7,0,0,0,2-.25l.16.94a9.14,9.14,0,0,1-2.34.29q-3.25,0-3.25-3.38t3.18-3.38a2.57,2.57,0,0,1,2,.64,2.51,2.51,0,0,1,.64,1.62,5.9,5.9,0,0,1-.08,1.31Zm0-.74h3.3a2.81,2.81,0,0,0,0-.68,1.35,1.35,0,0,0-.4-.9,1.51,1.51,0,0,0-1.08-.34Q141.16,362.8,141,364.72Z"/><path class="cls-3" d="M148.56,368.58,146.15,362h1.32l1.82,5.25h0l1.84-5.25h1.24L150,368.58Z"/><path class="cls-3" d="M152.77,365.27q0-3.37,3-3.38t3,3.38q0,3.38-3,3.38T152.77,365.27Zm1.24,0c0,1.6.58,2.4,1.75,2.4s1.76-.8,1.76-2.4-.59-2.4-1.76-2.4S154,363.67,154,365.27Z"/><path class="cls-3" d="M163.52,365.46c0,1.48.76,2.21,2.15,2.21a7.08,7.08,0,0,0,2-.25l.15.94a9,9,0,0,1-2.34.29q-3.25,0-3.25-3.38t3.19-3.38a2.25,2.25,0,0,1,2.6,2.26,6.59,6.59,0,0,1-.08,1.31Zm0-.74h3.3a2.38,2.38,0,0,0,0-.68,1.29,1.29,0,0,0-.39-.9,1.52,1.52,0,0,0-1.09-.34Q163.69,362.8,163.52,364.72Z"/><path class="cls-3" d="M170.45,368.52h-1.17V362h1.17v.91h0a3.27,3.27,0,0,1,2.31-1,1.86,1.86,0,0,1,1.46.55,2.32,2.32,0,0,1,.49,1.6v4.48h-1.17v-4.23c0-1-.43-1.42-1.3-1.42a3.12,3.12,0,0,0-1.82.75Z"/><path class="cls-3" d="M183.44,364a2.14,2.14,0,0,1,1.25.74,2.2,2.2,0,0,1,.45,1.41,2.27,2.27,0,0,1-.68,1.74,2.84,2.84,0,0,1-2,.63h-3.84v-8.84h3.58a2.92,2.92,0,0,1,2,.6,2.1,2.1,0,0,1,.69,1.65,2.21,2.21,0,0,1-.38,1.29,2,2,0,0,1-1.06.75Zm-.24-2.86a1.57,1.57,0,0,0-1.11-.35h-2.21v2.66h2.21c1,0,1.49-.44,1.49-1.33A1.27,1.27,0,0,0,183.2,361.14Zm-3.32,3.41v2.87h2.4q1.56,0,1.56-1.44c0-1-.56-1.43-1.69-1.43Z"/><path class="cls-3" d="M186.84,363.11l-.18-.95a13.81,13.81,0,0,1,2.51-.27,2.92,2.92,0,0,1,1.82.47,2,2,0,0,1,.59,1.68v4.48h-1.17v-.65h0a3,3,0,0,1-2,.78,2.16,2.16,0,0,1-1.53-.53,1.81,1.81,0,0,1-.55-1.38,1.65,1.65,0,0,1,.74-1.51,3.59,3.59,0,0,1,2-.48h1.43v-.65a1.14,1.14,0,0,0-.36-.94,1.73,1.73,0,0,0-1.14-.29A11.14,11.14,0,0,0,186.84,363.11Zm3.57,2.35H189a2,2,0,0,0-1.25.3,1,1,0,0,0-.37.87,1,1,0,0,0,.36.82,1.59,1.59,0,0,0,1,.29,2.55,2.55,0,0,0,1.63-.55Z"/><path class="cls-3" d="M194.18,368.52H193V362h1.18v.91h0a3.28,3.28,0,0,1,2.32-1,1.83,1.83,0,0,1,1.45.55,2.32,2.32,0,0,1,.5,1.6v4.48H197.3v-4.23c0-1-.44-1.42-1.3-1.42a3.07,3.07,0,0,0-1.82.75Z"/><path class="cls-3" d="M203,361.89a9.12,9.12,0,0,1,2.21.3l-.22.93a8.34,8.34,0,0,0-2-.25,1.71,1.71,0,0,0-1.47.64,3.47,3.47,0,0,0,0,3.52,1.71,1.71,0,0,0,1.47.64,8.34,8.34,0,0,0,2-.25l.22.94a9.13,9.13,0,0,1-2.21.29q-3.18,0-3.18-3.38T203,361.89Z"/><path class="cls-3" d="M206.3,363.11l-.18-.95a13.81,13.81,0,0,1,2.51-.27,2.9,2.9,0,0,1,1.82.47A2,2,0,0,1,211,364v4.48h-1.17v-.65h0a3,3,0,0,1-2.05.78,2.13,2.13,0,0,1-1.52-.53,1.78,1.78,0,0,1-.56-1.38,1.65,1.65,0,0,1,.74-1.51,3.59,3.59,0,0,1,2-.48h1.43v-.65a1.16,1.16,0,0,0-.35-.94,1.78,1.78,0,0,0-1.15-.29A11.14,11.14,0,0,0,206.3,363.11Zm3.57,2.35H208.5a2,2,0,0,0-1.25.3,1,1,0,0,0-.37.87,1,1,0,0,0,.36.82,1.59,1.59,0,0,0,1,.29,2.55,2.55,0,0,0,1.63-.55Z"/><path class="cls-3" d="M219.2,363.83l-1.31,4.75h-1.3l-2-6.56h1.3l1.44,5.25h0l1.3-5.25h1.14l1.38,5.25h0l1.38-5.25h1.23l-2,6.56h-1.3l-1.36-4.75Z"/><path class="cls-3" d="M225.48,365.46c0,1.48.76,2.21,2.14,2.21a7,7,0,0,0,2-.25l.16.94a9,9,0,0,1-2.34.29q-3.25,0-3.25-3.38t3.18-3.38a2.55,2.55,0,0,1,2,.64,2.51,2.51,0,0,1,.64,1.62,6.45,6.45,0,0,1-.07,1.31Zm0-.74h3.3a2.81,2.81,0,0,0,0-.68,1.35,1.35,0,0,0-.4-.9,1.49,1.49,0,0,0-1.08-.34Q225.63,362.8,225.48,364.72Z"/><path class="cls-3" d="M232.41,362.67h0a2.71,2.71,0,0,1,2-.78c1.61,0,2.41,1.13,2.41,3.38a4.57,4.57,0,0,1-.59,2.46,2.08,2.08,0,0,1-1.88.92,2.85,2.85,0,0,1-2-.74h0l-.2.65h-.9v-9.14h1.17Zm1.56.2a2.34,2.34,0,0,0-1.56.55v3.71a2.47,2.47,0,0,0,1.56.54q1.62,0,1.62-2.4T234,362.87Z"/><path class="cls-3" d="M241.78,359.76a1.76,1.76,0,0,1,.79.56,2.28,2.28,0,0,1,.38.72,2.54,2.54,0,0,1,.12.78,2.34,2.34,0,0,1-.25,1.12,2.11,2.11,0,0,1-.6.76c-.24.19-.48.36-.71.52a2.77,2.77,0,0,0-.6.52,1,1,0,0,0-.25.66v.39h-1v-.39a1.83,1.83,0,0,1,.23-.93,2.22,2.22,0,0,1,.56-.65l.66-.5a2.25,2.25,0,0,0,.56-.59,1.41,1.41,0,0,0,.23-.79q0-1.29-1.59-1.29a6.08,6.08,0,0,0-1.93.41l-.34-1a6.57,6.57,0,0,1,2.53-.51A3.34,3.34,0,0,1,241.78,359.76Zm-1.05,7.07v1.69h-1.17v-1.69Z"/><rect class="cls-4" x="19.5" y="240.72" width="297" height="34" rx="3.06"/><path class="cls-3" d="M166.19,341.16a2.43,2.43,0,0,1-1.08-.94,4.17,4.17,0,0,1-.53-1.33,8.1,8.1,0,0,1-.16-1.65,7.79,7.79,0,0,1,.16-1.62,3.86,3.86,0,0,1,.53-1.29,2.37,2.37,0,0,1,1.08-.91,4.73,4.73,0,0,1,3.42,0,2.37,2.37,0,0,1,1.08.91,3.86,3.86,0,0,1,.53,1.29,7.17,7.17,0,0,1,.16,1.62,7.45,7.45,0,0,1-.16,1.65,4.17,4.17,0,0,1-.53,1.33,2.43,2.43,0,0,1-1.08.94,4.6,4.6,0,0,1-3.42,0Zm.54-6.86a1.53,1.53,0,0,0-.7.7,3.28,3.28,0,0,0-.32,1,7.54,7.54,0,0,0-.09,1.25,7.67,7.67,0,0,0,.09,1.26,3.42,3.42,0,0,0,.32,1,1.69,1.69,0,0,0,.7.75,2.41,2.41,0,0,0,1.17.25,2.5,2.5,0,0,0,1-.18,1.65,1.65,0,0,0,.66-.47,2.35,2.35,0,0,0,.39-.74,3.93,3.93,0,0,0,.19-.89,7.65,7.65,0,0,0,.05-1,7.75,7.75,0,0,0-.05-1,3.68,3.68,0,0,0-.19-.86,2.14,2.14,0,0,0-.4-.7,1.7,1.7,0,0,0-.66-.44,2.45,2.45,0,0,0-1-.17A2.54,2.54,0,0,0,166.73,334.3Z"/><line class="cls-5" x1="16.25" y1="338.07" x2="149.75" y2="338.07"/><line class="cls-5" x1="183.25" y1="338.07" x2="316.75" y2="338.07"/><path class="cls-1" d="M146.2,261.3v-8.84h1.23v8.84Z"/><path class="cls-1" d="M150.16,261.3H149v-6.5h1.17v.91h0a3.23,3.23,0,0,1,2.31-1,1.84,1.84,0,0,1,1.46.55,2.31,2.31,0,0,1,.49,1.59v4.49h-1.17v-4.23c0-.95-.43-1.43-1.3-1.43a3.07,3.07,0,0,0-1.82.76Z"/><path class="cls-1" d="M156.39,260.87a.87.87,0,0,1-.48-.89,1.57,1.57,0,0,1,.86-1.26v0a1.89,1.89,0,0,1-1.08-1.82,2,2,0,0,1,.7-1.64,3,3,0,0,1,1.94-.57,3.13,3.13,0,0,1,.88.13h2.3v.71h-1.26a1.57,1.57,0,0,1,.64,1.37,1.91,1.91,0,0,1-.71,1.6,3,3,0,0,1-1.85.54,3.16,3.16,0,0,1-1-.14,1.26,1.26,0,0,0-.26.38.71.71,0,0,0-.09.56.41.41,0,0,0,.44.29l2.34.15c1.27.08,1.9.58,1.9,1.49q0,2.28-3.77,2.28c-1.78,0-2.67-.57-2.67-1.69,0-.58.38-1.06,1.12-1.45Zm1.77,2.38a3.69,3.69,0,0,0,1.66-.33,1,1,0,0,0,.65-.95c0-.47-.36-.73-1.08-.76l-2.4-.13a4.22,4.22,0,0,0-.38.3,1,1,0,0,0-.25.33.81.81,0,0,0-.11.43C156.25,262.88,156.88,263.25,158.16,263.25Zm1.26-5.37a1.27,1.27,0,0,0,.4-1,1.33,1.33,0,0,0-.41-1,1.49,1.49,0,0,0-1.08-.39,1.58,1.58,0,0,0-1.14.38,1.42,1.42,0,0,0-.4,1,1.25,1.25,0,0,0,.41,1,1.67,1.67,0,0,0,1.13.36A1.58,1.58,0,0,0,159.42,257.88Z"/><path class="cls-1" d="M164,261.3h-1.17v-6.5H164v1h0a3.81,3.81,0,0,1,1.08-.84,2.91,2.91,0,0,1,1.36-.33v1.1a4.4,4.4,0,0,0-2.47.76Z"/><path class="cls-1" d="M168,258.24c0,1.48.76,2.21,2.14,2.21a6.63,6.63,0,0,0,2-.26l.16.95a9,9,0,0,1-2.34.29q-3.25,0-3.25-3.38c0-2.26,1.06-3.38,3.18-3.38a2.57,2.57,0,0,1,2,.64,2.51,2.51,0,0,1,.64,1.62,5.9,5.9,0,0,1-.08,1.31Zm0-.74h3.3a2.92,2.92,0,0,0,0-.69,1.34,1.34,0,0,0-.4-.89,1.51,1.51,0,0,0-1.08-.34Q168.14,255.58,168,257.5Z"/><path class="cls-1" d="M178.13,260.92a2.75,2.75,0,0,1-1.78.51,11.75,11.75,0,0,1-2.8-.29l.21-.95a10.1,10.1,0,0,0,2.46.3,1.44,1.44,0,0,0,1.07-.32,1,1,0,0,0,.29-.64.73.73,0,0,0-.32-.59,3.17,3.17,0,0,0-1.15-.39,4.45,4.45,0,0,1-1.81-.67,1.59,1.59,0,0,1-.62-1.39c0-1.22.8-1.82,2.41-1.82a10.72,10.72,0,0,1,2.6.3l-.23.93a9.48,9.48,0,0,0-2.31-.28,2.31,2.31,0,0,0-.69.09.89.89,0,0,0-.4.25,1,1,0,0,0-.16.27.64.64,0,0,0-.05.23.74.74,0,0,0,.29.59,2.82,2.82,0,0,0,1.1.4c.4.09.73.17,1,.25a4.64,4.64,0,0,1,.76.35,1.54,1.54,0,0,1,.58.58,1.63,1.63,0,0,1,.19.82A1.8,1.8,0,0,1,178.13,260.92Z"/><path class="cls-1" d="M180.39,255.89l-.18-.95a13.72,13.72,0,0,1,2.51-.27,2.85,2.85,0,0,1,1.82.47,2,2,0,0,1,.58,1.67v4.49H184v-.65h0a3,3,0,0,1-2.06.78,2.13,2.13,0,0,1-1.52-.53,1.82,1.82,0,0,1-.56-1.38,1.67,1.67,0,0,1,.74-1.51,3.64,3.64,0,0,1,2-.48H184v-.65a1.19,1.19,0,0,0-.35-.95,1.79,1.79,0,0,0-1.14-.29A10.29,10.29,0,0,0,180.39,255.89Zm3.56,2.35h-1.36a2.11,2.11,0,0,0-1.25.29,1.06,1.06,0,0,0-.38.88,1,1,0,0,0,.37.81,1.51,1.51,0,0,0,1,.3A2.54,2.54,0,0,0,184,260Z"/><path class="cls-1" d="M187.72,261.3h-1.17v-6.5h1.17v1h0a3.81,3.81,0,0,1,1.08-.84,2.91,2.91,0,0,1,1.36-.33v1.1a4.4,4.4,0,0,0-2.47.76Z"/><rect class="cls-6" x="20" y="394" width="297" height="34" rx="3.06"/><path class="cls-1" d="M128,414.58l-2.09-3.45H124v3.45h-1.23v-8.85h3.64a2.65,2.65,0,0,1,2,.75,2.71,2.71,0,0,1,.72,2,2.59,2.59,0,0,1-.52,1.64,2.26,2.26,0,0,1-1.45.85l2.25,3.65ZM124,410h2.21a1.73,1.73,0,0,0,1.21-.4,1.53,1.53,0,0,0,.44-1.18,1.61,1.61,0,0,0-.42-1.18,1.57,1.57,0,0,0-1.16-.42H124Z"/><path class="cls-1" d="M131.08,411.52c0,1.47.76,2.21,2.15,2.21a6.93,6.93,0,0,0,2-.26l.16.95a9,9,0,0,1-2.34.29q-3.25,0-3.25-3.38t3.18-3.39a2.55,2.55,0,0,1,2,.65,2.46,2.46,0,0,1,.64,1.62,6.48,6.48,0,0,1-.07,1.31Zm0-.74h3.3a2.47,2.47,0,0,0,0-.69,1.3,1.3,0,0,0-.4-.89,1.49,1.49,0,0,0-1.08-.35C131.8,408.85,131.18,409.5,131.08,410.78Z"/><path class="cls-1" d="M137.63,414.15a.88.88,0,0,1-.48-.89A1.57,1.57,0,0,1,138,412v0a1.88,1.88,0,0,1-1.08-1.82,2,2,0,0,1,.7-1.63,3,3,0,0,1,1.94-.58,3.54,3.54,0,0,1,.88.13h2.3v.72h-1.26a1.55,1.55,0,0,1,.64,1.36,1.89,1.89,0,0,1-.71,1.6,2.91,2.91,0,0,1-1.85.55,3.16,3.16,0,0,1-.95-.14,1.34,1.34,0,0,0-.26.37.69.69,0,0,0-.08.57.4.4,0,0,0,.43.29l2.34.15c1.27.08,1.9.58,1.9,1.49,0,1.52-1.26,2.27-3.77,2.27q-2.67,0-2.67-1.68c0-.59.38-1.07,1.12-1.45Zm1.77,2.38a3.69,3.69,0,0,0,1.66-.33,1,1,0,0,0,.65-.95c0-.48-.36-.73-1.07-.77l-2.41-.13-.38.31a1.19,1.19,0,0,0-.25.32,1,1,0,0,0-.11.44C137.49,416.16,138.13,416.53,139.4,416.53Zm1.26-5.37a1.3,1.3,0,0,0,.4-1,1.36,1.36,0,0,0-.41-1,1.49,1.49,0,0,0-1.08-.39,1.58,1.58,0,0,0-1.14.39,1.38,1.38,0,0,0-.39,1,1.27,1.27,0,0,0,.4,1,1.67,1.67,0,0,0,1.13.36A1.58,1.58,0,0,0,140.66,411.16Z"/><path class="cls-1" d="M145.22,405.73v1.63h-1.17v-1.63Zm0,2.34v6.51h-1.17v-6.51Z"/><path class="cls-1" d="M151,414.2a2.77,2.77,0,0,1-1.79.51,11.66,11.66,0,0,1-2.79-.29l.21-.95a10,10,0,0,0,2.45.3,1.42,1.42,0,0,0,1.08-.33,1,1,0,0,0,.29-.63.72.72,0,0,0-.32-.59,3.25,3.25,0,0,0-1.15-.39,4.61,4.61,0,0,1-1.81-.67,1.61,1.61,0,0,1-.62-1.4c0-1.21.8-1.82,2.4-1.82a10.6,10.6,0,0,1,2.6.3l-.22.94a9.49,9.49,0,0,0-2.31-.29,2.29,2.29,0,0,0-.69.1.83.83,0,0,0-.4.25,1.25,1.25,0,0,0-.17.26.67.67,0,0,0,0,.24.71.71,0,0,0,.28.58,2.85,2.85,0,0,0,1.11.41,8.84,8.84,0,0,1,1,.25,3.75,3.75,0,0,1,.77.35,1.45,1.45,0,0,1,.58.57,1.67,1.67,0,0,1,.19.83A1.8,1.8,0,0,1,151,414.2Z"/><path class="cls-1" d="M153.41,408.92h-1v-.77l1-.08.15-1.82h1v1.82h1.82v.85h-1.82v3.58a1.57,1.57,0,0,0,.25,1,1,1,0,0,0,.86.31,4.32,4.32,0,0,0,.66-.07l.12.91a8.16,8.16,0,0,1-1.17.1,1.91,1.91,0,0,1-1.45-.47,2.21,2.21,0,0,1-.44-1.55Z"/><path class="cls-1" d="M158.94,414.58h-1.17v-6.51h1.17v1h0a4.08,4.08,0,0,1,1.07-.83,3,3,0,0,1,1.37-.34v1.11a4.45,4.45,0,0,0-2.47.75Z"/><path class="cls-1" d="M162.15,409.17l-.18-.95a13.81,13.81,0,0,1,2.51-.28,2.92,2.92,0,0,1,1.82.47,2,2,0,0,1,.58,1.68v4.49h-1.17v-.66h0a3,3,0,0,1-2.06.79,2.13,2.13,0,0,1-1.52-.53,1.82,1.82,0,0,1-.56-1.39,1.67,1.67,0,0,1,.74-1.5,3.55,3.55,0,0,1,2-.49h1.43v-.65a1.15,1.15,0,0,0-.35-.94,1.79,1.79,0,0,0-1.14-.29A10.29,10.29,0,0,0,162.15,409.17Zm3.56,2.35h-1.36a2.11,2.11,0,0,0-1.25.29,1.06,1.06,0,0,0-.38.88,1,1,0,0,0,.37.81,1.51,1.51,0,0,0,1,.29,2.59,2.59,0,0,0,1.62-.54Z"/><path class="cls-1" d="M168.83,408.92h-1v-.77l1-.08.15-1.82h1v1.82h1.82v.85H170v3.58a1.51,1.51,0,0,0,.25,1,1,1,0,0,0,.86.31,4.32,4.32,0,0,0,.66-.07l.12.91a8.16,8.16,0,0,1-1.17.1,1.91,1.91,0,0,1-1.45-.47,2.21,2.21,0,0,1-.44-1.55Z"/><path class="cls-1" d="M173.68,411.52c0,1.47.76,2.21,2.15,2.21a6.93,6.93,0,0,0,2-.26l.16.95a9,9,0,0,1-2.34.29q-3.25,0-3.25-3.38t3.18-3.39a2.55,2.55,0,0,1,2,.65,2.52,2.52,0,0,1,.65,1.62,6.62,6.62,0,0,1-.08,1.31Zm0-.74H177a2.47,2.47,0,0,0,0-.69,1.3,1.3,0,0,0-.4-.89,1.48,1.48,0,0,0-1.08-.35C174.4,408.85,173.79,409.5,173.68,410.78Z"/><path class="cls-1" d="M187,412.34h-3.38l-.75,2.24h-1.3l3-8.91h1.52l3,8.91h-1.38Zm-1.67-5.12-1.45,4.08h2.86l-1.39-4.08Z"/><path class="cls-1" d="M191.4,414.58h-1.17v-9.11h1.17V409h0a3.27,3.27,0,0,1,2.31-1,1.86,1.86,0,0,1,1.46.56,2.31,2.31,0,0,1,.49,1.59v4.49h-1.17v-4.23c0-1-.43-1.43-1.3-1.43a3.12,3.12,0,0,0-1.82.75Z"/><path class="cls-1" d="M197,411.33q0-3.39,3-3.39t3,3.39q0,3.38-3,3.38T197,411.33Zm1.23,0c0,1.6.59,2.4,1.76,2.4s1.75-.8,1.75-2.4-.58-2.41-1.75-2.41S198.22,409.72,198.22,411.33Z"/><path class="cls-1" d="M205.44,414.58h-1.17v-6.51h1.17v1h0a4.08,4.08,0,0,1,1.07-.83,3,3,0,0,1,1.37-.34v1.11a4.45,4.45,0,0,0-2.47.75Z"/><path class="cls-1" d="M208.65,409.17l-.18-.95a13.81,13.81,0,0,1,2.51-.28,2.92,2.92,0,0,1,1.82.47,2,2,0,0,1,.58,1.68v4.49h-1.17v-.66h0a3,3,0,0,1-2.06.79,2.13,2.13,0,0,1-1.52-.53,1.82,1.82,0,0,1-.56-1.39,1.67,1.67,0,0,1,.74-1.5,3.55,3.55,0,0,1,2-.49h1.43v-.65a1.15,1.15,0,0,0-.35-.94,1.79,1.79,0,0,0-1.14-.29A10.29,10.29,0,0,0,208.65,409.17Zm3.56,2.35h-1.36a2.11,2.11,0,0,0-1.25.29,1.06,1.06,0,0,0-.38.88,1,1,0,0,0,.37.81,1.51,1.51,0,0,0,1,.29,2.57,2.57,0,0,0,1.62-.54Z"/></g><g id="Form2"><path class="cls-7" d="M21.2,72.7a4.3,4.3,0,0,1,.57-1.4,2.6,2.6,0,0,1,1.17-1A4.51,4.51,0,0,1,24.8,70a10.85,10.85,0,0,1,3.05.46l-.28,1a11.87,11.87,0,0,0-2.68-.39,2.79,2.79,0,0,0-1.25.25,1.85,1.85,0,0,0-.8.74,3.36,3.36,0,0,0-.39,1.06,6.56,6.56,0,0,0-.12,1.33A4.9,4.9,0,0,0,22.9,77a2.14,2.14,0,0,0,2,.92,11.87,11.87,0,0,0,2.68-.39l.28,1a10.83,10.83,0,0,1-3.05.45,4.55,4.55,0,0,1-1.55-.24,2.85,2.85,0,0,1-1.09-.65,3.2,3.2,0,0,1-.68-1,5,5,0,0,1-.35-1.25,9.3,9.3,0,0,1-.1-1.46A8.31,8.31,0,0,1,21.2,72.7Z"/><path class="cls-7" d="M28.34,75.69c0-2.26,1-3.39,3-3.39s3,1.13,3,3.39-1,3.37-3,3.37S28.34,77.94,28.34,75.69Zm1.23,0c0,1.6.59,2.4,1.76,2.4s1.75-.8,1.75-2.4-.58-2.41-1.75-2.41S29.57,74.08,29.57,75.69Z"/><path class="cls-7" d="M36.79,78.94H35.62V72.43h1.17v1h0a4.31,4.31,0,0,1,1.08-.83,3,3,0,0,1,1.37-.34v1.11a4.45,4.45,0,0,0-2.47.75Z"/><path class="cls-7" d="M41.6,78.94H40.43V72.43H41.6v1h0a4.31,4.31,0,0,1,1.08-.83,3,3,0,0,1,1.37-.34v1.11a4.45,4.45,0,0,0-2.47.75Z"/><path class="cls-7" d="M45.6,75.88c0,1.47.76,2.21,2.15,2.21a6.93,6.93,0,0,0,2-.26l.16,1a9,9,0,0,1-2.34.28q-3.26,0-3.25-3.37t3.18-3.39a2.55,2.55,0,0,1,2,.65,2.46,2.46,0,0,1,.64,1.62,6.45,6.45,0,0,1-.07,1.31Zm0-.74h3.3a2.47,2.47,0,0,0,0-.69,1.3,1.3,0,0,0-.4-.89,1.49,1.49,0,0,0-1.08-.35C46.32,73.21,45.7,73.86,45.6,75.14Z"/><path class="cls-7" d="M51.23,75.69q0-3.39,3-3.39t3,3.39q0,3.38-3,3.37T51.23,75.69Zm1.23,0c0,1.6.59,2.4,1.76,2.4s1.75-.8,1.75-2.4-.58-2.41-1.75-2.41S52.46,74.08,52.46,75.69Z"/><path class="cls-7" d="M66.63,71.2H62.21v2.6h3.84v1.1H62.21v2.93H66.7v1.11H61V70.09h5.65Z"/><path class="cls-7" d="M68.13,69.83H69.3v9.11H68.13Z"/><path class="cls-7" d="M71.86,75.88c0,1.47.76,2.21,2.14,2.21a7,7,0,0,0,2-.26l.16,1a9,9,0,0,1-2.34.28q-3.25,0-3.25-3.37t3.18-3.39a2.55,2.55,0,0,1,2,.65,2.51,2.51,0,0,1,.64,1.62,6.45,6.45,0,0,1-.07,1.31Zm0-.74h3.3a2.47,2.47,0,0,0,0-.69,1.34,1.34,0,0,0-.4-.89,1.49,1.49,0,0,0-1.08-.35C72.58,73.21,72,73.86,71.86,75.14Z"/><path class="cls-7" d="M80.67,72.3a9.06,9.06,0,0,1,2.21.3l-.22.94a8.31,8.31,0,0,0-2-.26,1.71,1.71,0,0,0-1.47.64,3.49,3.49,0,0,0,0,3.53,1.71,1.71,0,0,0,1.47.64,8.31,8.31,0,0,0,2-.26l.22,1a9.11,9.11,0,0,1-2.21.28q-3.18,0-3.18-3.37T80.67,72.3Z"/><path class="cls-7" d="M84.38,73.28h-1v-.77l1-.08.14-1.82h1v1.82h1.82v.85H85.55v3.57a1.52,1.52,0,0,0,.25,1,1,1,0,0,0,.85.31,4.55,4.55,0,0,0,.67-.07l.11.91a7.88,7.88,0,0,1-1.17.09,1.93,1.93,0,0,1-1.45-.46,2.21,2.21,0,0,1-.43-1.55Z"/><path class="cls-7" d="M89.9,78.94H88.73V72.43H89.9v1h0A4,4,0,0,1,91,72.64a2.92,2.92,0,0,1,1.36-.34v1.11a4.47,4.47,0,0,0-2.47.75Z"/><path class="cls-7" d="M92.65,75.69c0-2.26,1-3.39,3-3.39s3,1.13,3,3.39-1,3.37-3,3.37S92.65,77.94,92.65,75.69Zm1.23,0c0,1.6.59,2.4,1.76,2.4s1.75-.8,1.75-2.4-.58-2.41-1.75-2.41S93.88,74.08,93.88,75.69Zm2-4h-.65L96,70.09h1Z"/><path class="cls-7" d="M101.1,78.94H99.93V72.43h1.17v.91h0a3.28,3.28,0,0,1,2.32-1,1.84,1.84,0,0,1,1.45.56,2.31,2.31,0,0,1,.5,1.59v4.49h-1.17V74.71c0-.95-.44-1.43-1.3-1.43a3.09,3.09,0,0,0-1.82.75Z"/><path class="cls-7" d="M108,70.09v1.63h-1.17V70.09Zm0,2.34v6.51h-1.17V72.43Z"/><path class="cls-7" d="M112.47,72.3a9.12,9.12,0,0,1,2.21.3l-.22.94a8.37,8.37,0,0,0-2-.26,1.71,1.71,0,0,0-1.47.64,3.49,3.49,0,0,0,0,3.53,1.71,1.71,0,0,0,1.47.64,8.37,8.37,0,0,0,2-.26l.22,1a9.11,9.11,0,0,1-2.21.28q-3.18,0-3.18-3.37T112.47,72.3Z"/><path class="cls-7" d="M115.14,75.69c0-2.26,1-3.39,3-3.39s3,1.13,3,3.39-1,3.37-3,3.37S115.14,77.94,115.14,75.69Zm1.23,0c0,1.6.59,2.4,1.76,2.4s1.75-.8,1.75-2.4-.58-2.41-1.75-2.41S116.37,74.08,116.37,75.69Z"/><rect class="cls-8" x="20.31" y="91.91" width="297" height="34" rx="3.06"/><path class="cls-7" d="M21.2,157.2a4.3,4.3,0,0,1,.57-1.4,2.6,2.6,0,0,1,1.17-1,4.51,4.51,0,0,1,1.86-.35,10.85,10.85,0,0,1,3.05.46l-.28,1a11.87,11.87,0,0,0-2.68-.39,2.79,2.79,0,0,0-1.25.25,1.85,1.85,0,0,0-.8.74,3.36,3.36,0,0,0-.39,1.06,6.56,6.56,0,0,0-.12,1.33,4.9,4.9,0,0,0,.57,2.59,2.14,2.14,0,0,0,2,.92,11.87,11.87,0,0,0,2.68-.39l.28,1a10.83,10.83,0,0,1-3.05.45,4.55,4.55,0,0,1-1.55-.24,2.85,2.85,0,0,1-1.09-.65,3.2,3.2,0,0,1-.68-1,5,5,0,0,1-.35-1.25A9.3,9.3,0,0,1,21,159,8.31,8.31,0,0,1,21.2,157.2Z"/><path class="cls-7" d="M29.09,154.33h1.17v9.11H29.09Z"/><path class="cls-7" d="M32.09,158l-.18-.95a13.81,13.81,0,0,1,2.51-.28,2.92,2.92,0,0,1,1.82.47,2,2,0,0,1,.58,1.68v4.49H35.65v-.65h0a3,3,0,0,1-2.06.77,2.14,2.14,0,0,1-1.52-.52,1.82,1.82,0,0,1-.56-1.39,1.65,1.65,0,0,1,.75-1.5,3.58,3.58,0,0,1,2-.48h1.43V159a1.15,1.15,0,0,0-.35-.94,1.79,1.79,0,0,0-1.14-.29A10.45,10.45,0,0,0,32.09,158Zm3.56,2.35H34.29a2.11,2.11,0,0,0-1.25.29,1.06,1.06,0,0,0-.38.88,1,1,0,0,0,.37.81,1.51,1.51,0,0,0,1,.3,2.56,2.56,0,0,0,1.62-.55Z"/><path class="cls-7" d="M40.15,163.5l-2.4-6.57h1.31l1.82,5.26h0l1.83-5.26H44l-2.42,6.57Z"/><path class="cls-7" d="M45.63,160.38c0,1.47.75,2.21,2.14,2.21a7,7,0,0,0,2-.26l.16.95a9.18,9.18,0,0,1-2.35.28c-2.16,0-3.25-1.12-3.25-3.37s1.07-3.39,3.19-3.39a2.57,2.57,0,0,1,2,.65,2.51,2.51,0,0,1,.64,1.62,5.9,5.9,0,0,1-.08,1.31Zm0-.74h3.3a3.57,3.57,0,0,0,0-.69,1.34,1.34,0,0,0-.4-.89,1.52,1.52,0,0,0-1.09-.35C46.35,157.71,45.73,158.36,45.63,159.64Z"/><path class="cls-7" d="M53.89,157.2a4.56,4.56,0,0,1,.58-1.4,2.5,2.5,0,0,1,1.17-1,4.51,4.51,0,0,1,1.86-.35,10.91,10.91,0,0,1,3,.46l-.29,1a11.72,11.72,0,0,0-2.67-.39,2.8,2.8,0,0,0-1.26.25,1.83,1.83,0,0,0-.79.74,3.38,3.38,0,0,0-.4,1.06A6.56,6.56,0,0,0,55,159a4.9,4.9,0,0,0,.57,2.59,2.16,2.16,0,0,0,2,.92,11.72,11.72,0,0,0,2.67-.39l.29,1a10.89,10.89,0,0,1-3,.45,4.65,4.65,0,0,1-1.56-.24,2.81,2.81,0,0,1-1.08-.65,3,3,0,0,1-.68-1,5.42,5.42,0,0,1-.36-1.25,10.69,10.69,0,0,1-.1-1.46A8.31,8.31,0,0,1,53.89,157.2Z"/><path class="cls-7" d="M61,160.19q0-3.39,3-3.39t3,3.39q0,3.38-3,3.37T61,160.19Zm1.24,0c0,1.6.58,2.4,1.75,2.4s1.76-.8,1.76-2.4-.59-2.41-1.76-2.41S62.27,158.58,62.27,160.19Z"/><path class="cls-7" d="M69.48,163.44H68.31v-6.51h1.17v1h0a4,4,0,0,1,1.08-.83A2.92,2.92,0,0,1,72,156.8v1.11a4.47,4.47,0,0,0-2.47.75Z"/><path class="cls-7" d="M74.29,163.44H73.12v-6.51h1.17v1h0a4,4,0,0,1,1.08-.83,2.92,2.92,0,0,1,1.36-.34v1.11a4.47,4.47,0,0,0-2.47.75Z"/><path class="cls-7" d="M78.29,160.38c0,1.47.76,2.21,2.15,2.21a7,7,0,0,0,2-.26l.15.95a9,9,0,0,1-2.34.28c-2.16,0-3.25-1.12-3.25-3.37s1.07-3.39,3.19-3.39a2.25,2.25,0,0,1,2.6,2.27,5.9,5.9,0,0,1-.08,1.31Zm0-.74H81.6a3.57,3.57,0,0,0,0-.69,1.34,1.34,0,0,0-.4-.89,1.52,1.52,0,0,0-1.09-.35C79,157.71,78.4,158.36,78.29,159.64Z"/><path class="cls-7" d="M83.92,160.19q0-3.39,3-3.39c2,0,3,1.13,3,3.39s-1,3.37-3,3.37S83.92,162.44,83.92,160.19Zm1.24,0c0,1.6.58,2.4,1.75,2.4s1.76-.8,1.76-2.4-.59-2.41-1.76-2.41S85.16,158.58,85.16,160.19Z"/><rect class="cls-8" x="20.31" y="176.41" width="297" height="34" rx="3.06"/></g></svg>