<svg id="Capa_1" data-name="Capa 1" xmlns="http://www.w3.org/2000/svg" xmlns:xlink="http://www.w3.org/1999/xlink" viewBox="0 0 250 53"><defs><style>.cls-1{fill:#fff;}.cls-1,.cls-3,.cls-4{fill-rule:evenodd;}.cls-2{mask:url(#mask);}.cls-3{fill:#ffdc00;}.cls-4{fill:#10265c;}</style><mask id="mask" x="0" y="1.07" width="52.12" height="51.73" maskUnits="userSpaceOnUse"><g id="mask-2"><polygon id="path-1" class="cls-1" points="0 1.07 0 52.8 52.12 52.8 52.12 1.07 0 1.07"/></g></mask></defs><g id="styleguide_brand" data-name="styleguide brand"><g id="logo"><g id="Group-3"><g class="cls-2"><path id="Fill-1" class="cls-3" d="M52.12,1.07V52.8H17.45A17.38,17.38,0,0,1,0,35.48V1.07H52.12Z"/></g></g><polygon id="Fill-4" class="cls-4" points="42.99 26.46 42.99 9.39 25.8 9.39 25.8 17.1 35.24 17.1 35.24 26.46 42.99 26.46"/><g id="Group-21"><path id="Fill-7" class="cls-4" d="M77.91,4.89c2.7,0,3.78.58,3.78,2.21,0,1.47-1.21,2.2-3.6,2.2H73.68V4.89Zm-4.23,8.25h4.75c2.52,0,3.79.79,3.79,2.36,0,1.8-1.34,2.48-3.91,2.48H73.68Zm5.68,9a8.26,8.26,0,0,0,5.44-1.72,5.67,5.67,0,0,0,2.07-4.57A5.8,5.8,0,0,0,84.11,11a5.26,5.26,0,0,0,2.24-4.35c0-3.83-2.95-5.95-7.51-5.95H69.06V22.18Z"/><path id="Fill-9" class="cls-4" d="M102.2,2.17A2.36,2.36,0,0,0,100,.69h-2.8L88.7,22.18h4.78L95.19,18h8.41l1.74,4.23h4.78ZM96.71,13.9l2.7-7,2.7,7Z"/><path id="Fill-11" class="cls-4" d="M132.45,22.18V.69h-4.6V15.25l-8.1-13.43a2.35,2.35,0,0,0-2-1.13h-4.22V22.18h4.62V7.68l8.1,13.37a2.35,2.35,0,0,0,2,1.13Z"/><path id="Fill-13" class="cls-4" d="M154,15.25a7,7,0,0,1-5.89,3,6.58,6.58,0,0,1-4.75-1.83,6.67,6.67,0,0,1-1.93-5,6.43,6.43,0,0,1,1.93-4.93,6.33,6.33,0,0,1,4.5-1.84,7.14,7.14,0,0,1,4.41,1.48,2.32,2.32,0,0,0,3-.26l1.42-1.44a10.63,10.63,0,0,0-8.66-4,11.38,11.38,0,0,0-8.13,3.06,10.51,10.51,0,0,0-3.26,8.06,10.42,10.42,0,0,0,3.26,8,11.82,11.82,0,0,0,8.29,3,10.89,10.89,0,0,0,8.84-4Z"/><path id="Fill-15" class="cls-4" d="M178.5,3.51a11,11,0,0,0-8-3.15,10.89,10.89,0,0,0-7.94,3.15,10.6,10.6,0,0,0-3.23,7.91,10.73,10.73,0,0,0,3.23,8,11,11,0,0,0,7.94,3.12,11.13,11.13,0,0,0,8-3.12,10.64,10.64,0,0,0,3.26-8,10.51,10.51,0,0,0-3.26-7.91m-3.2,12.75a5.9,5.9,0,0,1-4.68,2,6.06,6.06,0,0,1-4.78-2,7,7,0,0,1-1.77-4.84,6.94,6.94,0,0,1,1.77-4.81,6.14,6.14,0,0,1,4.78-2,6,6,0,0,1,4.62,2,6.83,6.83,0,0,1,1.83,4.78,7,7,0,0,1-1.77,4.84"/><path id="Fill-17" class="cls-4" d="M241.31,31.68a2.35,2.35,0,0,0-2.18-1.47h-2.81l-8.51,21.5h4.78l1.71-4.24h8.42l1.74,4.24h4.78Zm-5.49,11.75,2.71-7,2.7,7Z"/><path id="Fill-19" class="cls-4" d="M116.4,44.78a7,7,0,0,1-5.9,3,6.56,6.56,0,0,1-4.75-1.84,6.7,6.7,0,0,1-1.93-5A6.47,6.47,0,0,1,105.75,36a6.33,6.33,0,0,1,4.5-1.84,7.14,7.14,0,0,1,4.37,1.44,2.35,2.35,0,0,0,3.09-.22l1.42-1.44a10.63,10.63,0,0,0-8.66-4.05,11.35,11.35,0,0,0-8.14,3.07A10.51,10.51,0,0,0,99.07,41a10.45,10.45,0,0,0,3.26,8,11.82,11.82,0,0,0,8.29,3,10.91,10.91,0,0,0,8.85-4Z"/></g><polygon id="Fill-22" class="cls-4" points="90.29 52.06 94.59 52.06 94.59 30.73 90.29 30.73 90.29 52.06"/><g id="Group-35"><path id="Fill-23" class="cls-4" d="M152.29,30.46H147.7V52.18h4.59V30.46h0"/><path id="Fill-25" class="cls-4" d="M142,52.18V30.46h-2.25a2.35,2.35,0,0,0-2.35,2.34V39H128.3V30.46h-4.63V52.18h4.63v-9h9.13v9Z"/><path id="Fill-27" class="cls-4" d="M84,32.44a9.14,9.14,0,0,0-6.18-2H69V52.19h4.63V45.3h4.19A9,9,0,0,0,84,43.23a7,7,0,0,0,2.36-5.49A6.56,6.56,0,0,0,84,32.44m-7,8.62H73.63V34.7H77c3.2,0,4.72.93,4.72,3.13S80.15,41.06,77,41.06"/><path id="Fill-29" class="cls-4" d="M176.91,52.18V30.46h-4.6V45.18l-8.1-13.58a2.35,2.35,0,0,0-2-1.14H158V52.18h4.63V37.52L170.7,51a2.34,2.34,0,0,0,2,1.14Z"/><path id="Fill-31" class="cls-4" d="M198.44,45.18a7,7,0,0,1-5.9,3,6.54,6.54,0,0,1-4.75-1.86,6.82,6.82,0,0,1-1.93-5.09,6.6,6.6,0,0,1,1.93-5,6.31,6.31,0,0,1,4.5-1.86,7.11,7.11,0,0,1,4.42,1.5,2.3,2.3,0,0,0,3-.26l1.43-1.45a10.63,10.63,0,0,0-8.67-4.1,11.34,11.34,0,0,0-8.14,3.1,10.72,10.72,0,0,0-3.26,8.16,10.62,10.62,0,0,0,3.26,8.09,11.76,11.76,0,0,0,8.3,3.07,10.89,10.89,0,0,0,8.85-4.1Z"/><path id="Fill-33" class="cls-4" d="M224.12,52.18V30.46h-2.25a2.35,2.35,0,0,0-2.35,2.34V39h-9.13V30.46h-4.63V52.18h4.63v-9h9.13v9Z"/></g></g></g></svg>