<svg id="Capa_1" data-name="Capa 1" xmlns="http://www.w3.org/2000/svg" viewBox="0 0 466 463"><defs><style>.cls-1,.cls-2,.cls-5{fill:#0f265c;}.cls-2{stroke:#0f265c;}.cls-2,.cls-7{stroke-miterlimit:10;}.cls-3{fill:#f4f6f9;}.cls-4{fill:none;}.cls-5{fill-rule:evenodd;}.cls-6{fill:#4a4a4a;}.cls-7{fill:#eee;stroke:#000;stroke-width:0.2px;}</style></defs><path class="cls-1" d="M16.19,22.55h1.3v1H12.61v-1H14.8l-1.42-4H6.16l-1.51,4h2v1H1.89v-1H3.4L8.73,8.27H6.83v-1h3.91Zm-9.74-5h6.69L9.88,8.39h0Z"/><path class="cls-1" d="M28,12.66a9.29,9.29,0,0,0-1.74-.27c-.48,0-.88,0-1.18,0a4.59,4.59,0,0,0-2,.41,3.39,3.39,0,0,0-1.33,1.12A4.78,4.78,0,0,0,21,15.53a9.48,9.48,0,0,0,0,4.06,5,5,0,0,0,.74,1.67A3.39,3.39,0,0,0,23,22.38a4.45,4.45,0,0,0,2,.41c.38,0,.86,0,1.45-.06a13.18,13.18,0,0,0,2.27-.42l.24,1c-.72.17-1.38.3-2,.38a15,15,0,0,1-2,.12,6.52,6.52,0,0,1-2.61-.46,4.34,4.34,0,0,1-1.73-1.28,5.23,5.23,0,0,1-1-2,10,10,0,0,1-.3-2.52,9.87,9.87,0,0,1,.3-2.51,5.33,5.33,0,0,1,1-2,4.45,4.45,0,0,1,1.73-1.29,6.51,6.51,0,0,1,2.61-.47,15,15,0,0,1,2,.12c.59.08,1.25.21,2,.38v2.57H28Z"/><path class="cls-1" d="M39.61,12.66a9.29,9.29,0,0,0-1.74-.27c-.48,0-.88,0-1.18,0a4.59,4.59,0,0,0-2,.41,3.39,3.39,0,0,0-1.33,1.12,4.78,4.78,0,0,0-.74,1.65,9.48,9.48,0,0,0,0,4.06,5,5,0,0,0,.74,1.67,3.39,3.39,0,0,0,1.33,1.12,4.45,4.45,0,0,0,2,.41c.38,0,.86,0,1.45-.06a13.18,13.18,0,0,0,2.27-.42l.24,1c-.72.17-1.38.3-2,.38a15,15,0,0,1-2,.12,6.52,6.52,0,0,1-2.61-.46,4.34,4.34,0,0,1-1.73-1.28,5.23,5.23,0,0,1-1-2,10,10,0,0,1-.3-2.52,9.87,9.87,0,0,1,.3-2.51,5.33,5.33,0,0,1,1-2,4.45,4.45,0,0,1,1.73-1.29,6.51,6.51,0,0,1,2.61-.47,15,15,0,0,1,2,.12c.59.08,1.25.21,2,.38v2.57h-1Z"/><path class="cls-1" d="M44.26,19.71a4.5,4.5,0,0,0,.79,1.63,3.62,3.62,0,0,0,1.43,1.07,5.6,5.6,0,0,0,2.18.38q1,0,1.89-.09a11,11,0,0,0,1.86-.39l.16,1a13.27,13.27,0,0,1-2,.39,18.53,18.53,0,0,1-2.1.11,6.88,6.88,0,0,1-2.68-.46A4.4,4.4,0,0,1,44,22.06a5,5,0,0,1-1-2,10,10,0,0,1-.3-2.52,9.87,9.87,0,0,1,.3-2.51,5.33,5.33,0,0,1,1-2,4.45,4.45,0,0,1,1.73-1.29,6.51,6.51,0,0,1,2.61-.47,5,5,0,0,1,2.83.68,3.88,3.88,0,0,1,1.39,1.67,4.88,4.88,0,0,1,.37,2.07,9.21,9.21,0,0,1-.23,1.89H44A8,8,0,0,0,44.26,19.71Zm2.06-7.07a3.47,3.47,0,0,0-1.27,1,4.26,4.26,0,0,0-.73,1.44A8.08,8.08,0,0,0,44,16.82h7.53a6,6,0,0,0,.12-1.58,3.56,3.56,0,0,0-.39-1.46,2.8,2.8,0,0,0-1.08-1.08,3.9,3.9,0,0,0-1.94-.42A4.62,4.62,0,0,0,46.32,12.64Z"/><path class="cls-1" d="M65.17,6.76V22.55h1.76v1H64v-1.2h0a5.69,5.69,0,0,1-1.74,1A6.12,6.12,0,0,1,60,23.8a4.3,4.3,0,0,1-2.13-.48A4,4,0,0,1,56.45,22a5.52,5.52,0,0,1-.77-2,12.75,12.75,0,0,1-.23-2.48,11.94,11.94,0,0,1,.24-2.46,5.86,5.86,0,0,1,.78-2,3.88,3.88,0,0,1,1.41-1.32A4.33,4.33,0,0,1,60,11.32a6,6,0,0,1,2.19.4,5.43,5.43,0,0,1,1.73,1h0V7.79H62.25v-1ZM56.89,19.54a5.24,5.24,0,0,0,.59,1.67,3.13,3.13,0,0,0,2.89,1.58,5.06,5.06,0,0,0,1.17-.13,8.35,8.35,0,0,0,1-.32,5.83,5.83,0,0,0,.83-.42A6.09,6.09,0,0,0,64,21.5V13.62a6.69,6.69,0,0,0-.57-.39,5.83,5.83,0,0,0-.83-.42,6.92,6.92,0,0,0-1-.33,5.67,5.67,0,0,0-1.17-.13,3.4,3.4,0,0,0-1.76.42,3.17,3.17,0,0,0-1.13,1.14,5.24,5.24,0,0,0-.59,1.67,12.33,12.33,0,0,0,0,4Z"/><path class="cls-1" d="M69.94,19.71a4.5,4.5,0,0,0,.79,1.63,3.62,3.62,0,0,0,1.43,1.07,5.6,5.6,0,0,0,2.18.38q1,0,1.89-.09a11,11,0,0,0,1.86-.39l.16,1a13.27,13.27,0,0,1-2,.39,18.53,18.53,0,0,1-2.1.11,6.88,6.88,0,0,1-2.68-.46,4.4,4.4,0,0,1-1.79-1.28,5,5,0,0,1-1-2,10,10,0,0,1-.3-2.52,9.87,9.87,0,0,1,.3-2.51,5.33,5.33,0,0,1,1-2,4.45,4.45,0,0,1,1.73-1.29A6.51,6.51,0,0,1,74,11.32a5,5,0,0,1,2.83.68,3.88,3.88,0,0,1,1.39,1.67,4.88,4.88,0,0,1,.37,2.07,10,10,0,0,1-.22,1.89H69.69A8,8,0,0,0,69.94,19.71ZM72,12.64a3.47,3.47,0,0,0-1.27,1A4.26,4.26,0,0,0,70,15.06a8.08,8.08,0,0,0-.31,1.76h7.53a5.57,5.57,0,0,0,.12-1.58A3.56,3.56,0,0,0,77,13.78a2.8,2.8,0,0,0-1.08-1.08,3.9,3.9,0,0,0-1.94-.42A4.62,4.62,0,0,0,72,12.64Z"/><path class="cls-1" d="M86.15,11.78a20.48,20.48,0,0,1,2.27-.35c.74-.07,1.42-.11,2-.11a7.22,7.22,0,0,1,1.77.19,3.17,3.17,0,0,1,1.3.64,2.66,2.66,0,0,1,.79,1.2,5.65,5.65,0,0,1,.26,1.88v7.32h1.76v1h-3v-1.2h0a7.74,7.74,0,0,1-1.78,1,5.55,5.55,0,0,1-2,.38,4.88,4.88,0,0,1-1.27-.08,3.46,3.46,0,0,1-2.07-1,3,3,0,0,1-.84-2,4,4,0,0,1,.05-1.05A2.7,2.7,0,0,1,87,17.5a7.6,7.6,0,0,1,3.4-.66h3V15.28a3.08,3.08,0,0,0-.69-2.18,3.3,3.3,0,0,0-2.47-.75c-.36,0-.77,0-1.25.05a15.58,15.58,0,0,0-1.78.24v1.75h-1Zm4.39,5.85a8.57,8.57,0,0,0-1.92.18,3.33,3.33,0,0,0-1.23.53,1.8,1.8,0,0,0-.66.85,3.11,3.11,0,0,0-.2,1.13,2.29,2.29,0,0,0,.81,1.81,3.52,3.52,0,0,0,2.39.71A5.28,5.28,0,0,0,91,22.71a6.11,6.11,0,0,0,1-.33,4.1,4.1,0,0,0,.81-.42,6.85,6.85,0,0,0,.58-.42V17.63Z"/><path class="cls-1" d="M101.85,12.47v-.81l2-.1L104,8.2h1v3.36h3.72v.91H105v7.37a6.94,6.94,0,0,0,.11,1.28,2.44,2.44,0,0,0,.37.94,1.61,1.61,0,0,0,.72.56,3,3,0,0,0,1.16.2c.2,0,.41,0,.61,0s.45-.05.75-.09l.12,1c-.28,0-.6.08-.94.1s-.65,0-.9,0a3.19,3.19,0,0,1-2.42-.82,4.3,4.3,0,0,1-.78-3V12.47Z"/><path class="cls-1" d="M113.33,23.34a4.18,4.18,0,0,1-1.62-1.28,5.15,5.15,0,0,1-.9-2,11,11,0,0,1-.28-2.52,10.9,10.9,0,0,1,.28-2.51,5.24,5.24,0,0,1,.9-2,4.3,4.3,0,0,1,1.62-1.29,5.74,5.74,0,0,1,2.44-.47,5.64,5.64,0,0,1,2.42.47,4.27,4.27,0,0,1,1.61,1.29,5.57,5.57,0,0,1,.9,2,10.91,10.91,0,0,1,.27,2.51,11.07,11.07,0,0,1-.27,2.52,5.46,5.46,0,0,1-.9,2,4.15,4.15,0,0,1-1.61,1.28,5.65,5.65,0,0,1-2.42.46A5.74,5.74,0,0,1,113.33,23.34Zm.53-10.57a3.29,3.29,0,0,0-1.21,1.13,4.65,4.65,0,0,0-.65,1.66,10.62,10.62,0,0,0,0,4,4.78,4.78,0,0,0,.65,1.67,3.24,3.24,0,0,0,1.21,1.14,4.53,4.53,0,0,0,3.81,0,3.34,3.34,0,0,0,1.22-1.14,4.77,4.77,0,0,0,.64-1.67,10.1,10.1,0,0,0,0-4,4.64,4.64,0,0,0-.64-1.66,3.4,3.4,0,0,0-1.22-1.13,4.53,4.53,0,0,0-3.81,0Z"/><path class="cls-1" d="M133.45,6.76V22.55h1.76v1h-3v-1.2h0a5.69,5.69,0,0,1-1.74,1,6.12,6.12,0,0,1-2.22.41,4.3,4.3,0,0,1-2.13-.48A4,4,0,0,1,124.73,22a5.52,5.52,0,0,1-.77-2,12.75,12.75,0,0,1-.23-2.48A11.94,11.94,0,0,1,124,15.1a5.86,5.86,0,0,1,.78-2,3.88,3.88,0,0,1,1.41-1.32,4.33,4.33,0,0,1,2.13-.48,6,6,0,0,1,2.19.4,5.43,5.43,0,0,1,1.73,1h0V7.79h-1.72v-1Zm-8.28,12.78a5.24,5.24,0,0,0,.59,1.67,3.13,3.13,0,0,0,2.89,1.58,5.06,5.06,0,0,0,1.17-.13,8.35,8.35,0,0,0,1-.32,5.83,5.83,0,0,0,.83-.42,6.09,6.09,0,0,0,.57-.42V13.62a6.69,6.69,0,0,0-.57-.39,5.83,5.83,0,0,0-.83-.42,6.92,6.92,0,0,0-1-.33,5.67,5.67,0,0,0-1.17-.13,3.4,3.4,0,0,0-1.76.42,3.17,3.17,0,0,0-1.13,1.14,5.24,5.24,0,0,0-.59,1.67,12.33,12.33,0,0,0,0,4Z"/><path class="cls-1" d="M139.49,23.34a4.18,4.18,0,0,1-1.62-1.28,5.15,5.15,0,0,1-.9-2,11,11,0,0,1-.28-2.52,10.9,10.9,0,0,1,.28-2.51,5.24,5.24,0,0,1,.9-2,4.3,4.3,0,0,1,1.62-1.29,5.74,5.74,0,0,1,2.44-.47,5.64,5.64,0,0,1,2.42.47A4.27,4.27,0,0,1,146,13.08a5.57,5.57,0,0,1,.9,2,10.91,10.91,0,0,1,.27,2.51,11.07,11.07,0,0,1-.27,2.52,5.46,5.46,0,0,1-.9,2,4.15,4.15,0,0,1-1.61,1.28,5.65,5.65,0,0,1-2.42.46A5.74,5.74,0,0,1,139.49,23.34ZM140,12.77a3.29,3.29,0,0,0-1.21,1.13,4.65,4.65,0,0,0-.65,1.66,10.62,10.62,0,0,0,0,4,4.78,4.78,0,0,0,.65,1.67A3.24,3.24,0,0,0,140,22.37a4.53,4.53,0,0,0,3.81,0,3.34,3.34,0,0,0,1.22-1.14,4.77,4.77,0,0,0,.64-1.67,10.1,10.1,0,0,0,0-4,4.64,4.64,0,0,0-.64-1.66,3.4,3.4,0,0,0-1.22-1.13,4.53,4.53,0,0,0-3.81,0Z"/><path class="cls-1" d="M157.41,12.66a12.24,12.24,0,0,0-2.07-.31c-.62,0-1.09,0-1.41,0a4.18,4.18,0,0,0-1.68.28,2.48,2.48,0,0,0-.9.64,1.52,1.52,0,0,0-.36.7,3.51,3.51,0,0,0-.06.5,2.55,2.55,0,0,0,.1.72,1.56,1.56,0,0,0,.45.67,3,3,0,0,0,1,.57,8.32,8.32,0,0,0,1.68.48,16.27,16.27,0,0,1,1.85.5,5.44,5.44,0,0,1,1.39.67,2.65,2.65,0,0,1,.87,1,2.83,2.83,0,0,1,.3,1.35,3.22,3.22,0,0,1-1,2.55,4.54,4.54,0,0,1-3.09.91c-.9,0-1.76,0-2.57-.12a17.4,17.4,0,0,1-2.31-.38V20.75h1v1.71c.38.09.76.16,1.12.21s.72.09,1.06.11.64,0,.9,0h.64A3.74,3.74,0,0,0,156,22.5a2.52,2.52,0,0,0,.91-.7,1.92,1.92,0,0,0,.37-.8,3.35,3.35,0,0,0,.07-.58,2.16,2.16,0,0,0-.12-.71,1.59,1.59,0,0,0-.48-.66,3.66,3.66,0,0,0-1-.58A11.29,11.29,0,0,0,154,18a13.14,13.14,0,0,1-1.67-.42,5.2,5.2,0,0,1-1.36-.65,2.84,2.84,0,0,1-.93-1,3.07,3.07,0,0,1-.33-1.49,2.73,2.73,0,0,1,1-2.3,4.9,4.9,0,0,1,3.08-.82,22,22,0,0,1,2.42.12,18.14,18.14,0,0,1,2.14.38v2.57h-1Z"/><path class="cls-1" d="M167.65,6.76V22.55h1.76v1h-4.68v-1h1.72V7.79h-1.72v-1Z"/><path class="cls-1" d="M173.69,23.34a4.18,4.18,0,0,1-1.62-1.28,5.15,5.15,0,0,1-.9-2,11,11,0,0,1-.28-2.52,10.9,10.9,0,0,1,.28-2.51,5.24,5.24,0,0,1,.9-2,4.3,4.3,0,0,1,1.62-1.29,5.74,5.74,0,0,1,2.44-.47,5.64,5.64,0,0,1,2.42.47,4.27,4.27,0,0,1,1.61,1.29,5.57,5.57,0,0,1,.9,2,10.91,10.91,0,0,1,.27,2.51,11.07,11.07,0,0,1-.27,2.52,5.46,5.46,0,0,1-.9,2,4.15,4.15,0,0,1-1.61,1.28,5.65,5.65,0,0,1-2.42.46A5.74,5.74,0,0,1,173.69,23.34Zm.53-10.57A3.29,3.29,0,0,0,173,13.9a4.65,4.65,0,0,0-.65,1.66,10.62,10.62,0,0,0,0,4,4.78,4.78,0,0,0,.65,1.67,3.24,3.24,0,0,0,1.21,1.14,4.53,4.53,0,0,0,3.81,0,3.34,3.34,0,0,0,1.22-1.14,4.77,4.77,0,0,0,.64-1.67,10.1,10.1,0,0,0,0-4,4.64,4.64,0,0,0-.64-1.66A3.4,3.4,0,0,0,178,12.77a4.53,4.53,0,0,0-3.81,0Z"/><path class="cls-1" d="M191.61,12.66a12.24,12.24,0,0,0-2.07-.31c-.62,0-1.09,0-1.42,0a4.21,4.21,0,0,0-1.68.28,2.57,2.57,0,0,0-.9.64,1.52,1.52,0,0,0-.36.7,3.51,3.51,0,0,0-.06.5,2.57,2.57,0,0,0,.11.72,1.47,1.47,0,0,0,.45.67,3,3,0,0,0,1,.57,8.32,8.32,0,0,0,1.68.48,16.86,16.86,0,0,1,1.85.5,5.44,5.44,0,0,1,1.39.67,2.65,2.65,0,0,1,.87,1,2.83,2.83,0,0,1,.3,1.35,3.22,3.22,0,0,1-1,2.55,4.55,4.55,0,0,1-3.1.91c-.89,0-1.75,0-2.56-.12a17.4,17.4,0,0,1-2.31-.38V20.75h1v1.71c.39.09.76.16,1.13.21s.72.09,1.06.11.63,0,.9,0h.64a3.74,3.74,0,0,0,1.69-.32,2.61,2.61,0,0,0,.91-.7,1.92,1.92,0,0,0,.37-.8,3.35,3.35,0,0,0,.07-.58,2.16,2.16,0,0,0-.12-.71,1.59,1.59,0,0,0-.48-.66,3.59,3.59,0,0,0-1-.58,11.12,11.12,0,0,0-1.7-.48,13.14,13.14,0,0,1-1.67-.42,5.43,5.43,0,0,1-1.37-.65,2.81,2.81,0,0,1-.92-1,3.07,3.07,0,0,1-.34-1.49,2.74,2.74,0,0,1,1.05-2.3,4.9,4.9,0,0,1,3.08-.82,21.67,21.67,0,0,1,2.41.12,17.94,17.94,0,0,1,2.15.38v2.57h-1Z"/><path class="cls-1" d="M207.45,12.66a12.39,12.39,0,0,0-2.07-.31c-.62,0-1.09,0-1.42,0a4.21,4.21,0,0,0-1.68.28,2.48,2.48,0,0,0-.9.64,1.52,1.52,0,0,0-.36.7,3.51,3.51,0,0,0-.06.5,2.57,2.57,0,0,0,.11.72,1.47,1.47,0,0,0,.45.67,3,3,0,0,0,1,.57,8.32,8.32,0,0,0,1.68.48,16.07,16.07,0,0,1,1.84.5,5.36,5.36,0,0,1,1.4.67,2.65,2.65,0,0,1,.87,1,2.83,2.83,0,0,1,.3,1.35,3.22,3.22,0,0,1-1,2.55,4.55,4.55,0,0,1-3.1.91c-.89,0-1.75,0-2.56-.12a17.4,17.4,0,0,1-2.31-.38V20.75h1v1.71c.39.09.76.16,1.13.21s.72.09,1.06.11.63,0,.9,0h.64A3.77,3.77,0,0,0,206,22.5a2.61,2.61,0,0,0,.91-.7,1.92,1.92,0,0,0,.37-.8,3.35,3.35,0,0,0,.07-.58,2.16,2.16,0,0,0-.12-.71,1.59,1.59,0,0,0-.48-.66,3.59,3.59,0,0,0-1-.58,11.12,11.12,0,0,0-1.7-.48,13.14,13.14,0,0,1-1.67-.42,5.43,5.43,0,0,1-1.37-.65,2.81,2.81,0,0,1-.92-1,3.07,3.07,0,0,1-.34-1.49,2.74,2.74,0,0,1,1.05-2.3,4.88,4.88,0,0,1,3.08-.82,21.67,21.67,0,0,1,2.41.12,17.94,17.94,0,0,1,2.15.38v2.57h-1Z"/><path class="cls-1" d="M212.5,19.71a4.35,4.35,0,0,0,.79,1.63,3.55,3.55,0,0,0,1.43,1.07,5.6,5.6,0,0,0,2.18.38,18.81,18.81,0,0,0,1.88-.09,11,11,0,0,0,1.86-.39l.17,1a13.27,13.27,0,0,1-2,.39,18.53,18.53,0,0,1-2.1.11,7,7,0,0,1-2.69-.46,4.44,4.44,0,0,1-1.78-1.28,5,5,0,0,1-1-2,10,10,0,0,1-.3-2.52,9.87,9.87,0,0,1,.3-2.51,5.33,5.33,0,0,1,1-2A4.45,4.45,0,0,1,214,11.79a6.5,6.5,0,0,1,2.6-.47,5,5,0,0,1,2.84.68,3.88,3.88,0,0,1,1.39,1.67,5,5,0,0,1,.37,2.07,9.21,9.21,0,0,1-.23,1.89h-8.69A8,8,0,0,0,212.5,19.71Zm2.06-7.07a3.47,3.47,0,0,0-1.27,1,4.26,4.26,0,0,0-.73,1.44,8.72,8.72,0,0,0-.32,1.76h7.54a6,6,0,0,0,.12-1.58,3.42,3.42,0,0,0-.4-1.46,2.67,2.67,0,0,0-1.08-1.08,3.84,3.84,0,0,0-1.93-.42A4.59,4.59,0,0,0,214.56,12.64Z"/><path class="cls-1" d="M225.85,11.56v1.92h.05a10.24,10.24,0,0,1,1-.79,8.3,8.3,0,0,1,1.16-.7,6.65,6.65,0,0,1,1.31-.49,5.43,5.43,0,0,1,1.4-.18v1.15a6,6,0,0,0-1.46.18,8.48,8.48,0,0,0-1.37.46,8.81,8.81,0,0,0-1.19.6,9.43,9.43,0,0,0-.9.59v8.25H228v1h-5v-1h1.73v-10h-1.73v-1Z"/><path class="cls-1" d="M245.22,11.56v1h-1.15l-4.49,11.09h-1.39L233.7,12.59h-1.18v-1h4.66v1h-2.11L239,22.36h0l3.84-9.77h-2.08v-1Z"/><path class="cls-1" d="M249.35,11.56v11h1.75v1h-4.68v-1h1.73v-10h-1.73v-1Zm0-2.09h-1.2V6.76h1.2Z"/><path class="cls-1" d="M261.11,12.66a9.29,9.29,0,0,0-1.74-.27c-.49,0-.89,0-1.19,0a4.59,4.59,0,0,0-2,.41,3.46,3.46,0,0,0-1.33,1.12,4.59,4.59,0,0,0-.73,1.65,8.25,8.25,0,0,0-.23,2,8.25,8.25,0,0,0,.23,2,4.77,4.77,0,0,0,.73,1.67,3.46,3.46,0,0,0,1.33,1.12,4.45,4.45,0,0,0,2,.41c.38,0,.87,0,1.45-.06a13,13,0,0,0,2.27-.42l.24,1c-.72.17-1.38.3-2,.38a14.88,14.88,0,0,1-2,.12,6.5,6.5,0,0,1-2.6-.46,4.27,4.27,0,0,1-1.73-1.28,5.23,5.23,0,0,1-1-2,10,10,0,0,1-.3-2.52,9.87,9.87,0,0,1,.3-2.51,5.33,5.33,0,0,1,1-2,4.38,4.38,0,0,1,1.73-1.29,6.5,6.5,0,0,1,2.6-.47,14.88,14.88,0,0,1,2,.12c.59.08,1.25.21,2,.38v2.57h-1Z"/><path class="cls-1" d="M266.63,11.56v11h1.75v1H263.7v-1h1.73v-10H263.7v-1Zm0-2.09h-1.2V6.76h1.2Z"/><path class="cls-1" d="M272.66,23.34A4.18,4.18,0,0,1,271,22.06a5.46,5.46,0,0,1-.9-2,11.07,11.07,0,0,1-.27-2.52,10.91,10.91,0,0,1,.27-2.51,5.57,5.57,0,0,1,.9-2,4.3,4.3,0,0,1,1.62-1.29,5.77,5.77,0,0,1,2.44-.47,5.61,5.61,0,0,1,2.42.47,4.19,4.19,0,0,1,1.61,1.29,5.24,5.24,0,0,1,.9,2,10.37,10.37,0,0,1,.28,2.51,10.51,10.51,0,0,1-.28,2.52,5.15,5.15,0,0,1-.9,2,4.08,4.08,0,0,1-1.61,1.28,5.62,5.62,0,0,1-2.42.46A5.78,5.78,0,0,1,272.66,23.34Zm.53-10.57A3.37,3.37,0,0,0,272,13.9a4.84,4.84,0,0,0-.65,1.66,10.62,10.62,0,0,0,0,4,5,5,0,0,0,.65,1.67,3.31,3.31,0,0,0,1.21,1.14,4.55,4.55,0,0,0,3.82,0,3.31,3.31,0,0,0,1.21-1.14,5,5,0,0,0,.65-1.67,10.62,10.62,0,0,0,0-4,4.84,4.84,0,0,0-.65-1.66A3.37,3.37,0,0,0,277,12.77a4.55,4.55,0,0,0-3.82,0Z"/><path class="cls-1" d="M290.58,12.66a12.13,12.13,0,0,0-2.06-.31c-.63,0-1.1,0-1.42,0a4.18,4.18,0,0,0-1.68.28,2.48,2.48,0,0,0-.9.64,1.52,1.52,0,0,0-.36.7,3.51,3.51,0,0,0-.06.5,2.25,2.25,0,0,0,.11.72,1.53,1.53,0,0,0,.44.67,3.29,3.29,0,0,0,1,.57,8.73,8.73,0,0,0,1.68.48,15.72,15.72,0,0,1,1.85.5,5.29,5.29,0,0,1,1.39.67,2.6,2.6,0,0,1,.88,1,2.83,2.83,0,0,1,.3,1.35,3.26,3.26,0,0,1-1,2.55,4.55,4.55,0,0,1-3.1.91c-.9,0-1.75,0-2.57-.12a17.52,17.52,0,0,1-2.3-.38V20.75h1v1.71c.38.09.76.16,1.13.21s.72.09,1.05.11.64,0,.9,0h.64a3.74,3.74,0,0,0,1.69-.32,2.52,2.52,0,0,0,.91-.7,2,2,0,0,0,.38-.8,4.8,4.8,0,0,0,.07-.58,2.16,2.16,0,0,0-.12-.71,1.59,1.59,0,0,0-.48-.66,3.74,3.74,0,0,0-1-.58,11.12,11.12,0,0,0-1.7-.48,12.73,12.73,0,0,1-1.67-.42,5.27,5.27,0,0,1-1.37-.65,2.81,2.81,0,0,1-.92-1,3,3,0,0,1-.34-1.49,2.76,2.76,0,0,1,1-2.3,4.93,4.93,0,0,1,3.09-.82,21.79,21.79,0,0,1,2.41.12,18.3,18.3,0,0,1,2.15.38v2.57h-1Z"/><path class="cls-1" d="M308.39,6.76V22.55h1.75v1h-2.95v-1.2h-.05a5.46,5.46,0,0,1-1.74,1,6.12,6.12,0,0,1-2.22.41,4.3,4.3,0,0,1-2.13-.48A4,4,0,0,1,299.66,22a5.71,5.71,0,0,1-.77-2,12.78,12.78,0,0,1-.22-2.48,11.94,11.94,0,0,1,.24-2.46,5.86,5.86,0,0,1,.78-2,3.85,3.85,0,0,1,1.4-1.32,4.37,4.37,0,0,1,2.14-.48,5.9,5.9,0,0,1,2.18.4,5.32,5.32,0,0,1,1.73,1h.05V7.79h-1.73v-1Zm-8.28,12.78a5,5,0,0,0,.59,1.67,3.25,3.25,0,0,0,1.12,1.15,3.32,3.32,0,0,0,1.77.43,4.91,4.91,0,0,0,1.16-.13,7.84,7.84,0,0,0,1-.32,5.34,5.34,0,0,0,.83-.42c.24-.16.43-.3.58-.42V13.62c-.15-.11-.34-.24-.58-.39a5.34,5.34,0,0,0-.83-.42,6.56,6.56,0,0,0-1-.33,5.5,5.5,0,0,0-1.16-.13,3.41,3.41,0,0,0-1.77.42,3.14,3.14,0,0,0-1.12,1.14,5,5,0,0,0-.59,1.67,11.62,11.62,0,0,0,0,4Z"/><path class="cls-1" d="M313.15,19.71a4.5,4.5,0,0,0,.79,1.63,3.62,3.62,0,0,0,1.43,1.07,5.62,5.62,0,0,0,2.19.38c.65,0,1.28,0,1.88-.09a11,11,0,0,0,1.86-.39l.17,1a13.78,13.78,0,0,1-2,.39,18.79,18.79,0,0,1-2.1.11,6.94,6.94,0,0,1-2.69-.46,4.47,4.47,0,0,1-1.79-1.28,5.11,5.11,0,0,1-1-2,10,10,0,0,1-.3-2.52,9.87,9.87,0,0,1,.3-2.51,5.33,5.33,0,0,1,1-2,4.38,4.38,0,0,1,1.73-1.29,6.5,6.5,0,0,1,2.6-.47,5,5,0,0,1,2.83.68,3.81,3.81,0,0,1,1.39,1.67,4.88,4.88,0,0,1,.38,2.07,10,10,0,0,1-.23,1.89H312.9A8,8,0,0,0,313.15,19.71Zm2.06-7.07a3.55,3.55,0,0,0-1.27,1,4.45,4.45,0,0,0-.73,1.44,8.73,8.73,0,0,0-.31,1.76h7.54a6,6,0,0,0,.12-1.58,3.73,3.73,0,0,0-.4-1.46,2.67,2.67,0,0,0-1.08-1.08,3.86,3.86,0,0,0-1.93-.42A4.67,4.67,0,0,0,315.21,12.64Z"/><path class="cls-2" d="M14.35,45.42a4,4,0,0,1,.83,2.6A4.24,4.24,0,0,1,14,51.2a5,5,0,0,1-3.57,1.16H1.81V50.94H3.47V37.46H1.81V36H9.93a5,5,0,0,1,3.57,1.13,3.92,3.92,0,0,1,1.2,3A4,4,0,0,1,14,42.6,3.56,3.56,0,0,1,11.94,44V44A4,4,0,0,1,14.35,45.42ZM12,38.27a3.09,3.09,0,0,0-2.31-.81H5.25v5.88H9.73A3.25,3.25,0,0,0,12,42.58a3.33,3.33,0,0,0,0-4.31ZM5.25,50.94h4.89a3.23,3.23,0,0,0,2.34-.79,3,3,0,0,0,.83-2.3,3,3,0,0,0-.88-2.26,3.61,3.61,0,0,0-2.6-.84H5.25Z"/><path class="cls-2" d="M17.75,40.6c.8-.16,1.58-.28,2.35-.36a20.51,20.51,0,0,1,2.11-.12,8.5,8.5,0,0,1,1.84.18,3.12,3.12,0,0,1,1.36.64,2.72,2.72,0,0,1,.82,1.21,5.46,5.46,0,0,1,.28,1.91v6.88h1.63v1.42H24.83v-1.2h0a6.31,6.31,0,0,1-1.67,1,5.71,5.71,0,0,1-1.88.39,6.46,6.46,0,0,1-1.6-.11,3.71,3.71,0,0,1-1.35-.58,2.94,2.94,0,0,1-1-1.11A3.89,3.89,0,0,1,17,49.05a3.25,3.25,0,0,1,.43-1.74,3.16,3.16,0,0,1,1.13-1.08,4.71,4.71,0,0,1,1.61-.55A10.35,10.35,0,0,1,22,45.52h2.83V44.15a2.63,2.63,0,0,0-.67-2,3.31,3.31,0,0,0-2.31-.64c-.32,0-.69,0-1.12,0s-1,.11-1.56.22v1.58H17.75Zm4.49,6a4.69,4.69,0,0,0-2.8.62,2.17,2.17,0,0,0-.8,1.8,2.08,2.08,0,0,0,.74,1.66,3.24,3.24,0,0,0,2.11.62,4.67,4.67,0,0,0,2-.4,6.6,6.6,0,0,0,1.3-.75V46.58Z"/><path class="cls-2" d="M39,50.94V44.42a3.47,3.47,0,0,0-.58-2.07,2.36,2.36,0,0,0-2.06-.81,4,4,0,0,0-1.15.16,8.18,8.18,0,0,0-1.05.41,8.43,8.43,0,0,0-1.59,1v7.8h1.56v1.42h-4.9V50.94h1.66V41.78H29.22V40.36h3.34v1.75h0a7.93,7.93,0,0,1,2-1.44,5.43,5.43,0,0,1,2.44-.55,3.44,3.44,0,0,1,2.7,1,4.26,4.26,0,0,1,.9,2.93v6.88H42.3v1.42H37.43V50.94Z"/><path class="cls-2" d="M52.43,41.8a11.32,11.32,0,0,0-1.56-.23l-1.06,0A4.16,4.16,0,0,0,48,41.9a3.23,3.23,0,0,0-1.22,1,4.26,4.26,0,0,0-.7,1.54,8.49,8.49,0,0,0,0,3.84,4.26,4.26,0,0,0,.7,1.54,3.23,3.23,0,0,0,1.22,1,4.16,4.16,0,0,0,1.82.36c.42,0,.9,0,1.46-.06a13.64,13.64,0,0,0,2.24-.42l.31,1.37c-.72.18-1.38.31-2,.4a13.76,13.76,0,0,1-2,.13,6.88,6.88,0,0,1-2.68-.46,4.37,4.37,0,0,1-1.78-1.28,5.13,5.13,0,0,1-1-2,10.82,10.82,0,0,1,0-5.06,5.13,5.13,0,0,1,1-2,4.37,4.37,0,0,1,1.78-1.28,6.88,6.88,0,0,1,2.68-.46,13.76,13.76,0,0,1,2,.13c.6.09,1.26.22,2,.4v2.73H52.43Z"/><path class="cls-2" d="M58.54,52.14a4.28,4.28,0,0,1-1.67-1.28,5.23,5.23,0,0,1-.94-2,11.57,11.57,0,0,1,0-5.06,5.23,5.23,0,0,1,.94-2,4.28,4.28,0,0,1,1.67-1.28,6.94,6.94,0,0,1,5,0,4.24,4.24,0,0,1,1.66,1.28,5.08,5.08,0,0,1,.94,2,11.18,11.18,0,0,1,0,5.06,5.08,5.08,0,0,1-.94,2,4.24,4.24,0,0,1-1.66,1.28,6.94,6.94,0,0,1-5,0Zm.74-10.22a3.2,3.2,0,0,0-1.1,1,4.18,4.18,0,0,0-.59,1.53,10.48,10.48,0,0,0,0,3.76,4.18,4.18,0,0,0,.59,1.53,3.2,3.2,0,0,0,1.1,1,4.15,4.15,0,0,0,3.47,0,3.17,3.17,0,0,0,1.12-1,4.17,4.17,0,0,0,.58-1.53,10.48,10.48,0,0,0,0-3.76A4.17,4.17,0,0,0,63.87,43a3.17,3.17,0,0,0-1.12-1,4.15,4.15,0,0,0-3.47,0Z"/><path class="cls-2" d="M82.81,36.39a4.25,4.25,0,0,1,1.53,1,3.89,3.89,0,0,1,.93,1.46,5.21,5.21,0,0,1,.33,1.89,4.62,4.62,0,0,1-1.25,3.42,4.94,4.94,0,0,1-3.62,1.23H75.9v5.59h1.66v1.42H72.47V50.94h1.65V37.46H72.47V36h8.26A5.6,5.6,0,0,1,82.81,36.39Zm-2.25,7.55a3.25,3.25,0,0,0,2.36-.83,3.21,3.21,0,0,0,.85-2.41,3.25,3.25,0,0,0-.85-2.37,3.15,3.15,0,0,0-2.36-.87H75.9v6.48Z"/><path class="cls-2" d="M90.44,40.36V50.94H92.1v1.42h-5V50.94h1.65V41.78H87.11V40.36Zm0-1.94H88.76V35.56h1.68Z"/><path class="cls-2" d="M102.21,41.8a11.32,11.32,0,0,0-1.56-.23l-1.06,0a4.2,4.2,0,0,0-1.83.36,3.3,3.3,0,0,0-1.22,1,4.44,4.44,0,0,0-.7,1.54,8.88,8.88,0,0,0,0,3.84,4.44,4.44,0,0,0,.7,1.54,3.3,3.3,0,0,0,1.22,1,4.2,4.2,0,0,0,1.83.36c.41,0,.9,0,1.45-.06a13.92,13.92,0,0,0,2.25-.42l.31,1.37c-.72.18-1.38.31-2,.4a13.86,13.86,0,0,1-2,.13,6.94,6.94,0,0,1-2.69-.46,4.37,4.37,0,0,1-1.78-1.28,5.27,5.27,0,0,1-1-2,10.82,10.82,0,0,1,0-5.06,5.27,5.27,0,0,1,1-2,4.37,4.37,0,0,1,1.78-1.28,6.94,6.94,0,0,1,2.69-.46,13.86,13.86,0,0,1,2,.13c.6.09,1.26.22,2,.4v2.73h-1.39Z"/><path class="cls-2" d="M114.73,50.94V44.42a3.54,3.54,0,0,0-.57-2.07,2.39,2.39,0,0,0-2.07-.81,4,4,0,0,0-1.15.16,7.51,7.51,0,0,0-1,.41,6.44,6.44,0,0,0-.9.52,6.76,6.76,0,0,0-.7.51v7.8h1.56v1.42H105V50.94h1.66V37H105V35.56h3.34v6.55h0a8,8,0,0,1,2-1.44,5.35,5.35,0,0,1,2.43-.55,3.44,3.44,0,0,1,2.7,1,4.26,4.26,0,0,1,.9,2.93v6.88h1.64v1.42h-4.88V50.94Z"/><path class="cls-2" d="M122.46,40.36V50.94h1.66v1.42h-5V50.94h1.66V41.78h-1.66V40.36Zm0-1.94h-1.68V35.56h1.68Z"/><path class="cls-2" d="M134.94,50.94V44.42a3.47,3.47,0,0,0-.58-2.07,2.36,2.36,0,0,0-2.06-.81,4,4,0,0,0-1.15.16,8.18,8.18,0,0,0-1.05.41,8.43,8.43,0,0,0-1.59,1v7.8h1.56v1.42h-4.9V50.94h1.66V41.78h-1.66V40.36h3.34v1.75h.05a7.93,7.93,0,0,1,2-1.44,5.43,5.43,0,0,1,2.44-.55,3.44,3.44,0,0,1,2.7,1,4.26,4.26,0,0,1,.9,2.93v6.88h1.63v1.42h-4.87V50.94Z"/><path class="cls-2" d="M148.38,41.8a11.32,11.32,0,0,0-1.56-.23l-1.06,0a4.16,4.16,0,0,0-1.82.36,3.23,3.23,0,0,0-1.22,1,4.26,4.26,0,0,0-.7,1.54,8.49,8.49,0,0,0,0,3.84,4.26,4.26,0,0,0,.7,1.54,3.23,3.23,0,0,0,1.22,1,4.16,4.16,0,0,0,1.82.36c.42,0,.91,0,1.46-.06a13.64,13.64,0,0,0,2.24-.42l.31,1.37c-.72.18-1.38.31-2,.4a13.76,13.76,0,0,1-2,.13,6.88,6.88,0,0,1-2.68-.46,4.37,4.37,0,0,1-1.78-1.28,5.13,5.13,0,0,1-1-2,10.82,10.82,0,0,1,0-5.06,5.13,5.13,0,0,1,1-2,4.37,4.37,0,0,1,1.78-1.28,6.88,6.88,0,0,1,2.68-.46,13.76,13.76,0,0,1,2,.13c.6.09,1.26.22,2,.4v2.73h-1.39Z"/><path class="cls-2" d="M160.91,50.94V44.42a3.47,3.47,0,0,0-.58-2.07,2.36,2.36,0,0,0-2.06-.81,4,4,0,0,0-1.15.16,8.18,8.18,0,0,0-1.05.41,6.44,6.44,0,0,0-.9.52,7.77,7.77,0,0,0-.69.51v7.8H156v1.42h-4.9V50.94h1.66V37h-1.66V35.56h3.34v6.55h0a8.16,8.16,0,0,1,2-1.44,5.43,5.43,0,0,1,2.44-.55,3.44,3.44,0,0,1,2.7,1,4.26,4.26,0,0,1,.9,2.93v6.88h1.63v1.42h-4.87V50.94Z"/><path class="cls-2" d="M166.43,40.6c.8-.16,1.58-.28,2.35-.36a20.51,20.51,0,0,1,2.11-.12,8.5,8.5,0,0,1,1.84.18,3.08,3.08,0,0,1,1.35.64,2.65,2.65,0,0,1,.83,1.21,5.46,5.46,0,0,1,.28,1.91v6.88h1.63v1.42h-3.31v-1.2h0a6.47,6.47,0,0,1-1.67,1,5.71,5.71,0,0,1-1.88.39,6.46,6.46,0,0,1-1.6-.11,3.71,3.71,0,0,1-1.35-.58,2.94,2.94,0,0,1-1-1.11,3.89,3.89,0,0,1-.35-1.73,3,3,0,0,1,1.56-2.82,4.64,4.64,0,0,1,1.61-.55,10.35,10.35,0,0,1,1.85-.16h2.83V44.15a2.63,2.63,0,0,0-.67-2,3.31,3.31,0,0,0-2.31-.64c-.32,0-.69,0-1.13,0s-1,.11-1.56.22v1.58h-1.41Zm4.49,6a4.69,4.69,0,0,0-2.8.62,2.14,2.14,0,0,0-.8,1.8,2,2,0,0,0,.74,1.66,3.24,3.24,0,0,0,2.11.62,4.67,4.67,0,0,0,2-.4,6.6,6.6,0,0,0,1.3-.75V46.58Z"/><path class="cls-1" d="M190.81,41.46a12.13,12.13,0,0,0-2.06-.31c-.63,0-1.1,0-1.42,0a4.18,4.18,0,0,0-1.68.28,2.48,2.48,0,0,0-.9.64,1.52,1.52,0,0,0-.36.7,3.51,3.51,0,0,0-.06.5,2.57,2.57,0,0,0,.11.72,1.53,1.53,0,0,0,.44.67,3.29,3.29,0,0,0,1,.57,8.73,8.73,0,0,0,1.68.48,15.72,15.72,0,0,1,1.85.5,5.14,5.14,0,0,1,1.39.67,2.6,2.6,0,0,1,.88,1,2.83,2.83,0,0,1,.3,1.35,3.22,3.22,0,0,1-1,2.55,4.55,4.55,0,0,1-3.1.91c-.89,0-1.75,0-2.57-.12a17.52,17.52,0,0,1-2.3-.38V49.55h1v1.71c.39.09.76.16,1.13.21s.72.09,1.06.11.63,0,.9,0h.63a3.71,3.71,0,0,0,1.69-.32,2.56,2.56,0,0,0,.92-.7,1.92,1.92,0,0,0,.37-.8,3.35,3.35,0,0,0,.07-.58,2.16,2.16,0,0,0-.12-.71,1.59,1.59,0,0,0-.48-.66,3.74,3.74,0,0,0-1-.58,11.12,11.12,0,0,0-1.7-.48,13.14,13.14,0,0,1-1.67-.42,5.27,5.27,0,0,1-1.37-.65,2.81,2.81,0,0,1-.92-1,3,3,0,0,1-.34-1.49,2.74,2.74,0,0,1,1.05-2.3,4.88,4.88,0,0,1,3.08-.82,21.67,21.67,0,0,1,2.41.12,18.3,18.3,0,0,1,2.15.38v2.57h-1Z"/><path class="cls-1" d="M196.74,40.36v11h1.75v1h-4.68v-1h1.73v-10h-1.73v-1Zm0-2.09h-1.2V35.56h1.2Z"/><path class="cls-1" d="M209.7,51.35V44.27a5.31,5.31,0,0,0-.13-1.22,2.5,2.5,0,0,0-.47-1,2.24,2.24,0,0,0-.89-.66,3.5,3.5,0,0,0-1.39-.24,4.54,4.54,0,0,0-1.27.19,7.72,7.72,0,0,0-1.17.47,9.25,9.25,0,0,0-1,.59,8.51,8.51,0,0,0-.77.58v8.37h1.68v1h-4.61v-1h1.73v-10h-1.73v-1h2.93v1.8h0a8.94,8.94,0,0,1,2.11-1.46,5.49,5.49,0,0,1,2.52-.58q3.6,0,3.6,3.91v7.32h1.75v1H208v-1Z"/><path class="cls-1" d="M226.69,41.46a12.13,12.13,0,0,0-2.06-.31c-.63,0-1.1,0-1.42,0a4.18,4.18,0,0,0-1.68.28,2.48,2.48,0,0,0-.9.64,1.52,1.52,0,0,0-.36.7,3.51,3.51,0,0,0-.06.5,2.57,2.57,0,0,0,.11.72,1.53,1.53,0,0,0,.44.67,3.29,3.29,0,0,0,1,.57,8.73,8.73,0,0,0,1.68.48,15.72,15.72,0,0,1,1.85.5,5.29,5.29,0,0,1,1.39.67,2.6,2.6,0,0,1,.88,1,2.83,2.83,0,0,1,.3,1.35,3.22,3.22,0,0,1-1,2.55,4.55,4.55,0,0,1-3.1.91c-.9,0-1.75,0-2.57-.12a17.52,17.52,0,0,1-2.3-.38V49.55h1v1.71c.38.09.76.16,1.13.21s.72.09,1.06.11.63,0,.89,0h.64a3.74,3.74,0,0,0,1.69-.32,2.52,2.52,0,0,0,.91-.7,1.83,1.83,0,0,0,.38-.8,4.8,4.8,0,0,0,.07-.58,2.16,2.16,0,0,0-.12-.71,1.59,1.59,0,0,0-.48-.66,3.74,3.74,0,0,0-1-.58,11.12,11.12,0,0,0-1.7-.48,12.73,12.73,0,0,1-1.67-.42,5.27,5.27,0,0,1-1.37-.65,2.81,2.81,0,0,1-.92-1,3,3,0,0,1-.34-1.49,2.76,2.76,0,0,1,1-2.3,4.93,4.93,0,0,1,3.09-.82,21.67,21.67,0,0,1,2.41.12,18.3,18.3,0,0,1,2.15.38v2.57h-1Z"/><path class="cls-1" d="M231.15,40.58a20.85,20.85,0,0,1,2.27-.35c.75-.07,1.42-.11,2-.11a7.36,7.36,0,0,1,1.78.19,3.13,3.13,0,0,1,1.29.64,2.51,2.51,0,0,1,.79,1.2,5.62,5.62,0,0,1,.27,1.88v7.32h1.75v1h-3v-1.2h0a7.74,7.74,0,0,1-1.78,1,5.51,5.51,0,0,1-2,.38,4.91,4.91,0,0,1-1.27-.08,3.46,3.46,0,0,1-2.06-1,2.93,2.93,0,0,1-.84-2,3.49,3.49,0,0,1,0-1A2.72,2.72,0,0,1,232,46.3a7.64,7.64,0,0,1,3.41-.66h3V44.08a3,3,0,0,0-.7-2.18,3.28,3.28,0,0,0-2.47-.75c-.35,0-.77,0-1.25.05a15.16,15.16,0,0,0-1.77.24v1.75h-1Zm4.4,5.85a8.57,8.57,0,0,0-1.92.18,3.31,3.31,0,0,0-1.24.53,1.93,1.93,0,0,0-.66.85,3.12,3.12,0,0,0-.19,1.13,2.31,2.31,0,0,0,.8,1.81,3.53,3.53,0,0,0,2.39.71,5.36,5.36,0,0,0,1.24-.13,6.78,6.78,0,0,0,1-.33,4,4,0,0,0,.8-.42,7.16,7.16,0,0,0,.59-.42V46.43Z"/><path class="cls-1" d="M245.46,35.56V51.35h1.75v1h-4.68v-1h1.73V36.59h-1.73v-1Z"/><path class="cls-1" d="M251.34,40.36v11h1.75v1h-4.68v-1h1.73v-10h-1.73v-1Zm0-2.09h-1.2V35.56h1.2Z"/><path class="cls-1" d="M257.22,40.36v1.92h0a10.08,10.08,0,0,1,1-.79,8.42,8.42,0,0,1,1.17-.7,6.56,6.56,0,0,1,1.3-.49,5.56,5.56,0,0,1,1.41-.18v1.15a6,6,0,0,0-1.47.18,8.36,8.36,0,0,0-1.36.46,8.26,8.26,0,0,0-1.19.6,9.43,9.43,0,0,0-.9.59v8.25h2.11v1h-5v-1H256v-10h-1.73v-1Z"/><path class="cls-1" d="M278.7,35.56V51.35h1.75v1H277.5v-1.2h-.05a5.46,5.46,0,0,1-1.74,1,6.12,6.12,0,0,1-2.22.41,4.24,4.24,0,0,1-2.12-.48,4,4,0,0,1-1.4-1.31,5.51,5.51,0,0,1-.76-2,13.1,13.1,0,0,1,0-4.94,5.86,5.86,0,0,1,.78-2,3.93,3.93,0,0,1,1.4-1.32,4.37,4.37,0,0,1,2.14-.48,5.9,5.9,0,0,1,2.18.4,5.32,5.32,0,0,1,1.73,1h.05V36.59h-1.73v-1Zm-8.28,12.78A5,5,0,0,0,271,50a3.25,3.25,0,0,0,1.12,1.15,3.34,3.34,0,0,0,1.77.43,4.91,4.91,0,0,0,1.16-.13,7.84,7.84,0,0,0,1-.32,5.34,5.34,0,0,0,.83-.42c.24-.16.43-.3.58-.42V42.42c-.15-.11-.34-.24-.58-.39a5.34,5.34,0,0,0-.83-.42,6.56,6.56,0,0,0-1-.33,5.5,5.5,0,0,0-1.16-.13,3.44,3.44,0,0,0-1.77.42A3.14,3.14,0,0,0,271,42.71a5,5,0,0,0-.59,1.67,11.62,11.62,0,0,0,0,4Z"/><path class="cls-1" d="M283.46,48.51a4.5,4.5,0,0,0,.79,1.63,3.62,3.62,0,0,0,1.43,1.07,5.62,5.62,0,0,0,2.19.38c.65,0,1.28,0,1.88-.09a11,11,0,0,0,1.86-.39l.17,1a13.78,13.78,0,0,1-2,.39,18.79,18.79,0,0,1-2.1.11,6.94,6.94,0,0,1-2.69-.46,4.47,4.47,0,0,1-1.79-1.28,5.11,5.11,0,0,1-1-2,10,10,0,0,1-.3-2.52,9.87,9.87,0,0,1,.3-2.51,5.33,5.33,0,0,1,1-2,4.38,4.38,0,0,1,1.73-1.29,6.5,6.5,0,0,1,2.6-.47,5,5,0,0,1,2.83.68,3.81,3.81,0,0,1,1.39,1.67,4.88,4.88,0,0,1,.38,2.07,10,10,0,0,1-.23,1.89h-8.69A8,8,0,0,0,283.46,48.51Zm2.07-7.07a3.5,3.5,0,0,0-1.28,1,4.45,4.45,0,0,0-.73,1.44,8.73,8.73,0,0,0-.31,1.76h7.54a6,6,0,0,0,.12-1.58,3.73,3.73,0,0,0-.4-1.46,2.67,2.67,0,0,0-1.08-1.08,3.86,3.86,0,0,0-1.93-.42A4.59,4.59,0,0,0,285.53,41.44Z"/><path class="cls-1" d="M298.21,41.27v-.81l2-.1.16-3.36h1v3.36h3.72v.91h-3.72v7.37a7,7,0,0,0,.1,1.28,2.44,2.44,0,0,0,.38.94,1.51,1.51,0,0,0,.72.56,2.89,2.89,0,0,0,1.15.2,6.08,6.08,0,0,0,.61,0c.2,0,.45-.05.76-.09l.12,1c-.29,0-.61.08-1,.1s-.65,0-.9,0a3.17,3.17,0,0,1-2.41-.82,4.3,4.3,0,0,1-.78-3V41.27Z"/><path class="cls-1" d="M310.14,40.36v8.11a4.67,4.67,0,0,0,.14,1.21,2.81,2.81,0,0,0,.48,1,2.17,2.17,0,0,0,.89.67,3.43,3.43,0,0,0,1.37.24,4.29,4.29,0,0,0,1.29-.19,6.8,6.8,0,0,0,1.17-.47,6.24,6.24,0,0,0,1-.6c.3-.21.55-.41.76-.59V41.39h-2.28v-1h3.48v11h1.75v1h-2.95v-1.8h-.05A8.94,8.94,0,0,1,315.06,52a5.49,5.49,0,0,1-2.52.58q-3.6,0-3.6-3.89V41.39h-1.73v-1Z"/><path class="cls-1" d="M335,41.46a9.29,9.29,0,0,0-1.74-.27c-.49,0-.89,0-1.19,0a4.59,4.59,0,0,0-2,.41,3.46,3.46,0,0,0-1.33,1.12,4.59,4.59,0,0,0-.73,1.65,9.07,9.07,0,0,0,0,4.06,4.77,4.77,0,0,0,.73,1.67A3.46,3.46,0,0,0,330,51.18a4.45,4.45,0,0,0,2,.41c.38,0,.87,0,1.45-.06a13,13,0,0,0,2.27-.42l.24,1c-.72.17-1.38.3-2,.38a14.88,14.88,0,0,1-2,.12,6.5,6.5,0,0,1-2.6-.46,4.27,4.27,0,0,1-1.73-1.28,5.23,5.23,0,0,1-1-2,10,10,0,0,1-.3-2.52,9.87,9.87,0,0,1,.3-2.51,5.33,5.33,0,0,1,1-2,4.38,4.38,0,0,1,1.73-1.29,6.5,6.5,0,0,1,2.6-.47,14.88,14.88,0,0,1,2,.12c.59.08,1.25.21,2,.38v2.57h-1Z"/><path class="cls-1" d="M338.79,40.58a20.85,20.85,0,0,1,2.27-.35c.74-.07,1.42-.11,2-.11a7.36,7.36,0,0,1,1.78.19,3.13,3.13,0,0,1,1.29.64,2.58,2.58,0,0,1,.79,1.2,5.62,5.62,0,0,1,.27,1.88v7.32H349v1h-3v-1.2h0a7.74,7.74,0,0,1-1.78,1,5.51,5.51,0,0,1-2,.38,4.88,4.88,0,0,1-1.27-.08,3.49,3.49,0,0,1-2.07-1,3,3,0,0,1-.84-2,4,4,0,0,1,.05-1,2.72,2.72,0,0,1,1.54-2.15,7.61,7.61,0,0,1,3.41-.66h3V44.08a3,3,0,0,0-.7-2.18,3.28,3.28,0,0,0-2.47-.75c-.35,0-.77,0-1.25.05a15.16,15.16,0,0,0-1.77.24v1.75h-1Zm4.4,5.85a8.73,8.73,0,0,0-1.93.18,3.33,3.33,0,0,0-1.23.53,1.93,1.93,0,0,0-.66.85,3.12,3.12,0,0,0-.19,1.13,2.28,2.28,0,0,0,.8,1.81,3.53,3.53,0,0,0,2.39.71,5.36,5.36,0,0,0,1.24-.13,6.3,6.3,0,0,0,1-.33,3.84,3.84,0,0,0,.81-.42,7.16,7.16,0,0,0,.59-.42V46.43Z"/><path class="cls-1" d="M358.69,41.46a12.09,12.09,0,0,0-2.07-.31c-.62,0-1.09,0-1.41,0a4.18,4.18,0,0,0-1.68.28,2.48,2.48,0,0,0-.9.64,1.52,1.52,0,0,0-.36.7,3.51,3.51,0,0,0-.06.5,2.25,2.25,0,0,0,.11.72,1.53,1.53,0,0,0,.44.67,3,3,0,0,0,1,.57,8.73,8.73,0,0,0,1.68.48,15.72,15.72,0,0,1,1.85.5,5.29,5.29,0,0,1,1.39.67,2.6,2.6,0,0,1,.88,1,2.83,2.83,0,0,1,.3,1.35,3.26,3.26,0,0,1-1,2.55,4.55,4.55,0,0,1-3.1.91c-.9,0-1.75,0-2.57-.12a17.24,17.24,0,0,1-2.3-.38V49.55h1v1.71c.38.09.76.16,1.13.21s.72.09,1,.11.64,0,.9,0h.64a3.74,3.74,0,0,0,1.69-.32,2.52,2.52,0,0,0,.91-.7,1.8,1.8,0,0,0,.37-.8,3.63,3.63,0,0,0,.08-.58,2.16,2.16,0,0,0-.12-.71,1.59,1.59,0,0,0-.48-.66,3.74,3.74,0,0,0-1-.58,11,11,0,0,0-1.71-.48,13,13,0,0,1-1.66-.42,5.27,5.27,0,0,1-1.37-.65,2.93,2.93,0,0,1-.93-1,3.07,3.07,0,0,1-.33-1.49,2.76,2.76,0,0,1,1-2.3,4.93,4.93,0,0,1,3.09-.82,21.79,21.79,0,0,1,2.41.12,18.3,18.3,0,0,1,2.15.38v2.57h-1Z"/><path class="cls-1" d="M363.15,40.58a20.85,20.85,0,0,1,2.27-.35c.74-.07,1.42-.11,2-.11a7.22,7.22,0,0,1,1.77.19,3.11,3.11,0,0,1,1.3.64,2.58,2.58,0,0,1,.79,1.2,5.62,5.62,0,0,1,.27,1.88v7.32h1.75v1h-2.95v-1.2h-.05a7.74,7.74,0,0,1-1.78,1,5.51,5.51,0,0,1-2,.38,4.88,4.88,0,0,1-1.27-.08,3.49,3.49,0,0,1-2.07-1,3,3,0,0,1-.84-2,4,4,0,0,1,.05-1A2.72,2.72,0,0,1,364,46.3a7.61,7.61,0,0,1,3.41-.66h3V44.08a3.09,3.09,0,0,0-.7-2.18,3.28,3.28,0,0,0-2.47-.75c-.35,0-.77,0-1.25.05a15.58,15.58,0,0,0-1.78.24v1.75h-1Zm4.39,5.85a8.7,8.7,0,0,0-1.92.18,3.33,3.33,0,0,0-1.23.53,1.93,1.93,0,0,0-.66.85,3.12,3.12,0,0,0-.19,1.13,2.28,2.28,0,0,0,.8,1.81,3.53,3.53,0,0,0,2.39.71,5.22,5.22,0,0,0,1.23-.13,6.11,6.11,0,0,0,1-.33,3.84,3.84,0,0,0,.81-.42,7.16,7.16,0,0,0,.59-.42V46.43Z"/><circle class="cls-3" cx="29.6" cy="141.09" r="28"/><g id="Symbols"><g id="Icons-_-01.-Material-_-02.-Outlined-_-Action-_-compare_arrows" data-name="Icons-/-01.-Material-/-02.-Outlined-/-Action-/-compare_arrows"><polygon id="Path" class="cls-4" points="17.6 129.09 41.6 129.09 41.6 153.09 17.6 153.09 17.6 129.09"/><path id="Icon-Color" class="cls-5" d="M26.6,143.09h-7v2h7v3l4-4-4-4Zm6-1v-3h7v-2h-7v-3l-4,4Z"/></g></g><path class="cls-6" d="M87.25,146.76,84.35,142H81.74v4.77H80V134.51h5a3.81,3.81,0,0,1,3.07,6,3.21,3.21,0,0,1-2,1.19l3.12,5Zm-5.51-6.3H84.8a2.38,2.38,0,0,0,1.66-.56,2.07,2.07,0,0,0,.63-1.64,2,2,0,0,0-2.2-2.22H81.74Z"/><path class="cls-6" d="M91.57,142.53q.09,3.06,3,3.06a9.55,9.55,0,0,0,2.81-.36l.21,1.31a12.18,12.18,0,0,1-3.24.4q-4.5,0-4.5-4.68t4.41-4.68a3.52,3.52,0,0,1,2.71.89,3.45,3.45,0,0,1,.89,2.24,8.4,8.4,0,0,1-.11,1.82Zm0-1h4.57a3.61,3.61,0,0,0,0-.95,1.81,1.81,0,0,0-.55-1.24,2.12,2.12,0,0,0-1.5-.47C92.57,138.84,91.71,139.72,91.57,141.5Z"/><path class="cls-6" d="M100.1,139.27,99.85,138a18.85,18.85,0,0,1,3.47-.37,4,4,0,0,1,2.52.64,2.85,2.85,0,0,1,.81,2.33v6.21H105v-.9h0a4.11,4.11,0,0,1-2.84,1.08,2.94,2.94,0,0,1-2.11-.73,2.55,2.55,0,0,1-.77-1.92,2.31,2.31,0,0,1,1-2.09,5,5,0,0,1,2.75-.66h2v-.9a1.6,1.6,0,0,0-.49-1.31,2.46,2.46,0,0,0-1.58-.4A14.68,14.68,0,0,0,100.1,139.27Zm4.93,3.26h-1.89a2.88,2.88,0,0,0-1.73.4,1.45,1.45,0,0,0-.52,1.22,1.37,1.37,0,0,0,.5,1.12,2.17,2.17,0,0,0,1.39.41,3.54,3.54,0,0,0,2.25-.76Z"/><path class="cls-6" d="M108.63,134.15h1.62v12.61h-1.62Z"/><path class="cls-6" d="M113.85,134.51v2.26h-1.62v-2.26Zm0,3.25v9h-1.62v-9Z"/><path class="cls-6" d="M122.62,138.93l-5.17,6.53v0h5.35v1.26h-7.47v-1.17l5.22-6.54v0h-5v-1.26h7Z"/><path class="cls-6" d="M124.85,139.27,124.6,138a18.85,18.85,0,0,1,3.47-.37,4,4,0,0,1,2.52.64,2.85,2.85,0,0,1,.81,2.33v6.21h-1.62v-.9h0a4.11,4.11,0,0,1-2.84,1.08,2.94,2.94,0,0,1-2.11-.73,2.55,2.55,0,0,1-.77-1.92,2.31,2.31,0,0,1,1-2.09,5,5,0,0,1,2.75-.66h2v-.9a1.6,1.6,0,0,0-.49-1.31,2.46,2.46,0,0,0-1.58-.4A14.68,14.68,0,0,0,124.85,139.27Zm4.93,3.26h-1.89a2.88,2.88,0,0,0-1.73.4,1.45,1.45,0,0,0-.52,1.22,1.37,1.37,0,0,0,.5,1.12,2.17,2.17,0,0,0,1.39.41,3.54,3.54,0,0,0,2.25-.76Z"/><path class="cls-6" d="M137.34,138.93H136v-1.07l1.35-.1.2-2.53H139v2.53h2.52v1.17H139v4.95a2.12,2.12,0,0,0,.34,1.33,1.44,1.44,0,0,0,1.19.43,7.36,7.36,0,0,0,.92-.09l.16,1.26a10.19,10.19,0,0,1-1.62.13,2.65,2.65,0,0,1-2-.64,3.1,3.1,0,0,1-.6-2.15Z"/><path class="cls-6" d="M145,146.76h-1.62v-9H145v1.44h0a5.27,5.27,0,0,1,1.49-1.16,4,4,0,0,1,1.89-.46v1.53a6.13,6.13,0,0,0-3.42,1Z"/><path class="cls-6" d="M149.43,139.27l-.25-1.32a19,19,0,0,1,3.48-.37,4,4,0,0,1,2.52.64,2.85,2.85,0,0,1,.81,2.33v6.21h-1.62v-.9h0a4.11,4.11,0,0,1-2.84,1.08,2.94,2.94,0,0,1-2.11-.73,2.51,2.51,0,0,1-.77-1.92,2.32,2.32,0,0,1,1-2.09,5.08,5.08,0,0,1,2.76-.66h2v-.9a1.6,1.6,0,0,0-.49-1.31,2.46,2.46,0,0,0-1.58-.4A14.77,14.77,0,0,0,149.43,139.27Zm4.94,3.26h-1.89a2.86,2.86,0,0,0-1.73.4,1.45,1.45,0,0,0-.52,1.22,1.37,1.37,0,0,0,.5,1.12,2.17,2.17,0,0,0,1.39.41,3.54,3.54,0,0,0,2.25-.76Z"/><path class="cls-6" d="M159.59,146.76H158v-9h1.62V139h0a4.55,4.55,0,0,1,3.21-1.44,2.54,2.54,0,0,1,2,.76,3.2,3.2,0,0,1,.69,2.21v6.21h-1.62v-5.85q0-2-1.8-2a4.24,4.24,0,0,0-2.52,1Z"/><path class="cls-6" d="M173.57,146.24a3.83,3.83,0,0,1-2.46.7,15.81,15.81,0,0,1-3.87-.4l.28-1.31a14.34,14.34,0,0,0,3.41.41,1.94,1.94,0,0,0,1.48-.45,1.34,1.34,0,0,0,.41-.88,1,1,0,0,0-.44-.81,4.1,4.1,0,0,0-1.6-.54,6.32,6.32,0,0,1-2.5-.93,2.2,2.2,0,0,1-.86-1.93q0-2.52,3.33-2.52a14.7,14.7,0,0,1,3.6.41l-.31,1.3a12.81,12.81,0,0,0-3.2-.4,3.38,3.38,0,0,0-1,.13,1.19,1.19,0,0,0-.55.35,1.44,1.44,0,0,0-.23.37.87.87,0,0,0-.06.32,1,1,0,0,0,.39.81,3.89,3.89,0,0,0,1.53.56c.56.12,1,.24,1.35.35a5.33,5.33,0,0,1,1.07.49,2.09,2.09,0,0,1,.8.79,2.4,2.4,0,0,1,.26,1.14A2.47,2.47,0,0,1,173.57,146.24Z"/><path class="cls-6" d="M178.49,137.76h2.16v1.17h-2.16v7.83h-1.62v-7.83h-1.35v-1.07l1.35-.1v-1.12a2.65,2.65,0,0,1,.57-1.9,2.84,2.84,0,0,1,2-.59,7.66,7.66,0,0,1,1.44.15l-.16,1.26a4.94,4.94,0,0,0-.92-.09,1.5,1.5,0,0,0-1.06.28,1.35,1.35,0,0,0-.29,1Z"/><path class="cls-6" d="M183,142.53q.09,3.06,3,3.06a9.5,9.5,0,0,0,2.81-.36l.22,1.31a12.29,12.29,0,0,1-3.24.4c-3,0-4.51-1.56-4.51-4.68s1.48-4.68,4.42-4.68a3.11,3.11,0,0,1,3.6,3.13,9.09,9.09,0,0,1-.11,1.82Zm0-1h4.57a4.18,4.18,0,0,0,.06-.95,1.86,1.86,0,0,0-.55-1.24,2.12,2.12,0,0,0-1.5-.47C184,138.84,183.1,139.72,183,141.5Z"/><path class="cls-6" d="M192.55,146.76h-1.63v-9h1.63v1.44h0a5.47,5.47,0,0,1,1.5-1.16,3.94,3.94,0,0,1,1.89-.46v1.53a6.08,6.08,0,0,0-3.42,1Z"/><path class="cls-6" d="M198.09,142.53q.09,3.06,3,3.06a9.55,9.55,0,0,0,2.81-.36l.21,1.31a12.18,12.18,0,0,1-3.24.4q-4.5,0-4.5-4.68t4.41-4.68a3.51,3.51,0,0,1,2.71.89,3.4,3.4,0,0,1,.89,2.24,9,9,0,0,1-.1,1.82Zm0-1h4.57a4.18,4.18,0,0,0,.06-.95,1.86,1.86,0,0,0-.55-1.24,2.13,2.13,0,0,0-1.51-.47C199.09,138.84,198.23,139.72,198.09,141.5Z"/><path class="cls-6" d="M207.68,146.76h-1.62v-9h1.62V139h0a4.51,4.51,0,0,1,3.2-1.44,2.57,2.57,0,0,1,2,.76,3.2,3.2,0,0,1,.68,2.21v6.21H212v-5.85q0-2-1.8-2a4.28,4.28,0,0,0-2.52,1Z"/><path class="cls-6" d="M219.83,137.58a12.42,12.42,0,0,1,3.06.41l-.3,1.3a11.38,11.38,0,0,0-2.76-.36,2.35,2.35,0,0,0-2,.89,4,4,0,0,0-.67,2.44,4,4,0,0,0,.67,2.44,2.37,2.37,0,0,0,2,.89,11.38,11.38,0,0,0,2.76-.36l.3,1.31a12.25,12.25,0,0,1-3.06.4q-4.41,0-4.41-4.68T219.83,137.58Z"/><path class="cls-6" d="M225.86,134.51v2.26h-1.62v-2.26Zm0,3.25v9h-1.62v-9Z"/><path class="cls-6" d="M228.4,139.27l-.25-1.32a18.93,18.93,0,0,1,3.47-.37,4,4,0,0,1,2.52.64,2.85,2.85,0,0,1,.81,2.33v6.21h-1.62v-.9h0a4.15,4.15,0,0,1-2.85,1.08,2.9,2.9,0,0,1-2.1-.73,2.52,2.52,0,0,1-.78-1.92,2.31,2.31,0,0,1,1-2.09,5,5,0,0,1,2.75-.66h2v-.9a1.63,1.63,0,0,0-.48-1.31,2.49,2.49,0,0,0-1.59-.4A14.68,14.68,0,0,0,228.4,139.27Zm4.93,3.26h-1.89a2.88,2.88,0,0,0-1.73.4,1.47,1.47,0,0,0-.52,1.22,1.35,1.35,0,0,0,.51,1.12,2.14,2.14,0,0,0,1.38.41,3.5,3.5,0,0,0,2.25-.76Z"/><path class="cls-6" d="M243,146.24a3.88,3.88,0,0,1-2.47.7,15.92,15.92,0,0,1-3.87-.4l.29-1.31a14.25,14.25,0,0,0,3.4.41,2,2,0,0,0,1.49-.45,1.32,1.32,0,0,0,.4-.88,1,1,0,0,0-.44-.81,4,4,0,0,0-1.59-.54,6.26,6.26,0,0,1-2.5-.93,2.21,2.21,0,0,1-.87-1.93q0-2.52,3.33-2.52a14.59,14.59,0,0,1,3.6.41l-.3,1.3a13,13,0,0,0-3.21-.4,3.25,3.25,0,0,0-.95.13,1.23,1.23,0,0,0-.56.35,1.37,1.37,0,0,0-.22.37.71.71,0,0,0-.07.32,1,1,0,0,0,.4.81,3.76,3.76,0,0,0,1.53.56c.55.12,1,.24,1.35.35a5.26,5.26,0,0,1,1.06.49,2,2,0,0,1,.8.79,2.29,2.29,0,0,1,.26,1.14A2.47,2.47,0,0,1,243,146.24Z"/><path class="cls-6" d="M254.75,145.86h0a3.83,3.83,0,0,1-2.76,1.08q-3.33,0-3.33-4.68a6.24,6.24,0,0,1,.82-3.41,2.86,2.86,0,0,1,2.6-1.27,3.67,3.67,0,0,1,2.67,1h0v-4.47h1.62v12.61h-1.62Zm-2.16-.27a3.45,3.45,0,0,0,2.16-.76V139.7a3.29,3.29,0,0,0-2.16-.77q-2.25,0-2.25,3.33T252.59,145.59Z"/><path class="cls-6" d="M260,134.51v2.26h-1.62v-2.26Zm0,3.25v9h-1.62v-9Z"/><path class="cls-6" d="M263.57,146.76H262v-9h1.62v1.44h0A5.42,5.42,0,0,1,265.1,138a4,4,0,0,1,1.89-.46v1.53a6.13,6.13,0,0,0-3.42,1Z"/><path class="cls-6" d="M269.12,142.53q.09,3.06,3,3.06a9.55,9.55,0,0,0,2.81-.36l.21,1.31a12.18,12.18,0,0,1-3.24.4q-4.5,0-4.5-4.68t4.41-4.68a3.52,3.52,0,0,1,2.71.89,3.45,3.45,0,0,1,.89,2.24,8.4,8.4,0,0,1-.11,1.82Zm0-1h4.57a3.61,3.61,0,0,0,.05-.95,1.81,1.81,0,0,0-.55-1.24,2.12,2.12,0,0,0-1.5-.47C270.12,138.84,269.26,139.72,269.12,141.5Z"/><path class="cls-6" d="M281.32,137.58a12.42,12.42,0,0,1,3.06.41l-.3,1.3a11.38,11.38,0,0,0-2.76-.36,2.35,2.35,0,0,0-2,.89,3.93,3.93,0,0,0-.67,2.44,4,4,0,0,0,.67,2.44,2.37,2.37,0,0,0,2,.89,11.38,11.38,0,0,0,2.76-.36l.3,1.31a12.25,12.25,0,0,1-3.06.4q-4.41,0-4.41-4.68T281.32,137.58Z"/><path class="cls-6" d="M286.45,138.93H285.1v-1.07l1.35-.1.2-2.53h1.42v2.53h2.52v1.17h-2.52v4.95a2.12,2.12,0,0,0,.34,1.33,1.44,1.44,0,0,0,1.19.43,7.36,7.36,0,0,0,.92-.09l.16,1.26a10.19,10.19,0,0,1-1.62.13,2.66,2.66,0,0,1-2-.64,3.1,3.1,0,0,1-.6-2.15Z"/><path class="cls-6" d="M293,139.27l-.25-1.32a18.85,18.85,0,0,1,3.47-.37,4,4,0,0,1,2.52.64,2.85,2.85,0,0,1,.81,2.33v6.21H298v-.9h0a4.15,4.15,0,0,1-2.85,1.08,2.94,2.94,0,0,1-2.11-.73,2.55,2.55,0,0,1-.77-1.92,2.31,2.31,0,0,1,1-2.09,5,5,0,0,1,2.75-.66h2v-.9a1.63,1.63,0,0,0-.48-1.31,2.51,2.51,0,0,0-1.59-.4A14.68,14.68,0,0,0,293,139.27Zm4.93,3.26h-1.89a2.88,2.88,0,0,0-1.73.4,1.45,1.45,0,0,0-.52,1.22,1.37,1.37,0,0,0,.5,1.12,2.17,2.17,0,0,0,1.39.41,3.54,3.54,0,0,0,2.25-.76Z"/><path class="cls-6" d="M307.64,146.24a3.88,3.88,0,0,1-2.47.7,15.92,15.92,0,0,1-3.87-.4l.29-1.31a14.25,14.25,0,0,0,3.4.41,2,2,0,0,0,1.49-.45,1.32,1.32,0,0,0,.4-.88,1,1,0,0,0-.44-.81,4,4,0,0,0-1.59-.54,6.31,6.31,0,0,1-2.51-.93,2.23,2.23,0,0,1-.86-1.93q0-2.52,3.33-2.52a14.59,14.59,0,0,1,3.6.41l-.3,1.3a13,13,0,0,0-3.21-.4,3.25,3.25,0,0,0-.95.13,1.23,1.23,0,0,0-.56.35,1.79,1.79,0,0,0-.23.37.87.87,0,0,0-.06.32,1,1,0,0,0,.4.81,3.76,3.76,0,0,0,1.53.56c.55.12,1,.24,1.35.35a5.53,5.53,0,0,1,1.06.49,2,2,0,0,1,.8.79,2.4,2.4,0,0,1,.26,1.14A2.5,2.5,0,0,1,307.64,146.24Z"/><path class="cls-6" d="M315,142.53q.09,3.06,3,3.06a9.55,9.55,0,0,0,2.81-.36l.21,1.31a12.18,12.18,0,0,1-3.24.4q-4.5,0-4.5-4.68t4.41-4.68a3.52,3.52,0,0,1,2.71.89,3.45,3.45,0,0,1,.89,2.24,8.4,8.4,0,0,1-.11,1.82Zm0-1h4.57a3.61,3.61,0,0,0,.05-.95,1.81,1.81,0,0,0-.55-1.24,2.12,2.12,0,0,0-1.5-.47C316,138.84,315.16,139.72,315,141.5Z"/><path class="cls-6" d="M327.85,134.51v2.26h-1.62v-2.26Zm0,3.25v9h-1.62v-9Z"/><path class="cls-6" d="M331.45,146.76h-1.62v-9h1.62V139h0a4.51,4.51,0,0,1,3.2-1.44,2.57,2.57,0,0,1,2,.76,3.25,3.25,0,0,1,.68,2.21v6.21h-1.62v-5.85q0-2-1.8-2a4.24,4.24,0,0,0-2.52,1Z"/><path class="cls-6" d="M340.09,138.93h-1.35v-1.07l1.35-.1.2-2.53h1.42v2.53h2.52v1.17h-2.52v4.95a2.12,2.12,0,0,0,.34,1.33,1.44,1.44,0,0,0,1.19.43,7.36,7.36,0,0,0,.92-.09l.16,1.26a10.19,10.19,0,0,1-1.62.13,2.65,2.65,0,0,1-2-.64,3.1,3.1,0,0,1-.6-2.15Z"/><path class="cls-6" d="M346.8,142.53q.09,3.06,3,3.06a9.46,9.46,0,0,0,2.81-.36l.22,1.31a12.18,12.18,0,0,1-3.24.4q-4.5,0-4.5-4.68t4.41-4.68a3.11,3.11,0,0,1,3.6,3.13,8.4,8.4,0,0,1-.11,1.82Zm0-1h4.58a3.61,3.61,0,0,0,.05-.95,1.81,1.81,0,0,0-.55-1.24,2.12,2.12,0,0,0-1.5-.47C347.81,138.84,347,139.72,346.8,141.5Z"/><path class="cls-6" d="M356.4,146.76h-1.62v-9h1.62v1.44h0a5.47,5.47,0,0,1,1.5-1.16,4,4,0,0,1,1.89-.46v1.53a6.13,6.13,0,0,0-3.42,1Z"/><path class="cls-6" d="M363.06,138.66h0a3.74,3.74,0,0,1,2.76-1.08q3.33,0,3.33,4.68a6.2,6.2,0,0,1-.82,3.4,2.87,2.87,0,0,1-2.6,1.28,3.92,3.92,0,0,1-2.76-1h0l-.29.9h-1.24V134.15h1.62Zm2.16.27a3.21,3.21,0,0,0-2.16.77v5.13a3.33,3.33,0,0,0,2.16.76q2.25,0,2.25-3.33T365.22,138.93Z"/><path class="cls-6" d="M371.54,139.27l-.26-1.32a19,19,0,0,1,3.48-.37,4,4,0,0,1,2.52.64,2.85,2.85,0,0,1,.81,2.33v6.21h-1.62v-.9h0a4.11,4.11,0,0,1-2.84,1.08,2.94,2.94,0,0,1-2.11-.73,2.55,2.55,0,0,1-.77-1.92,2.32,2.32,0,0,1,1-2.09,5.08,5.08,0,0,1,2.76-.66h2v-.9a1.6,1.6,0,0,0-.49-1.31,2.46,2.46,0,0,0-1.58-.4A14.59,14.59,0,0,0,371.54,139.27Zm4.93,3.26h-1.89a2.86,2.86,0,0,0-1.73.4,1.45,1.45,0,0,0-.52,1.22,1.37,1.37,0,0,0,.5,1.12,2.17,2.17,0,0,0,1.39.41,3.54,3.54,0,0,0,2.25-.76Z"/><path class="cls-6" d="M381.69,146.76h-1.62v-9h1.62V139h0a4.55,4.55,0,0,1,3.21-1.44,2.57,2.57,0,0,1,2,.76,3.25,3.25,0,0,1,.68,2.21v6.21H386v-5.85q0-2-1.8-2a4.24,4.24,0,0,0-2.52,1Z"/><path class="cls-6" d="M393.84,137.58a12.48,12.48,0,0,1,3.06.41l-.31,1.3a11.36,11.36,0,0,0-2.75-.36,2.38,2.38,0,0,0-2,.89,4,4,0,0,0-.66,2.44,4,4,0,0,0,.66,2.44,2.41,2.41,0,0,0,2,.89,11.36,11.36,0,0,0,2.75-.36l.31,1.31a12.37,12.37,0,0,1-3.06.4q-4.41,0-4.41-4.68T393.84,137.58Z"/><path class="cls-6" d="M398.48,139.27l-.25-1.32a18.93,18.93,0,0,1,3.47-.37,4,4,0,0,1,2.52.64,2.86,2.86,0,0,1,.82,2.33v6.21h-1.63v-.9h0a4.14,4.14,0,0,1-2.85,1.08,2.92,2.92,0,0,1-2.1-.73,2.52,2.52,0,0,1-.78-1.92,2.33,2.33,0,0,1,1-2.09,5,5,0,0,1,2.75-.66h2v-.9a1.63,1.63,0,0,0-.48-1.31,2.49,2.49,0,0,0-1.59-.4A14.68,14.68,0,0,0,398.48,139.27Zm4.93,3.26h-1.89a2.83,2.83,0,0,0-1.72.4,1.45,1.45,0,0,0-.53,1.22,1.35,1.35,0,0,0,.51,1.12,2.14,2.14,0,0,0,1.38.41,3.5,3.5,0,0,0,2.25-.76Z"/><path class="cls-6" d="M408.63,146.76H407v-9h1.62v1.44h0a5.57,5.57,0,0,1,1.49-1.16,4,4,0,0,1,1.89-.46v1.53a6.13,6.13,0,0,0-3.42,1Z"/><path class="cls-6" d="M415.29,134.51v2.26h-1.62v-2.26Zm0,3.25v9h-1.62v-9Z"/><path class="cls-6" d="M417.83,139.27l-.25-1.32a18.93,18.93,0,0,1,3.47-.37,4,4,0,0,1,2.52.64,2.85,2.85,0,0,1,.81,2.33v6.21h-1.62v-.9h0a4.14,4.14,0,0,1-2.85,1.08,2.92,2.92,0,0,1-2.1-.73,2.52,2.52,0,0,1-.78-1.92,2.31,2.31,0,0,1,1-2.09,5,5,0,0,1,2.75-.66h2v-.9a1.63,1.63,0,0,0-.48-1.31,2.49,2.49,0,0,0-1.59-.4A14.68,14.68,0,0,0,417.83,139.27Zm4.93,3.26h-1.89a2.83,2.83,0,0,0-1.72.4,1.45,1.45,0,0,0-.53,1.22,1.35,1.35,0,0,0,.51,1.12,2.14,2.14,0,0,0,1.38.41,3.5,3.5,0,0,0,2.25-.76Z"/><path class="cls-6" d="M432.43,146.24a3.88,3.88,0,0,1-2.47.7,15.92,15.92,0,0,1-3.87-.4l.29-1.31a14.25,14.25,0,0,0,3.4.41,2,2,0,0,0,1.49-.45,1.32,1.32,0,0,0,.4-.88,1,1,0,0,0-.44-.81,4,4,0,0,0-1.59-.54,6.26,6.26,0,0,1-2.5-.93,2.21,2.21,0,0,1-.87-1.93q0-2.52,3.33-2.52a14.59,14.59,0,0,1,3.6.41l-.3,1.3a13,13,0,0,0-3.21-.4,3.25,3.25,0,0,0-.95.13,1.23,1.23,0,0,0-.56.35,1.37,1.37,0,0,0-.22.37.71.71,0,0,0-.07.32,1,1,0,0,0,.4.81,3.76,3.76,0,0,0,1.53.56c.55.12,1,.24,1.35.35a5.26,5.26,0,0,1,1.06.49,2,2,0,0,1,.8.79,2.29,2.29,0,0,1,.26,1.14A2.47,2.47,0,0,1,432.43,146.24Z"/><circle class="cls-3" cx="29.6" cy="214.34" r="28"/><g id="Symbols-2" data-name="Symbols"><g id="Icons-_-01.-Material-_-02.-Outlined-_-Action-_-receipt" data-name="Icons-/-01.-Material-/-02.-Outlined-/-Action-/-receipt"><polygon id="Path-2" data-name="Path" class="cls-4" points="17.6 202.34 41.6 202.34 41.6 226.34 17.6 226.34 17.6 202.34"/><path id="Icon-Color-2" data-name="Icon-Color" class="cls-5" d="M37.1,205.84l-1.5-1.5-1.5,1.5-1.5-1.5-1.5,1.5-1.5-1.5-1.5,1.5-1.5-1.5-1.5,1.5-1.5-1.5-1.5,1.5-1.5-1.5v20l1.5-1.5,1.5,1.5,1.5-1.5,1.5,1.5,1.5-1.5,1.5,1.5,1.5-1.5,1.5,1.5,1.5-1.5,1.5,1.5,1.5-1.5,1.5,1.5v-20Zm-.5,15.5h-14v-14h14Zm-13-4h12v2h-12Zm0-4h12v2h-12Zm0-4h12v2h-12Z"/></g></g><path class="cls-6" d="M81.74,215.15V220H80V207.76h5a3.72,3.72,0,0,1,2.78,1,4.13,4.13,0,0,1,0,5.38,3.77,3.77,0,0,1-2.79,1Zm0-1.53h3.15a1.93,1.93,0,0,0,2.2-2.16,2.13,2.13,0,0,0-.59-1.6,2.21,2.21,0,0,0-1.61-.57H81.74Z"/><path class="cls-6" d="M90.41,212.52l-.25-1.32a19,19,0,0,1,3.48-.37,4,4,0,0,1,2.52.64A2.85,2.85,0,0,1,97,213.8V220H95.35v-.9h0a4.11,4.11,0,0,1-2.84,1.08,2.94,2.94,0,0,1-2.11-.73,2.52,2.52,0,0,1-.78-1.92,2.33,2.33,0,0,1,1-2.09,5.06,5.06,0,0,1,2.76-.66h2v-.9a1.63,1.63,0,0,0-.49-1.31,2.46,2.46,0,0,0-1.58-.4A14.77,14.77,0,0,0,90.41,212.52Zm4.94,3.26H93.46a2.86,2.86,0,0,0-1.73.4,1.45,1.45,0,0,0-.52,1.22,1.34,1.34,0,0,0,.5,1.12,2.17,2.17,0,0,0,1.39.41,3.54,3.54,0,0,0,2.25-.76Z"/><path class="cls-6" d="M99.83,219.41a1.2,1.2,0,0,1-.67-1.22,2.18,2.18,0,0,1,1.19-1.75v0a2.62,2.62,0,0,1-1.5-2.52,2.76,2.76,0,0,1,1-2.27,4.12,4.12,0,0,1,2.68-.79,4.56,4.56,0,0,1,1.22.18h3.19v1h-1.75a2.17,2.17,0,0,1,.89,1.89,2.62,2.62,0,0,1-1,2.21,4.07,4.07,0,0,1-2.57.76,4.14,4.14,0,0,1-1.31-.2,1.71,1.71,0,0,0-.36.52.93.93,0,0,0-.12.78.58.58,0,0,0,.6.41l3.24.2c1.76.12,2.63.81,2.63,2.07q0,3.15-5.22,3.15-3.69,0-3.69-2.34c0-.81.51-1.47,1.55-2Zm2.45,3.3a5.13,5.13,0,0,0,2.29-.45,1.42,1.42,0,0,0,.91-1.32c0-.66-.5-1-1.49-1.06l-3.33-.18a6.76,6.76,0,0,0-.54.43,1.66,1.66,0,0,0-.34.45,1.21,1.21,0,0,0-.15.6C99.63,222.2,100.51,222.71,102.28,222.71Zm1.74-7.44a1.77,1.77,0,0,0,.56-1.38,1.89,1.89,0,0,0-.57-1.44,2.08,2.08,0,0,0-1.5-.54,2.17,2.17,0,0,0-1.58.53,1.92,1.92,0,0,0-.54,1.45,1.73,1.73,0,0,0,.56,1.39,2.3,2.3,0,0,0,1.56.5A2.14,2.14,0,0,0,104,215.27Z"/><path class="cls-6" d="M108.67,212.52l-.26-1.32a19,19,0,0,1,3.48-.37,4,4,0,0,1,2.52.64,2.85,2.85,0,0,1,.81,2.33V220H113.6v-.9h0a4.11,4.11,0,0,1-2.84,1.08,2.94,2.94,0,0,1-2.11-.73,2.55,2.55,0,0,1-.77-1.92,2.32,2.32,0,0,1,1-2.09,5.08,5.08,0,0,1,2.76-.66h2v-.9a1.6,1.6,0,0,0-.49-1.31,2.46,2.46,0,0,0-1.58-.4A14.59,14.59,0,0,0,108.67,212.52Zm4.93,3.26h-1.89a2.86,2.86,0,0,0-1.73.4,1.45,1.45,0,0,0-.52,1.22,1.37,1.37,0,0,0,.5,1.12,2.17,2.17,0,0,0,1.39.41,3.54,3.54,0,0,0,2.25-.76Z"/><path class="cls-6" d="M121.16,212.18h-1.35v-1.07l1.35-.1.19-2.53h1.43V211h2.52v1.17h-2.52v4.95a2.12,2.12,0,0,0,.34,1.33,1.43,1.43,0,0,0,1.19.43,7.36,7.36,0,0,0,.92-.09l.16,1.26a10.37,10.37,0,0,1-1.62.13,2.65,2.65,0,0,1-2-.64,3.1,3.1,0,0,1-.6-2.15Z"/><path class="cls-6" d="M133.13,211h1.62v9h-1.62v-1.26h0a4.44,4.44,0,0,1-3.2,1.44,2.58,2.58,0,0,1-2-.77,3.17,3.17,0,0,1-.68-2.2V211h1.62v5.85q0,2,1.8,2a4.43,4.43,0,0,0,2.52-1Z"/><path class="cls-6" d="M142.79,219.49a3.83,3.83,0,0,1-2.46.7,15.81,15.81,0,0,1-3.87-.4l.28-1.31a14.34,14.34,0,0,0,3.41.41,1.94,1.94,0,0,0,1.48-.45,1.34,1.34,0,0,0,.41-.88,1,1,0,0,0-.44-.81,4.1,4.1,0,0,0-1.6-.54,6.32,6.32,0,0,1-2.5-.93,2.2,2.2,0,0,1-.86-1.93q0-2.52,3.33-2.52a14.7,14.7,0,0,1,3.6.41l-.31,1.3a12.81,12.81,0,0,0-3.2-.4,3.38,3.38,0,0,0-1,.13,1.28,1.28,0,0,0-.56.35,1.69,1.69,0,0,0-.22.37.87.87,0,0,0-.06.32,1,1,0,0,0,.39.81,3.89,3.89,0,0,0,1.53.56c.56.12,1,.24,1.35.35a5.33,5.33,0,0,1,1.07.49,2.09,2.09,0,0,1,.8.79,2.4,2.4,0,0,1,.26,1.14A2.47,2.47,0,0,1,142.79,219.49Z"/><path class="cls-6" d="M154.67,219.49a3.83,3.83,0,0,1-2.46.7,15.81,15.81,0,0,1-3.87-.4l.28-1.31a14.34,14.34,0,0,0,3.41.41,1.94,1.94,0,0,0,1.48-.45,1.34,1.34,0,0,0,.41-.88,1,1,0,0,0-.44-.81,4.1,4.1,0,0,0-1.6-.54,6.32,6.32,0,0,1-2.5-.93,2.2,2.2,0,0,1-.86-1.93q0-2.52,3.33-2.52a14.7,14.7,0,0,1,3.6.41l-.31,1.3a12.81,12.81,0,0,0-3.2-.4,3.38,3.38,0,0,0-1,.13,1.28,1.28,0,0,0-.56.35,1.69,1.69,0,0,0-.22.37.87.87,0,0,0-.06.32,1,1,0,0,0,.39.81,3.89,3.89,0,0,0,1.53.56c.56.12,1,.24,1.35.35a5.33,5.33,0,0,1,1.07.49,2.09,2.09,0,0,1,.8.79,2.4,2.4,0,0,1,.26,1.14A2.47,2.47,0,0,1,154.67,219.49Z"/><path class="cls-6" d="M158.81,215.78q.09,3.06,3,3.06a9.5,9.5,0,0,0,2.81-.36l.22,1.31a12.29,12.29,0,0,1-3.24.4q-4.5,0-4.5-4.68t4.41-4.68a3.11,3.11,0,0,1,3.6,3.13,8.4,8.4,0,0,1-.11,1.82Zm0-1h4.58a4.1,4.1,0,0,0,.05-.95,1.86,1.86,0,0,0-.55-1.24,2.12,2.12,0,0,0-1.5-.47C159.82,212.09,159,213,158.81,214.75Z"/><path class="cls-6" d="M168.41,220h-1.62v-9h1.62v1.44h0a5.47,5.47,0,0,1,1.5-1.16,4,4,0,0,1,1.89-.46v1.53a6.13,6.13,0,0,0-3.42,1Z"/><path class="cls-6" d="M176.51,220.1,173.18,211H175l2.52,7.27h0l2.54-7.27h1.73l-3.35,9.09Z"/><path class="cls-6" d="M185.15,207.76V210h-1.62v-2.26Zm0,3.25v9h-1.62v-9Z"/><path class="cls-6" d="M191.36,210.83a12.54,12.54,0,0,1,3.06.41l-.31,1.3a11.36,11.36,0,0,0-2.75-.36,2.38,2.38,0,0,0-2,.89,4,4,0,0,0-.66,2.44,4,4,0,0,0,.66,2.44,2.41,2.41,0,0,0,2,.89,11.36,11.36,0,0,0,2.75-.36l.31,1.31a12.37,12.37,0,0,1-3.06.4q-4.41,0-4.41-4.68T191.36,210.83Z"/><path class="cls-6" d="M197.39,207.76V210h-1.62v-2.26Zm0,3.25v9h-1.62v-9Z"/><path class="cls-6" d="M199.19,215.51q0-4.68,4.14-4.68t4.14,4.68q0,4.68-4.14,4.68T199.19,215.51Zm1.71,0q0,3.33,2.43,3.33t2.43-3.33q0-3.33-2.43-3.33T200.9,215.51Z"/><path class="cls-6" d="M215.33,219.49a3.83,3.83,0,0,1-2.46.7,15.81,15.81,0,0,1-3.87-.4l.29-1.31a14.19,14.19,0,0,0,3.4.41,1.94,1.94,0,0,0,1.48-.45,1.34,1.34,0,0,0,.41-.88,1,1,0,0,0-.44-.81,4.1,4.1,0,0,0-1.6-.54,6.32,6.32,0,0,1-2.5-.93,2.23,2.23,0,0,1-.86-1.93q0-2.52,3.33-2.52a14.7,14.7,0,0,1,3.6.41l-.31,1.3a12.81,12.81,0,0,0-3.2-.4,3.38,3.38,0,0,0-1,.13,1.19,1.19,0,0,0-.55.35,1.44,1.44,0,0,0-.23.37.87.87,0,0,0-.06.32,1,1,0,0,0,.39.81,3.89,3.89,0,0,0,1.53.56c.56.12,1,.24,1.35.35a5.33,5.33,0,0,1,1.07.49,2.09,2.09,0,0,1,.8.79,2.4,2.4,0,0,1,.26,1.14A2.47,2.47,0,0,1,215.33,219.49Z"/><path class="cls-6" d="M220.88,211h1.82l2.61,7.36h0l2.45-7.36h1.73l-3.39,9.54a5.88,5.88,0,0,1-1.45,2.49,3.19,3.19,0,0,1-2.18.75,6.72,6.72,0,0,1-1.35-.13l.14-1.35a5,5,0,0,0,.85.09c.94,0,1.69-.73,2.23-2.21Z"/><path class="cls-6" d="M236.81,211H239v1.17h-2.16V220h-1.62v-7.83h-1.35v-1.07l1.35-.1v-1.12a2.65,2.65,0,0,1,.57-1.9,2.84,2.84,0,0,1,2-.59,7.66,7.66,0,0,1,1.44.15l-.16,1.26a4.94,4.94,0,0,0-.92-.09,1.5,1.5,0,0,0-1.06.28,1.35,1.35,0,0,0-.29,1Z"/><path class="cls-6" d="M240.26,212.52,240,211.2a19,19,0,0,1,3.48-.37,4,4,0,0,1,2.52.64,2.85,2.85,0,0,1,.81,2.33V220H245.2v-.9h0a4.11,4.11,0,0,1-2.84,1.08,2.94,2.94,0,0,1-2.11-.73,2.51,2.51,0,0,1-.77-1.92,2.32,2.32,0,0,1,1-2.09,5.06,5.06,0,0,1,2.76-.66h2v-.9a1.6,1.6,0,0,0-.49-1.31,2.46,2.46,0,0,0-1.58-.4A14.77,14.77,0,0,0,240.26,212.52Zm4.94,3.26h-1.89a2.86,2.86,0,0,0-1.73.4,1.45,1.45,0,0,0-.52,1.22,1.34,1.34,0,0,0,.5,1.12,2.17,2.17,0,0,0,1.39.41,3.54,3.54,0,0,0,2.25-.76Z"/><path class="cls-6" d="M253,210.83a12.54,12.54,0,0,1,3.06.41l-.31,1.3a11.36,11.36,0,0,0-2.75-.36,2.37,2.37,0,0,0-2,.89,4,4,0,0,0-.66,2.44A4,4,0,0,0,251,218a2.39,2.39,0,0,0,2,.89,11.36,11.36,0,0,0,2.75-.36l.31,1.31a12.37,12.37,0,0,1-3.06.4c-2.95,0-4.41-1.56-4.41-4.68S250.08,210.83,253,210.83Z"/><path class="cls-6" d="M258.16,212.18H256.8v-1.07l1.36-.1.19-2.53h1.43V211h2.52v1.17h-2.52v4.95a2.12,2.12,0,0,0,.34,1.33,1.43,1.43,0,0,0,1.19.43,7.25,7.25,0,0,0,.91-.09l.17,1.26a10.37,10.37,0,0,1-1.62.13,2.65,2.65,0,0,1-2-.64,3.1,3.1,0,0,1-.6-2.15Z"/><path class="cls-6" d="M270.13,211h1.62v9h-1.62v-1.26h0a4.44,4.44,0,0,1-3.2,1.44,2.58,2.58,0,0,1-2-.77,3.17,3.17,0,0,1-.69-2.2V211h1.62v5.85c0,1.32.61,2,1.81,2a4.43,4.43,0,0,0,2.52-1Z"/><path class="cls-6" d="M275.34,220h-1.62v-9h1.62v1.44h0a5.47,5.47,0,0,1,1.5-1.16,3.94,3.94,0,0,1,1.89-.46v1.53a6.14,6.14,0,0,0-3.43,1Z"/><path class="cls-6" d="M279.79,212.52l-.25-1.32a18.93,18.93,0,0,1,3.47-.37,4,4,0,0,1,2.53.64,2.85,2.85,0,0,1,.81,2.33V220h-1.63v-.9h0a4.14,4.14,0,0,1-2.85,1.08,2.92,2.92,0,0,1-2.1-.73,2.52,2.52,0,0,1-.78-1.92,2.33,2.33,0,0,1,1-2.09,5,5,0,0,1,2.75-.66h2v-.9a1.63,1.63,0,0,0-.48-1.31,2.47,2.47,0,0,0-1.59-.4A14.68,14.68,0,0,0,279.79,212.52Zm4.93,3.26h-1.89a2.83,2.83,0,0,0-1.72.4,1.45,1.45,0,0,0-.53,1.22,1.35,1.35,0,0,0,.51,1.12,2.14,2.14,0,0,0,1.38.41,3.5,3.5,0,0,0,2.25-.76Z"/><path class="cls-6" d="M294.39,219.49a3.88,3.88,0,0,1-2.47.7,15.92,15.92,0,0,1-3.87-.4l.29-1.31a14.32,14.32,0,0,0,3.4.41,2,2,0,0,0,1.49-.45,1.32,1.32,0,0,0,.4-.88,1,1,0,0,0-.44-.81,4,4,0,0,0-1.59-.54,6.26,6.26,0,0,1-2.5-.93,2.21,2.21,0,0,1-.87-1.93q0-2.52,3.33-2.52a14.72,14.72,0,0,1,3.61.41l-.31,1.3a13,13,0,0,0-3.21-.4,3.25,3.25,0,0,0-.95.13,1.28,1.28,0,0,0-.56.35,1.37,1.37,0,0,0-.22.37.88.88,0,0,0-.07.32,1,1,0,0,0,.4.81,3.76,3.76,0,0,0,1.53.56c.55.12,1,.24,1.35.35a5.26,5.26,0,0,1,1.06.49,2,2,0,0,1,.8.79,2.29,2.29,0,0,1,.27,1.14A2.47,2.47,0,0,1,294.39,219.49Z"/><circle class="cls-3" cx="29.6" cy="278.39" r="28"/><g id="Symbols-3" data-name="Symbols"><g id="Icons-_-01.-Material-_-02.-Outlined-_-Editor-_-bar_chart" data-name="Icons-/-01.-Material-/-02.-Outlined-/-Editor-/-bar_chart"><polygon id="Path-3" data-name="Path" class="cls-4" points="17.6 266.39 41.6 266.39 41.6 290.39 17.6 290.39 17.6 266.39"/><path id="Icon-Color-3" data-name="Icon-Color" class="cls-5" d="M22.6,275.39h3v10h-3Zm5-4h3v14h-3v-14Zm6,8h3v6h-3Z"/></g></g><path class="cls-6" d="M87,281H82.33l-1,3.1h-1.8l4.21-12.33h2.11l4.12,12.33H88Zm-2.32-7.09-2,5.65h4l-1.92-5.65Z"/><path class="cls-6" d="M93.17,276h0A3.74,3.74,0,0,1,96,274.88q3.33,0,3.33,4.68a6.18,6.18,0,0,1-.82,3.4,2.85,2.85,0,0,1-2.6,1.28,4,4,0,0,1-2.76-1h0l-.29.9H91.55V271.46h1.62Zm2.16.27a3.27,3.27,0,0,0-2.16.77v5.14a3.38,3.38,0,0,0,2.16.75q2.25,0,2.25-3.33T95.33,276.23Z"/><path class="cls-6" d="M102.71,284.06h-1.62v-9h1.62v1.44h0a5.25,5.25,0,0,1,1.5-1.15,4,4,0,0,1,1.89-.47v1.53a6.21,6.21,0,0,0-3.42,1Z"/><path class="cls-6" d="M108.25,279.83q.09,3.06,3,3.06a9.5,9.5,0,0,0,2.81-.36l.22,1.32a12.73,12.73,0,0,1-3.24.39c-3,0-4.51-1.56-4.51-4.68s1.48-4.68,4.42-4.68a3.56,3.56,0,0,1,2.71.89,3.52,3.52,0,0,1,.89,2.24,9.06,9.06,0,0,1-.11,1.82Zm0-1h4.58a4.74,4.74,0,0,0,0-.95,1.85,1.85,0,0,0-.55-1.23,2.08,2.08,0,0,0-1.5-.48C109.25,276.14,108.4,277,108.25,278.8Z"/><path class="cls-6" d="M121.09,271.82v2.25h-1.63v-2.25Zm0,3.24v9h-1.63v-9Z"/><path class="cls-6" d="M124.69,284.06h-1.63v-9h1.63v1.26h0a4.53,4.53,0,0,1,3.21-1.44,2.55,2.55,0,0,1,2,.76,3.22,3.22,0,0,1,.69,2.21v6.21H129v-5.85q0-2-1.8-2a4.3,4.3,0,0,0-2.52,1Z"/><path class="cls-6" d="M135.05,284.15l-3.33-9.09h1.82l2.52,7.27h0l2.54-7.27h1.73L137,284.15Z"/><path class="cls-6" d="M142.63,279.83q.09,3.06,3,3.06a9.5,9.5,0,0,0,2.81-.36l.22,1.32a12.73,12.73,0,0,1-3.24.39q-4.5,0-4.5-4.68t4.41-4.68a3.56,3.56,0,0,1,2.71.89,3.52,3.52,0,0,1,.89,2.24,9.06,9.06,0,0,1-.11,1.82Zm0-1h4.58a4.1,4.1,0,0,0,0-.95,1.85,1.85,0,0,0-.55-1.23,2.08,2.08,0,0,0-1.5-.48C143.63,276.14,142.78,277,142.63,278.8Z"/><path class="cls-6" d="M152.23,284.06h-1.62v-9h1.62v1.44h0a5.25,5.25,0,0,1,1.5-1.15,4,4,0,0,1,1.89-.47v1.53a6.16,6.16,0,0,0-3.42,1Z"/><path class="cls-6" d="M163.33,283.54a3.78,3.78,0,0,1-2.46.7,16.37,16.37,0,0,1-3.87-.39l.28-1.32a13.85,13.85,0,0,0,3.41.42,1.94,1.94,0,0,0,1.48-.45,1.36,1.36,0,0,0,.41-.89,1,1,0,0,0-.44-.81,4.47,4.47,0,0,0-1.6-.54,6.33,6.33,0,0,1-2.5-.92,2.22,2.22,0,0,1-.86-1.94q0-2.52,3.33-2.52a15.2,15.2,0,0,1,3.6.41l-.31,1.3a13.3,13.3,0,0,0-3.2-.4,3,3,0,0,0-1,.14,1.19,1.19,0,0,0-.56.34,1.69,1.69,0,0,0-.22.37,1,1,0,0,0-.06.32,1,1,0,0,0,.39.81,3.73,3.73,0,0,0,1.53.56c.55.12,1,.24,1.35.35a6,6,0,0,1,1.07.49,2.09,2.09,0,0,1,.8.79,2.41,2.41,0,0,1,.26,1.15A2.47,2.47,0,0,1,163.33,283.54Z"/><path class="cls-6" d="M167.53,271.82v2.25h-1.62v-2.25Zm0,3.24v9h-1.62v-9Z"/><path class="cls-6" d="M169.33,279.56q0-4.68,4.14-4.68t4.14,4.68q0,4.68-4.14,4.68T169.33,279.56Zm1.71,0q0,3.33,2.43,3.33t2.43-3.33q0-3.33-2.43-3.33T171,279.56Z"/><path class="cls-6" d="M181,284.06h-1.62v-9H181v1.26h0a4.53,4.53,0,0,1,3.21-1.44,2.54,2.54,0,0,1,2,.76,3.22,3.22,0,0,1,.69,2.21v6.21h-1.62v-5.85q0-2-1.8-2a4.3,4.3,0,0,0-2.52,1Z"/><path class="cls-6" d="M190.51,279.83q.09,3.06,3,3.06a9.5,9.5,0,0,0,2.81-.36l.22,1.32a12.73,12.73,0,0,1-3.24.39q-4.5,0-4.5-4.68t4.41-4.68a3.56,3.56,0,0,1,2.71.89,3.52,3.52,0,0,1,.89,2.24,9.06,9.06,0,0,1-.11,1.82Zm0-1h4.58a4.1,4.1,0,0,0,0-.95,1.85,1.85,0,0,0-.55-1.23,2.08,2.08,0,0,0-1.5-.48C191.51,276.14,190.66,277,190.51,278.8Z"/><path class="cls-6" d="M204.55,283.54a3.78,3.78,0,0,1-2.46.7,16.37,16.37,0,0,1-3.87-.39l.28-1.32a13.85,13.85,0,0,0,3.41.42,1.94,1.94,0,0,0,1.48-.45,1.36,1.36,0,0,0,.41-.89,1,1,0,0,0-.44-.81,4.47,4.47,0,0,0-1.6-.54,6.33,6.33,0,0,1-2.5-.92,2.22,2.22,0,0,1-.86-1.94q0-2.52,3.33-2.52a15.2,15.2,0,0,1,3.6.41l-.31,1.3a13.3,13.3,0,0,0-3.2-.4,3,3,0,0,0-1,.14,1.19,1.19,0,0,0-.56.34,1.69,1.69,0,0,0-.22.37,1,1,0,0,0-.06.32,1,1,0,0,0,.39.81,3.73,3.73,0,0,0,1.53.56c.56.12,1,.24,1.35.35a6,6,0,0,1,1.07.49,2.09,2.09,0,0,1,.8.79,2.41,2.41,0,0,1,.26,1.15A2.47,2.47,0,0,1,204.55,283.54Z"/><path class="cls-6" d="M216.31,283.16h0a3.79,3.79,0,0,1-2.75,1.08q-3.33,0-3.33-4.68a6.27,6.27,0,0,1,.81-3.4,2.89,2.89,0,0,1,2.61-1.28,3.71,3.71,0,0,1,2.66,1h0v-4.46h1.62v12.6h-1.62Zm-2.16-.27a3.5,3.5,0,0,0,2.16-.75V277a3.38,3.38,0,0,0-2.16-.77q-2.25,0-2.25,3.33T214.15,282.89Z"/><path class="cls-6" d="M221.47,279.83q.09,3.06,3,3.06a9.5,9.5,0,0,0,2.81-.36l.22,1.32a12.73,12.73,0,0,1-3.24.39q-4.5,0-4.5-4.68t4.41-4.68a3.56,3.56,0,0,1,2.71.89,3.52,3.52,0,0,1,.89,2.24,9.06,9.06,0,0,1-.11,1.82Zm0-1H226a3.67,3.67,0,0,0,.06-.95,1.85,1.85,0,0,0-.55-1.23,2.08,2.08,0,0,0-1.5-.48C222.47,276.14,221.62,277,221.47,278.8Z"/><path class="cls-6" d="M235.51,283.54a3.78,3.78,0,0,1-2.46.7,16.37,16.37,0,0,1-3.87-.39l.28-1.32a13.85,13.85,0,0,0,3.41.42,1.94,1.94,0,0,0,1.48-.45,1.36,1.36,0,0,0,.41-.89,1,1,0,0,0-.44-.81,4.47,4.47,0,0,0-1.6-.54,6.33,6.33,0,0,1-2.5-.92,2.22,2.22,0,0,1-.86-1.94q0-2.52,3.33-2.52a15.2,15.2,0,0,1,3.6.41l-.31,1.3a13.36,13.36,0,0,0-3.2-.4,3,3,0,0,0-1,.14,1.19,1.19,0,0,0-.56.34,1.69,1.69,0,0,0-.22.37,1,1,0,0,0-.06.32,1,1,0,0,0,.39.81,3.73,3.73,0,0,0,1.53.56c.55.12,1,.24,1.35.35a6,6,0,0,1,1.07.49,2.17,2.17,0,0,1,.8.79,2.41,2.41,0,0,1,.26,1.15A2.47,2.47,0,0,1,235.51,283.54Z"/><path class="cls-6" d="M244,283.16h0a3.79,3.79,0,0,1-2.75,1.08q-3.33,0-3.33-4.68a6.27,6.27,0,0,1,.81-3.4,2.89,2.89,0,0,1,2.61-1.28,3.71,3.71,0,0,1,2.66,1h0v-4.46h1.62v12.6H244Zm-2.16-.27a3.5,3.5,0,0,0,2.16-.75V277a3.38,3.38,0,0,0-2.16-.77q-2.25,0-2.25,3.33T241.87,282.89Z"/><path class="cls-6" d="M249.19,279.83q.09,3.06,3,3.06a9.5,9.5,0,0,0,2.81-.36l.22,1.32a12.73,12.73,0,0,1-3.24.39q-4.5,0-4.5-4.68t4.41-4.68a3.56,3.56,0,0,1,2.71.89,3.52,3.52,0,0,1,.89,2.24,9.06,9.06,0,0,1-.11,1.82Zm0-1h4.57a3.67,3.67,0,0,0,.06-.95,1.85,1.85,0,0,0-.55-1.23,2.08,2.08,0,0,0-1.5-.48C250.19,276.14,249.34,277,249.19,278.8Z"/><path class="cls-6" d="M264.49,285.86v-1.62a15.59,15.59,0,0,1-4.08-.63l.28-1.44a16.5,16.5,0,0,0,4.13.54,2.9,2.9,0,0,0,2-.57,1.77,1.77,0,0,0,.65-1.39,1.33,1.33,0,0,0-.07-.45,1.06,1.06,0,0,0-.21-.39l-.28-.31a1,1,0,0,0-.39-.27l-.4-.21a3.15,3.15,0,0,0-.47-.19l-.44-.14-.45-.12-.37-.1q-3.77-1-3.77-3.69a2.76,2.76,0,0,1,1.08-2.38,4.85,4.85,0,0,1,2.83-.84V270h.72v1.64a16,16,0,0,1,3.75.61l-.4,1.44a15.91,15.91,0,0,0-3.74-.54,2.84,2.84,0,0,0-1.88.49,1.63,1.63,0,0,0-.55,1.27,1.37,1.37,0,0,0,.14.64,1.44,1.44,0,0,0,.44.52c.2.14.39.27.56.37a3.24,3.24,0,0,0,.71.31c.3.1.52.16.67.2l.63.16q3.69.87,3.69,3.51a3.16,3.16,0,0,1-1.11,2.58,4.64,4.64,0,0,1-2.91,1v1.64Z"/><path class="cls-6" d="M271.21,283.34l.48-1.24a7.57,7.57,0,0,0,3.3.79,2.79,2.79,0,0,0,2-.73,2.61,2.61,0,0,0,.75-2,2.92,2.92,0,0,0-.58-1.8,2.18,2.18,0,0,0-1.85-.76,2.84,2.84,0,0,0-2.34,1.19l-1.19-.11.29-6.89h6.66v1.44h-5.26l-.25,4.1,0,0a3.7,3.7,0,0,1,5.23-.13,4.63,4.63,0,0,1-.21,5.92,4.66,4.66,0,0,1-3.23,1.07A8.78,8.78,0,0,1,271.21,283.34Z"/><path class="cls-6" d="M283.65,283.75a3.27,3.27,0,0,1-1.33-1.42,7.13,7.13,0,0,1-.66-2,13.9,13.9,0,0,1-.2-2.48,13.36,13.36,0,0,1,.2-2.42,7,7,0,0,1,.66-1.95,3.18,3.18,0,0,1,1.33-1.36,5,5,0,0,1,4.27,0,3.12,3.12,0,0,1,1.33,1.36,7,7,0,0,1,.66,1.95,13.36,13.36,0,0,1,.2,2.42,13.9,13.9,0,0,1-.2,2.48,7.13,7.13,0,0,1-.66,2,3.18,3.18,0,0,1-1.34,1.42,4.87,4.87,0,0,1-4.26,0Zm.83-10.38a2.28,2.28,0,0,0-.8,1.09,7.2,7.2,0,0,0-.39,1.52,13,13,0,0,0-.11,1.87q0,5,2.61,5t2.61-5q0-4.86-2.61-4.86A2.21,2.21,0,0,0,284.48,273.37Z"/><path class="cls-6" d="M294.27,283.75a3.27,3.27,0,0,1-1.33-1.42,7.46,7.46,0,0,1-.66-2,13.9,13.9,0,0,1-.2-2.48,13.36,13.36,0,0,1,.2-2.42,7.35,7.35,0,0,1,.66-1.95,3.18,3.18,0,0,1,1.33-1.36,5,5,0,0,1,4.27,0,3.12,3.12,0,0,1,1.33,1.36,7,7,0,0,1,.66,1.95,13.36,13.36,0,0,1,.2,2.42,13.9,13.9,0,0,1-.2,2.48,7.13,7.13,0,0,1-.66,2,3.18,3.18,0,0,1-1.34,1.42,4.87,4.87,0,0,1-4.26,0Zm.83-10.38a2.28,2.28,0,0,0-.8,1.09,7.2,7.2,0,0,0-.39,1.52,13,13,0,0,0-.11,1.87q0,5,2.61,5t2.61-5q0-4.86-2.61-4.86A2.23,2.23,0,0,0,295.1,273.37Z"/><circle class="cls-3" cx="29.6" cy="355.09" r="28"/><g id="Symbols-4" data-name="Symbols"><g id="Icons-_-01.-Material-_-02.-Outlined-_-Social-_-plus_one" data-name="Icons-/-01.-Material-/-02.-Outlined-/-Social-/-plus_one"><polygon id="Path-4" data-name="Path" class="cls-4" points="17.6 343.09 41.6 343.09 41.6 367.09 17.6 367.09 17.6 343.09"/><path id="Icon-Color-4" data-name="Icon-Color" class="cls-5" d="M27.6,351.09h-2v4h-4v2h4v4h2v-4h4v-2h-4Zm4-2.35v1.82l3-.5v11h2V347.66Z"/></g></g><path class="cls-6" d="M79.85,360.31l.29-1.44a17.75,17.75,0,0,0,4.12.54,3,3,0,0,0,1.94-.56,1.71,1.71,0,0,0,.67-1.37,1.65,1.65,0,0,0-.23-.86,1.93,1.93,0,0,0-.72-.62,6.21,6.21,0,0,0-.84-.37l-1-.29-.27-.07a6.6,6.6,0,0,1-2.73-1.35,2.94,2.94,0,0,1-1-2.34,2.74,2.74,0,0,1,1.17-2.45,5.35,5.35,0,0,1,3.06-.8,14.67,14.67,0,0,1,4.14.63L88,350.4a16.26,16.26,0,0,0-3.74-.53,2.91,2.91,0,0,0-1.85.48,1.57,1.57,0,0,0-.58,1.28,1.43,1.43,0,0,0,.28.87,2,2,0,0,0,.81.64,6.93,6.93,0,0,0,1,.39c.29.09.65.19,1.1.3q3.69.84,3.69,3.51A3.16,3.16,0,0,1,87.45,360a5.16,5.16,0,0,1-3.19.92A15.57,15.57,0,0,1,79.85,360.31Z"/><path class="cls-6" d="M90.47,356.26q0-4.68,4.14-4.68t4.14,4.68q0,4.68-4.14,4.68T90.47,356.26Zm1.71,0q0,3.33,2.43,3.33T97,356.26q0-3.33-2.43-3.33T92.18,356.26Z"/><path class="cls-6" d="M100.55,348.15h1.62v12.61h-1.62Z"/><path class="cls-6" d="M105.77,348.51v2.25h-1.62v-2.25Zm0,3.25v9h-1.62v-9Z"/><path class="cls-6" d="M112,351.58A12.48,12.48,0,0,1,115,352l-.31,1.3a10.89,10.89,0,0,0-2.75-.36,2.38,2.38,0,0,0-2,.89,4,4,0,0,0-.66,2.44,4,4,0,0,0,.66,2.44,2.41,2.41,0,0,0,2,.89,11.36,11.36,0,0,0,2.75-.36l.31,1.31a12.37,12.37,0,0,1-3.06.4q-4.41,0-4.41-4.68T112,351.58Z"/><path class="cls-6" d="M118,348.51v2.25h-1.62v-2.25Zm0,3.25v9h-1.62v-9Z"/><path class="cls-6" d="M120.71,352.93h-1.35v-1.07l1.35-.1.2-2.53h1.42v2.53h2.52v1.17h-2.52v4.95a2.12,2.12,0,0,0,.34,1.33,1.43,1.43,0,0,0,1.19.43,7.36,7.36,0,0,0,.92-.09l.16,1.26a10.37,10.37,0,0,1-1.62.13,2.69,2.69,0,0,1-2-.64,3.1,3.1,0,0,1-.6-2.15Z"/><path class="cls-6" d="M127.3,353.27,127,352a19,19,0,0,1,3.48-.37,4,4,0,0,1,2.52.64,2.85,2.85,0,0,1,.81,2.33v6.21h-1.62v-.9h0a4.11,4.11,0,0,1-2.84,1.08,2.94,2.94,0,0,1-2.11-.73,2.55,2.55,0,0,1-.77-1.92,2.32,2.32,0,0,1,1-2.09,5.08,5.08,0,0,1,2.76-.66h2v-.9a1.6,1.6,0,0,0-.49-1.31,2.46,2.46,0,0,0-1.58-.4A14.59,14.59,0,0,0,127.3,353.27Zm4.93,3.26h-1.89a2.86,2.86,0,0,0-1.73.4,1.45,1.45,0,0,0-.52,1.22,1.37,1.37,0,0,0,.5,1.12,2.17,2.17,0,0,0,1.39.41,3.54,3.54,0,0,0,2.25-.76Z"/><path class="cls-6" d="M140.69,360.76h-1.62v-9h1.62V353h0a4.51,4.51,0,0,1,3.21-1.44,2.54,2.54,0,0,1,2,.76,3.2,3.2,0,0,1,.69,2.21v6.21H145v-5.85q0-2-1.8-2a4.24,4.24,0,0,0-2.52,1Z"/><path class="cls-6" d="M154.55,351.76h1.62v9h-1.62V359.5h0a4.44,4.44,0,0,1-3.2,1.44,2.58,2.58,0,0,1-2-.77,3.17,3.17,0,0,1-.68-2.2v-6.21h1.62v5.85q0,2,1.8,2a4.43,4.43,0,0,0,2.52-1Z"/><path class="cls-6" d="M159.71,356.53q.09,3.06,3,3.06a9.46,9.46,0,0,0,2.81-.36l.22,1.31a12.24,12.24,0,0,1-3.24.4q-4.5,0-4.5-4.68t4.41-4.68a3.11,3.11,0,0,1,3.6,3.13,8.4,8.4,0,0,1-.11,1.82Zm0-1h4.58a4.1,4.1,0,0,0,.05-.95,1.86,1.86,0,0,0-.55-1.24,2.08,2.08,0,0,0-1.5-.47C160.72,352.84,159.86,353.72,159.71,355.5Z"/><path class="cls-6" d="M170.17,360.85l-3.33-9.09h1.82l2.52,7.27h0l2.53-7.27h1.73l-3.35,9.09Z"/><path class="cls-6" d="M176,356.26q0-4.68,4.14-4.68t4.15,4.68q0,4.68-4.15,4.68T176,356.26Zm1.71,0q0,3.33,2.43,3.33c1.62,0,2.44-1.11,2.44-3.33s-.82-3.33-2.44-3.33S177.71,354,177.71,356.26Z"/><path class="cls-6" d="M192.15,360.24a3.88,3.88,0,0,1-2.47.7,15.92,15.92,0,0,1-3.87-.4l.29-1.31a14.32,14.32,0,0,0,3.4.41,2,2,0,0,0,1.49-.45,1.32,1.32,0,0,0,.4-.88.94.94,0,0,0-.44-.81,4,4,0,0,0-1.59-.54,6.26,6.26,0,0,1-2.5-.93,2.21,2.21,0,0,1-.87-1.93q0-2.52,3.33-2.52a14.72,14.72,0,0,1,3.61.41l-.31,1.3a13,13,0,0,0-3.21-.4,3,3,0,0,0-.95.13,1.28,1.28,0,0,0-.56.35,1.24,1.24,0,0,0-.22.37.71.71,0,0,0-.07.32,1,1,0,0,0,.4.81,3.76,3.76,0,0,0,1.53.56c.55.12,1,.24,1.35.35a4.76,4.76,0,0,1,1.06.49,2,2,0,0,1,.8.79,2.29,2.29,0,0,1,.27,1.14A2.47,2.47,0,0,1,192.15,360.24Z"/><path class="cls-6" d="M199.58,352.66h0a3.73,3.73,0,0,1,2.75-1.08c2.22,0,3.34,1.56,3.34,4.68a6.29,6.29,0,0,1-.82,3.4,2.89,2.89,0,0,1-2.61,1.28,3.57,3.57,0,0,1-2.66-1h0v4.45H198v-12.6h1.62Zm2.16.27a3.25,3.25,0,0,0-2.16.77v5.13a3.37,3.37,0,0,0,2.16.76q2.25,0,2.25-3.33T201.74,352.93Z"/><path class="cls-6" d="M209.12,360.76H207.5v-9h1.62v1.44h0a5.57,5.57,0,0,1,1.49-1.16,4,4,0,0,1,1.89-.46v1.53a6.13,6.13,0,0,0-3.42,1Z"/><path class="cls-6" d="M212.92,356.26q0-4.68,4.14-4.68t4.14,4.68q0,4.68-4.14,4.68T212.92,356.26Zm1.71,0q0,3.33,2.43,3.33t2.43-3.33q0-3.33-2.43-3.33T214.63,356.26Z"/><path class="cls-6" d="M228.94,359.86h0a3.83,3.83,0,0,1-2.76,1.08q-3.33,0-3.33-4.68a6.24,6.24,0,0,1,.82-3.41,2.86,2.86,0,0,1,2.6-1.27,3.67,3.67,0,0,1,2.67,1h0v-4.47h1.62v12.61h-1.62Zm-2.16-.27a3.45,3.45,0,0,0,2.16-.76V353.7a3.29,3.29,0,0,0-2.16-.77q-2.25,0-2.25,3.33T226.78,359.59Z"/><path class="cls-6" d="M238.48,351.76h1.62v9h-1.62V359.5h0a4.45,4.45,0,0,1-3.21,1.44,2.54,2.54,0,0,1-2-.77,3.17,3.17,0,0,1-.69-2.2v-6.21h1.62v5.85q0,2,1.8,2a4.38,4.38,0,0,0,2.52-1Z"/><path class="cls-6" d="M246.31,351.58a12.42,12.42,0,0,1,3.06.41l-.3,1.3a10.91,10.91,0,0,0-2.76-.36,2.35,2.35,0,0,0-2,.89,3.93,3.93,0,0,0-.67,2.44,4,4,0,0,0,.67,2.44,2.37,2.37,0,0,0,2,.89,11.38,11.38,0,0,0,2.76-.36l.3,1.31a12.25,12.25,0,0,1-3.06.4q-4.41,0-4.41-4.68T246.31,351.58Z"/><path class="cls-6" d="M251.44,352.93h-1.35v-1.07l1.35-.1.2-2.53h1.42v2.53h2.52v1.17h-2.52v4.95a2.18,2.18,0,0,0,.34,1.33,1.44,1.44,0,0,0,1.19.43,7.36,7.36,0,0,0,.92-.09l.16,1.26a10.19,10.19,0,0,1-1.62.13,2.72,2.72,0,0,1-2-.64,3.1,3.1,0,0,1-.6-2.15Z"/><path class="cls-6" d="M256.41,356.26q0-4.68,4.14-4.68t4.14,4.68q0,4.68-4.14,4.68T256.41,356.26Zm1.71,0q0,3.33,2.43,3.33t2.43-3.33q0-3.33-2.43-3.33T258.12,356.26Z"/><path class="cls-6" d="M272.56,360.24a3.88,3.88,0,0,1-2.47.7,15.87,15.87,0,0,1-3.87-.4l.29-1.31a14.25,14.25,0,0,0,3.4.41,1.94,1.94,0,0,0,1.48-.45,1.29,1.29,0,0,0,.41-.88,1,1,0,0,0-.44-.81,4.11,4.11,0,0,0-1.59-.54,6.31,6.31,0,0,1-2.51-.93,2.23,2.23,0,0,1-.86-1.93q0-2.52,3.33-2.52a14.59,14.59,0,0,1,3.6.41l-.31,1.3a12.81,12.81,0,0,0-3.2-.4,3,3,0,0,0-.95.13,1.23,1.23,0,0,0-.56.35,1.29,1.29,0,0,0-.23.37.87.87,0,0,0-.06.32,1,1,0,0,0,.4.81,3.76,3.76,0,0,0,1.53.56c.55.12,1,.24,1.35.35a5,5,0,0,1,1.06.49,2,2,0,0,1,.8.79,2.4,2.4,0,0,1,.26,1.14A2.5,2.5,0,0,1,272.56,360.24Z"/><circle class="cls-3" cx="29.6" cy="426.59" r="28"/><g id="Symbols-5" data-name="Symbols"><g id="Icons-_-01.-Material-_-02.-Outlined-_-Device-_-widgets" data-name="Icons-/-01.-Material-/-02.-Outlined-/-Device-/-widgets"><polygon id="Path-5" data-name="Path" class="cls-4" points="17.6 414.59 41.6 414.59 41.6 438.59 17.6 438.59 17.6 414.59"/><path id="Icon-Color-5" data-name="Icon-Color" class="cls-5" d="M34.19,419.32,37,422.15,34.19,425l-2.83-2.83,2.83-2.83Zm-7.59.27v4h-4v-4Zm10,10v4h-4v-4Zm-10,0v4h-4v-4Zm7.59-13.1-5.66,5.65,5.66,5.66,5.66-5.66Zm-5.59,1.1h-8v8h8Zm10,10h-8v8h8Zm-10,0h-8v8h8Z"/></g></g><path class="cls-6" d="M84.49,426.19l3-6.18h1.87l-4.11,7.93v4.32H83.57v-4.32L79.49,420h1.94l3,6.18Z"/><path class="cls-6" d="M95.87,432.26H94.25v-9h1.62v1.26h0a4,4,0,0,1,2.94-1.44,2.32,2.32,0,0,1,2.46,1.58,4.27,4.27,0,0,1,3.21-1.58,2.57,2.57,0,0,1,2,.76,3.25,3.25,0,0,1,.68,2.21v6.21h-1.62v-5.85q0-2-1.8-2a4.13,4.13,0,0,0-2.31,1.06,7.31,7.31,0,0,1,.06,1v5.78H99.92v-5.91q-.06-1.92-1.8-1.92a2.31,2.31,0,0,0-.9.19,4.92,4.92,0,0,0-.71.37l-.64.48Z"/><path class="cls-6" d="M115.13,423.26h1.62v9h-1.62V431h0a4.44,4.44,0,0,1-3.2,1.44,2.58,2.58,0,0,1-2-.77,3.17,3.17,0,0,1-.68-2.2v-6.21h1.62v5.85q0,2,1.8,2a4.43,4.43,0,0,0,2.52-1Z"/><path class="cls-6" d="M123,423.08a12.54,12.54,0,0,1,3.06.41l-.31,1.3a10.89,10.89,0,0,0-2.75-.36,2.38,2.38,0,0,0-2,.89,4,4,0,0,0-.66,2.44,4,4,0,0,0,.66,2.44,2.41,2.41,0,0,0,2,.89,11.36,11.36,0,0,0,2.75-.36L126,432a12.37,12.37,0,0,1-3.06.4q-4.41,0-4.41-4.68T123,423.08Z"/><path class="cls-6" d="M129,432.26h-1.62V419.65H129v4.87h0a4.51,4.51,0,0,1,3.21-1.44,2.54,2.54,0,0,1,2,.76,3.2,3.2,0,0,1,.69,2.21v6.21h-1.62v-5.85q0-2-1.8-2a4.24,4.24,0,0,0-2.52,1Z"/><path class="cls-6" d="M136.73,427.76q0-4.68,4.14-4.68t4.14,4.68q0,4.68-4.14,4.68T136.73,427.76Zm1.71,0q0,3.33,2.43,3.33t2.43-3.33q0-3.33-2.43-3.33T138.44,427.76Z"/><path class="cls-6" d="M152.87,431.74a3.83,3.83,0,0,1-2.46.7,15.81,15.81,0,0,1-3.87-.4l.28-1.31a14.34,14.34,0,0,0,3.41.41,1.94,1.94,0,0,0,1.48-.45,1.34,1.34,0,0,0,.41-.88,1,1,0,0,0-.44-.81,4.1,4.1,0,0,0-1.6-.54,6.32,6.32,0,0,1-2.5-.93,2.2,2.2,0,0,1-.86-1.93q0-2.52,3.33-2.52a14.7,14.7,0,0,1,3.6.41l-.31,1.3a12.81,12.81,0,0,0-3.2-.4,3.05,3.05,0,0,0-1,.13,1.28,1.28,0,0,0-.56.35,1.49,1.49,0,0,0-.22.37.87.87,0,0,0-.06.32,1,1,0,0,0,.39.81,3.89,3.89,0,0,0,1.53.56c.56.12,1,.24,1.35.35a4.83,4.83,0,0,1,1.07.49,2.09,2.09,0,0,1,.8.79,2.4,2.4,0,0,1,.26,1.14A2.47,2.47,0,0,1,152.87,431.74Z"/><path class="cls-6" d="M160.31,432.26h-1.62v-9h1.62v1.26h0a4,4,0,0,1,2.94-1.44,2.32,2.32,0,0,1,2.46,1.58,4.27,4.27,0,0,1,3.21-1.58,2.57,2.57,0,0,1,2,.76,3.25,3.25,0,0,1,.68,2.21v6.21H170v-5.85q0-2-1.8-2a4.13,4.13,0,0,0-2.31,1.06,7.31,7.31,0,0,1,.06,1v5.78h-1.62v-5.91q-.06-1.92-1.8-1.92a2.31,2.31,0,0,0-.9.19,4.92,4.92,0,0,0-.71.37l-.64.48Z"/><path class="cls-6" d="M174.18,424.77l-.25-1.32a19,19,0,0,1,3.48-.37,4,4,0,0,1,2.52.64,2.85,2.85,0,0,1,.81,2.33v6.21h-1.62v-.9h0a4.11,4.11,0,0,1-2.84,1.08,2.94,2.94,0,0,1-2.11-.73,2.51,2.51,0,0,1-.77-1.92,2.32,2.32,0,0,1,1-2.09,5.08,5.08,0,0,1,2.76-.66h2v-.9a1.6,1.6,0,0,0-.49-1.31,2.46,2.46,0,0,0-1.58-.4A14.77,14.77,0,0,0,174.18,424.77Zm4.94,3.26h-1.89a2.86,2.86,0,0,0-1.73.4,1.45,1.45,0,0,0-.52,1.22,1.37,1.37,0,0,0,.5,1.12,2.17,2.17,0,0,0,1.39.41,3.54,3.54,0,0,0,2.25-.76Zm-1.42-5.86h-.9l1.08-2.16h1.35Z"/><path class="cls-6" d="M188.78,431.74a3.83,3.83,0,0,1-2.46.7,15.81,15.81,0,0,1-3.87-.4l.28-1.31a14.34,14.34,0,0,0,3.41.41,1.94,1.94,0,0,0,1.48-.45,1.34,1.34,0,0,0,.41-.88,1,1,0,0,0-.44-.81,4.1,4.1,0,0,0-1.6-.54,6.32,6.32,0,0,1-2.5-.93,2.2,2.2,0,0,1-.86-1.93q0-2.52,3.33-2.52a14.7,14.7,0,0,1,3.6.41l-.31,1.3a12.81,12.81,0,0,0-3.2-.4,3.05,3.05,0,0,0-1,.13,1.19,1.19,0,0,0-.55.35,1.29,1.29,0,0,0-.23.37.87.87,0,0,0-.06.32,1,1,0,0,0,.39.81,3.89,3.89,0,0,0,1.53.56c.56.12,1,.24,1.35.35a4.83,4.83,0,0,1,1.07.49,2.09,2.09,0,0,1,.8.79,2.4,2.4,0,0,1,.26,1.14A2.47,2.47,0,0,1,188.78,431.74Z"/><path class="cls-6" d="M200.66,431.74a3.83,3.83,0,0,1-2.46.7,15.81,15.81,0,0,1-3.87-.4l.28-1.31a14.34,14.34,0,0,0,3.41.41,1.94,1.94,0,0,0,1.48-.45,1.34,1.34,0,0,0,.41-.88,1,1,0,0,0-.44-.81,4.1,4.1,0,0,0-1.6-.54,6.32,6.32,0,0,1-2.5-.93,2.2,2.2,0,0,1-.86-1.93q0-2.52,3.33-2.52a14.7,14.7,0,0,1,3.6.41l-.31,1.3a12.81,12.81,0,0,0-3.2-.4,3.05,3.05,0,0,0-1,.13,1.19,1.19,0,0,0-.55.35,1.29,1.29,0,0,0-.23.37.87.87,0,0,0-.06.32,1,1,0,0,0,.39.81,3.89,3.89,0,0,0,1.53.56c.56.12,1,.24,1.35.35a4.83,4.83,0,0,1,1.07.49,2.09,2.09,0,0,1,.8.79,2.4,2.4,0,0,1,.26,1.14A2.47,2.47,0,0,1,200.66,431.74Z"/><path class="cls-6" d="M204.8,428q.09,3.06,3,3.06a9.5,9.5,0,0,0,2.81-.36l.22,1.31a12.29,12.29,0,0,1-3.24.4q-4.5,0-4.5-4.68t4.41-4.68a3.11,3.11,0,0,1,3.6,3.13A9.09,9.09,0,0,1,211,428Zm0-1h4.58a4.1,4.1,0,0,0,.05-.95,1.86,1.86,0,0,0-.55-1.24,2.08,2.08,0,0,0-1.5-.47C205.81,424.34,205,425.22,204.8,427Z"/><path class="cls-6" d="M214.4,432.26h-1.62v-9h1.62v1.44h0a5.47,5.47,0,0,1,1.5-1.16,4,4,0,0,1,1.89-.46v1.53a6.13,6.13,0,0,0-3.42,1Z"/><path class="cls-6" d="M222.5,432.35l-3.33-9.09H221l2.52,7.27h0l2.54-7.27h1.73l-3.35,9.09Z"/><path class="cls-6" d="M231.14,420v2.25h-1.62V420Zm0,3.25v9h-1.62v-9Z"/><path class="cls-6" d="M237.35,423.08a12.54,12.54,0,0,1,3.06.41l-.31,1.3a10.89,10.89,0,0,0-2.75-.36,2.38,2.38,0,0,0-2,.89,4,4,0,0,0-.66,2.44,4,4,0,0,0,.66,2.44,2.41,2.41,0,0,0,2,.89,11.36,11.36,0,0,0,2.75-.36l.31,1.31a12.37,12.37,0,0,1-3.06.4q-4.41,0-4.41-4.68T237.35,423.08Z"/><path class="cls-6" d="M243.38,420v2.25h-1.62V420Zm0,3.25v9h-1.62v-9Z"/><path class="cls-6" d="M245.18,427.76q0-4.68,4.14-4.68t4.14,4.68q0,4.68-4.14,4.68T245.18,427.76Zm1.71,0q0,3.33,2.43,3.33t2.43-3.33q0-3.33-2.43-3.33T246.89,427.76Z"/><path class="cls-6" d="M261.32,431.74a3.85,3.85,0,0,1-2.46.7A16,16,0,0,1,255,432l.29-1.31a14.34,14.34,0,0,0,3.41.41,1.94,1.94,0,0,0,1.48-.45,1.34,1.34,0,0,0,.41-.88,1,1,0,0,0-.45-.81,4,4,0,0,0-1.59-.54,6.32,6.32,0,0,1-2.5-.93,2.2,2.2,0,0,1-.86-1.93q0-2.52,3.33-2.52a14.7,14.7,0,0,1,3.6.41l-.31,1.3a12.87,12.87,0,0,0-3.2-.4,3,3,0,0,0-1,.13,1.28,1.28,0,0,0-.56.35,1.49,1.49,0,0,0-.22.37.87.87,0,0,0-.06.32,1,1,0,0,0,.39.81,3.89,3.89,0,0,0,1.53.56c.55.12,1,.24,1.35.35a4.76,4.76,0,0,1,1.06.49,2.12,2.12,0,0,1,.81.79,2.4,2.4,0,0,1,.26,1.14A2.47,2.47,0,0,1,261.32,431.74Z"/><line class="cls-7" x1="3.5" y1="70" x2="108.5" y2="70"/></svg>