<svg id="Capa_1" data-name="Capa 1" xmlns="http://www.w3.org/2000/svg" viewBox="0 0 336 47"><defs><style>.cls-1{fill:#2f7abf;}.cls-2{fill:#4a4a4a;}</style></defs><path class="cls-1" d="M17.67,21.13v5.95h-.94V21.13H14.86v-.85h4.69v.85Z"/><path class="cls-1" d="M19.82,24.73c0,1.13.58,1.7,1.65,1.7a5.31,5.31,0,0,0,1.55-.2l.12.73a7.13,7.13,0,0,1-1.79.22c-1.67,0-2.5-.87-2.5-2.6S19.66,22,21.3,22a2,2,0,0,1,1.5.49,1.92,1.92,0,0,1,.49,1.25,4.88,4.88,0,0,1-.06,1Zm0-.57h2.53a1.68,1.68,0,0,0,0-.53,1,1,0,0,0-.3-.69,1.18,1.18,0,0,0-.83-.26C20.37,22.68,19.9,23.17,19.82,24.16Zm1.74-2.68h-.5l.6-1.2h.74Z"/><path class="cls-1" d="M25.15,27.08h-.9v-5h.9v.8h0a2.67,2.67,0,0,1,.83-.64A2.09,2.09,0,0,1,27,22v.85a3.36,3.36,0,0,0-1.89.58Z"/><path class="cls-1" d="M28.85,27.08H28v-5h.9v.7h0a2.2,2.2,0,0,1,1.62-.8,1.29,1.29,0,0,1,1.37.88A2.38,2.38,0,0,1,33.64,22a1.42,1.42,0,0,1,1.12.42,1.76,1.76,0,0,1,.38,1.23v3.45h-.9V23.83c0-.74-.33-1.1-1-1.1a2.26,2.26,0,0,0-1.28.59,4.44,4.44,0,0,1,0,.55v3.21h-.9V23.8c0-.72-.35-1.07-1-1.07a1.16,1.16,0,0,0-.5.11,2.09,2.09,0,0,0-.4.2c-.09.07-.21.15-.35.27Z"/><path class="cls-1" d="M37.15,20.28v1.25h-.9V20.28Zm0,1.8v5h-.9v-5Z"/><path class="cls-1" d="M39.15,27.08h-.9v-5h.9v.7h0a2.45,2.45,0,0,1,1.77-.8,1.42,1.42,0,0,1,1.12.42,1.76,1.76,0,0,1,.38,1.23v3.45h-.9V23.83c0-.74-.33-1.1-1-1.1a2.33,2.33,0,0,0-1.39.58Z"/><path class="cls-1" d="M43.45,24.58c0-1.74.76-2.6,2.3-2.6s2.29.86,2.29,2.6-.76,2.6-2.29,2.6S43.45,26.31,43.45,24.58Zm.95,0c0,1.23.45,1.85,1.35,1.85s1.34-.62,1.34-1.85-.45-1.85-1.34-1.85S44.4,23.34,44.4,24.58Z"/><path class="cls-1" d="M52.41,26.79a2.1,2.1,0,0,1-1.36.39A9.3,9.3,0,0,1,48.9,27l.16-.73a7.89,7.89,0,0,0,1.89.23,1.1,1.1,0,0,0,.82-.25.74.74,0,0,0,.22-.49.54.54,0,0,0-.24-.45,2.31,2.31,0,0,0-.88-.3,3.58,3.58,0,0,1-1.39-.52A1.23,1.23,0,0,1,49,23.38c0-.94.61-1.4,1.85-1.4a7.87,7.87,0,0,1,2,.23l-.17.72a7,7,0,0,0-1.77-.22,1.62,1.62,0,0,0-.53.07.69.69,0,0,0-.31.19.86.86,0,0,0-.13.21.57.57,0,0,0,0,.18.55.55,0,0,0,.22.45,2.13,2.13,0,0,0,.85.31,7,7,0,0,1,.74.19,3.09,3.09,0,0,1,.59.27,1.19,1.19,0,0,1,.45.44,1.29,1.29,0,0,1,.14.64A1.38,1.38,0,0,1,52.41,26.79Z"/><path class="cls-1" d="M58.94,26.58h0a2.1,2.1,0,0,1-1.52.6c-1.24,0-1.85-.87-1.85-2.6A3.48,3.48,0,0,1,56,22.69,1.57,1.57,0,0,1,57.44,22a2,2,0,0,1,1.48.58h0V20.08h.9v7h-.9Zm-1.2-.15a1.91,1.91,0,0,0,1.2-.42V23.16a1.82,1.82,0,0,0-1.2-.43c-.83,0-1.24.61-1.24,1.85S56.91,26.43,57.74,26.43Z"/><path class="cls-1" d="M61.82,24.73c0,1.13.58,1.7,1.64,1.7a5.33,5.33,0,0,0,1.56-.2l.12.73a7.16,7.16,0,0,1-1.8.22c-1.66,0-2.49-.87-2.49-2.6s.81-2.6,2.44-2.6a2,2,0,0,1,1.51.49,1.92,1.92,0,0,1,.49,1.25,4.88,4.88,0,0,1-.06,1Zm0-.57h2.53a1.68,1.68,0,0,0,0-.53,1,1,0,0,0-.3-.69,1.18,1.18,0,0,0-.83-.26C62.37,22.68,61.9,23.17,61.82,24.16Z"/><path class="cls-1" d="M71.34,22.08h.9v5h-.9v-.7h0a2.46,2.46,0,0,1-1.78.8,1.42,1.42,0,0,1-1.11-.43,1.73,1.73,0,0,1-.38-1.22V22.08H69v3.25c0,.73.33,1.1,1,1.1a2.45,2.45,0,0,0,1.4-.57Z"/><path class="cls-1" d="M76.71,26.79a2.1,2.1,0,0,1-1.36.39A9.3,9.3,0,0,1,73.2,27l.16-.73a7.89,7.89,0,0,0,1.89.23,1.1,1.1,0,0,0,.82-.25.74.74,0,0,0,.22-.49.54.54,0,0,0-.24-.45,2.31,2.31,0,0,0-.88-.3,3.58,3.58,0,0,1-1.39-.52,1.23,1.23,0,0,1-.48-1.07c0-.94.61-1.4,1.85-1.4a7.87,7.87,0,0,1,2,.23l-.17.72a7.09,7.09,0,0,0-1.77-.22,1.62,1.62,0,0,0-.53.07.69.69,0,0,0-.31.19.86.86,0,0,0-.13.21.57.57,0,0,0,0,.18.55.55,0,0,0,.22.45,2.13,2.13,0,0,0,.85.31,7,7,0,0,1,.74.19,3.09,3.09,0,0,1,.59.27,1.19,1.19,0,0,1,.45.44,1.29,1.29,0,0,1,.14.64A1.38,1.38,0,0,1,76.71,26.79Z"/><path class="cls-1" d="M78.05,24.58c0-1.74.76-2.6,2.29-2.6s2.3.86,2.3,2.6-.76,2.6-2.3,2.6S78.05,26.31,78.05,24.58Zm1,0c0,1.23.45,1.85,1.34,1.85s1.35-.62,1.35-1.85-.45-1.85-1.35-1.85S79,23.34,79,24.58Z"/><path class="cls-2" d="M86.23,21.2a3.55,3.55,0,0,1,5,0,3.5,3.5,0,0,1,0,5,3.55,3.55,0,0,1-5,0,3.5,3.5,0,0,1,0-5Zm.29,4.67a3,3,0,0,0,2.19.91,3.11,3.11,0,0,0,3.1-3.1,3,3,0,0,0-.9-2.18,3.05,3.05,0,0,0-2.2-.89,3,3,0,0,0-2.19.89,3,3,0,0,0-.9,2.18A3,3,0,0,0,86.52,25.87Zm1.14-2.23c0,.88.38,1.33,1.12,1.33a1.79,1.79,0,0,0,1-.3l.21.42a2.22,2.22,0,0,1-1.26.37A1.61,1.61,0,0,1,87.5,25a2,2,0,0,1-.43-1.35,1.8,1.8,0,0,1,.43-1.28,1.67,1.67,0,0,1,1.24-.44A2.13,2.13,0,0,1,90,22.3l-.2.42a1.82,1.82,0,0,0-1-.31C88,22.41,87.66,22.82,87.66,23.64Z"/><path class="cls-2" d="M95.17,21.4l-.27-.72a5.35,5.35,0,0,1,2.14-.5,2.11,2.11,0,0,1,1.6.57,2,2,0,0,1,.55,1.46,3.31,3.31,0,0,1-.74,2,10.64,10.64,0,0,1-2.29,2.05v0h3.13v.8H94.9v-.87c2.23-1.48,3.34-2.74,3.34-3.8a1.62,1.62,0,0,0-.15-.74,1,1,0,0,0-.39-.43,1.57,1.57,0,0,0-.44-.18,2,2,0,0,0-.42,0A4.05,4.05,0,0,0,95.17,21.4Z"/><path class="cls-2" d="M101.61,26.9a1.8,1.8,0,0,1-.74-.78,4,4,0,0,1-.36-1.11,7.15,7.15,0,0,1-.11-1.38,6.82,6.82,0,0,1,.11-1.35,3.82,3.82,0,0,1,.36-1.08,1.81,1.81,0,0,1,.74-.76,2.83,2.83,0,0,1,2.37,0,1.81,1.81,0,0,1,.74.76,3.82,3.82,0,0,1,.36,1.08,6.82,6.82,0,0,1,.11,1.35,7.15,7.15,0,0,1-.11,1.38,4,4,0,0,1-.36,1.11,1.77,1.77,0,0,1-.75.78,2.63,2.63,0,0,1-2.36,0Zm.46-5.76a1.26,1.26,0,0,0-.45.6,3.92,3.92,0,0,0-.21.85,7.74,7.74,0,0,0-.07,1c0,1.86.49,2.8,1.45,2.8s1.45-.94,1.45-2.8-.48-2.7-1.45-2.7A1.22,1.22,0,0,0,102.07,21.14Z"/><path class="cls-2" d="M106.56,21.4l-.26-.72a5.35,5.35,0,0,1,2.14-.5,2.11,2.11,0,0,1,1.6.57,2,2,0,0,1,.55,1.46,3.31,3.31,0,0,1-.74,2,10.64,10.64,0,0,1-2.29,2.05v0h3.13v.8H106.3v-.87c2.23-1.48,3.34-2.74,3.34-3.8a1.62,1.62,0,0,0-.15-.74,1,1,0,0,0-.39-.43,1.57,1.57,0,0,0-.44-.18,2,2,0,0,0-.42,0A4.13,4.13,0,0,0,106.56,21.4Z"/><path class="cls-2" d="M113,26.9a1.8,1.8,0,0,1-.74-.78,4,4,0,0,1-.36-1.11,7.15,7.15,0,0,1-.11-1.38,6.82,6.82,0,0,1,.11-1.35,3.82,3.82,0,0,1,.36-1.08,1.81,1.81,0,0,1,.74-.76,2.83,2.83,0,0,1,2.37,0,1.81,1.81,0,0,1,.74.76,3.82,3.82,0,0,1,.36,1.08,6.82,6.82,0,0,1,.11,1.35,7.15,7.15,0,0,1-.11,1.38,4,4,0,0,1-.36,1.11,1.77,1.77,0,0,1-.75.78,2.63,2.63,0,0,1-2.36,0Zm.46-5.76a1.26,1.26,0,0,0-.45.6,3.92,3.92,0,0,0-.21.85,7.74,7.74,0,0,0-.07,1c0,1.86.49,2.8,1.45,2.8s1.45-.94,1.45-2.8-.48-2.7-1.45-2.7A1.22,1.22,0,0,0,113.47,21.14Z"/><path class="cls-2" d="M123.28,23.6a1.62,1.62,0,0,1,1,.57,1.69,1.69,0,0,1,.34,1.09,1.72,1.72,0,0,1-.52,1.33,2.2,2.2,0,0,1-1.53.49h-3v-6.8h2.75a2.23,2.23,0,0,1,1.52.46,1.59,1.59,0,0,1,.53,1.27,1.7,1.7,0,0,1-.29,1,1.53,1.53,0,0,1-.82.58Zm-.18-2.2a1.23,1.23,0,0,0-.86-.27h-1.7v2.05h1.7c.77,0,1.15-.34,1.15-1A1,1,0,0,0,123.1,21.4ZM120.54,24v2.2h1.85c.8,0,1.2-.37,1.2-1.1s-.43-1.1-1.3-1.1Z"/><path class="cls-2" d="M125.9,22.92l-.13-.73a10.36,10.36,0,0,1,1.92-.21,2.22,2.22,0,0,1,1.4.36,1.57,1.57,0,0,1,.45,1.29v3.45h-.9v-.5h0a2.27,2.27,0,0,1-1.58.6,1.61,1.61,0,0,1-1.16-.41,1.37,1.37,0,0,1-.43-1.06,1.29,1.29,0,0,1,.56-1.16,2.75,2.75,0,0,1,1.53-.37h1.1v-.5a.89.89,0,0,0-.27-.73,1.37,1.37,0,0,0-.88-.22A8.05,8.05,0,0,0,125.9,22.92Zm2.74,1.81h-1a1.62,1.62,0,0,0-1,.22.82.82,0,0,0-.29.68.78.78,0,0,0,.28.62,1.22,1.22,0,0,0,.77.23,2,2,0,0,0,1.25-.42Z"/><path class="cls-2" d="M131.54,27.08h-.89v-5h.89v.7h0a2.49,2.49,0,0,1,1.78-.8,1.42,1.42,0,0,1,1.12.42,1.76,1.76,0,0,1,.38,1.23v3.45h-.9V23.83c0-.74-.33-1.1-1-1.1a2.38,2.38,0,0,0-1.4.58Z"/><path class="cls-2" d="M138.29,22a6.71,6.71,0,0,1,1.7.23l-.17.72a6,6,0,0,0-1.53-.2,1.33,1.33,0,0,0-1.13.49,2.67,2.67,0,0,0,0,2.71,1.33,1.33,0,0,0,1.13.5,6.43,6.43,0,0,0,1.53-.2L140,27a7.28,7.28,0,0,1-1.7.22c-1.63,0-2.45-.87-2.45-2.6S136.66,22,138.29,22Z"/><path class="cls-2" d="M140.34,24.58c0-1.74.77-2.6,2.3-2.6s2.3.86,2.3,2.6-.76,2.6-2.3,2.6S140.34,26.31,140.34,24.58Zm.95,0c0,1.23.45,1.85,1.35,1.85s1.35-.62,1.35-1.85-.45-1.85-1.35-1.85S141.29,23.34,141.29,24.58Z"/><path class="cls-2" d="M148.79,24.38v2.7h-.95v-6.8h2.8a2.1,2.1,0,0,1,1.55.56,2.31,2.31,0,0,1,0,3,2.11,2.11,0,0,1-1.55.55Zm0-.85h1.75a1.07,1.07,0,0,0,1.22-1.2,1.21,1.21,0,0,0-.32-.89,1.25,1.25,0,0,0-.9-.31h-1.75Z"/><path class="cls-2" d="M154.64,20.28v1.25h-.9V20.28Zm0,1.8v5h-.9v-5Z"/><path class="cls-2" d="M158.09,22a6.71,6.71,0,0,1,1.7.23l-.17.72a6,6,0,0,0-1.53-.2,1.33,1.33,0,0,0-1.13.49,2.67,2.67,0,0,0,0,2.71,1.33,1.33,0,0,0,1.13.5,6.43,6.43,0,0,0,1.53-.2l.17.73a7.28,7.28,0,0,1-1.7.22c-1.63,0-2.45-.87-2.45-2.6S156.46,22,158.09,22Z"/><path class="cls-2" d="M161.44,27.08h-.9v-7h.9v2.7h0a2.49,2.49,0,0,1,1.78-.8,1.42,1.42,0,0,1,1.12.42,1.76,1.76,0,0,1,.38,1.23v3.45h-.9V23.83c0-.74-.33-1.1-1-1.1a2.38,2.38,0,0,0-1.4.58Z"/><path class="cls-2" d="M166.74,20.28v1.25h-.9V20.28Zm0,1.8v5h-.9v-5Z"/><path class="cls-2" d="M168.74,27.08h-.9v-5h.9v.7h0a2.49,2.49,0,0,1,1.78-.8,1.42,1.42,0,0,1,1.12.42,1.76,1.76,0,0,1,.38,1.23v3.45h-.9V23.83c0-.74-.33-1.1-1-1.1a2.38,2.38,0,0,0-1.4.58Z"/><path class="cls-2" d="M175.49,22a6.71,6.71,0,0,1,1.7.23l-.17.72a6,6,0,0,0-1.53-.2,1.33,1.33,0,0,0-1.13.49,2.67,2.67,0,0,0,0,2.71,1.33,1.33,0,0,0,1.13.5,6.43,6.43,0,0,0,1.53-.2l.17.73a7.28,7.28,0,0,1-1.7.22c-1.63,0-2.45-.87-2.45-2.6S173.86,22,175.49,22Z"/><path class="cls-2" d="M178.84,27.08h-.9v-7h.9v2.7h0a2.49,2.49,0,0,1,1.78-.8,1.42,1.42,0,0,1,1.12.42,1.81,1.81,0,0,1,.38,1.23v3.45h-.9V23.83c0-.74-.33-1.1-1-1.1a2.38,2.38,0,0,0-1.4.58Z"/><path class="cls-2" d="M183.55,22.92l-.14-.73a10.55,10.55,0,0,1,1.93-.21,2.22,2.22,0,0,1,1.4.36,1.57,1.57,0,0,1,.45,1.29v3.45h-.9v-.5h0a2.27,2.27,0,0,1-1.58.6,1.65,1.65,0,0,1-1.17-.41,1.41,1.41,0,0,1-.43-1.06,1.27,1.27,0,0,1,.57-1.16,2.75,2.75,0,0,1,1.53-.37h1.1v-.5A.89.89,0,0,0,186,23a1.37,1.37,0,0,0-.88-.22A8.05,8.05,0,0,0,183.55,22.92Zm2.74,1.81h-1a1.62,1.62,0,0,0-1,.22.82.82,0,0,0-.29.68.78.78,0,0,0,.28.62,1.22,1.22,0,0,0,.77.23,2,2,0,0,0,1.25-.42Z"/><path class="cls-2" d="M189.19,25.78v1.3h-.9v-1.3Z"/><path class="cls-2" d="M194.81,21.13v5.95h-.95V21.13H192v-.85h4.7v.85Z"/><path class="cls-2" d="M196,24.58c0-1.74.77-2.6,2.3-2.6s2.3.86,2.3,2.6-.76,2.6-2.3,2.6S196,26.31,196,24.58Zm1,0c0,1.23.45,1.85,1.35,1.85s1.35-.62,1.35-1.85-.45-1.85-1.35-1.85S196.93,23.34,196.93,24.58Z"/><path class="cls-2" d="M204.88,26.58h0a2.1,2.1,0,0,1-1.53.6c-1.23,0-1.85-.87-1.85-2.6a3.48,3.48,0,0,1,.46-1.89,1.56,1.56,0,0,1,1.44-.71,2,2,0,0,1,1.48.58h0V20.08h.9v7h-.9Zm-1.2-.15a1.91,1.91,0,0,0,1.2-.42V23.16a1.82,1.82,0,0,0-1.2-.43c-.83,0-1.25.61-1.25,1.85S202.85,26.43,203.68,26.43Z"/><path class="cls-2" d="M206.78,24.58c0-1.74.77-2.6,2.3-2.6s2.3.86,2.3,2.6-.76,2.6-2.3,2.6S206.78,26.31,206.78,24.58Zm.95,0c0,1.23.45,1.85,1.35,1.85s1.35-.62,1.35-1.85-.45-1.85-1.35-1.85S207.73,23.34,207.73,24.58Z"/><path class="cls-2" d="M215.75,26.79a2.11,2.11,0,0,1-1.37.39,9.42,9.42,0,0,1-2.15-.22l.16-.73a8,8,0,0,0,1.89.23,1.13,1.13,0,0,0,.83-.25.74.74,0,0,0,.22-.49.54.54,0,0,0-.24-.45,2.37,2.37,0,0,0-.89-.3,3.64,3.64,0,0,1-1.39-.52,1.23,1.23,0,0,1-.48-1.07c0-.94.62-1.4,1.85-1.4a7.9,7.9,0,0,1,2,.23l-.17.72a7.11,7.11,0,0,0-1.78-.22,1.7,1.7,0,0,0-.53.07.75.75,0,0,0-.31.19.78.78,0,0,0-.12.21.53.53,0,0,0,.18.63,2.19,2.19,0,0,0,.85.31,6.69,6.69,0,0,1,.75.19,3.09,3.09,0,0,1,.59.27,1.19,1.19,0,0,1,.45.44,1.41,1.41,0,0,1,.14.64A1.38,1.38,0,0,1,215.75,26.79Z"/><path class="cls-2" d="M219,20.08h.9v7H219Z"/><path class="cls-2" d="M220.88,24.58c0-1.74.77-2.6,2.3-2.6s2.3.86,2.3,2.6-.77,2.6-2.3,2.6S220.88,26.31,220.88,24.58Zm1,0c0,1.23.45,1.85,1.35,1.85s1.35-.62,1.35-1.85-.45-1.85-1.35-1.85S221.83,23.34,221.83,24.58Z"/><path class="cls-2" d="M229.85,26.79a2.11,2.11,0,0,1-1.37.39,9.42,9.42,0,0,1-2.15-.22l.16-.73a8,8,0,0,0,1.89.23,1.13,1.13,0,0,0,.83-.25.74.74,0,0,0,.22-.49.54.54,0,0,0-.24-.45,2.37,2.37,0,0,0-.89-.3,3.64,3.64,0,0,1-1.39-.52,1.23,1.23,0,0,1-.48-1.07c0-.94.62-1.4,1.85-1.4a7.9,7.9,0,0,1,2,.23l-.17.72a7.11,7.11,0,0,0-1.78-.22,1.7,1.7,0,0,0-.53.07.75.75,0,0,0-.31.19.78.78,0,0,0-.12.21.39.39,0,0,0,0,.18.58.58,0,0,0,.22.45,2.19,2.19,0,0,0,.85.31,6.69,6.69,0,0,1,.75.19,3.09,3.09,0,0,1,.59.27,1.19,1.19,0,0,1,.45.44,1.41,1.41,0,0,1,.14.64A1.38,1.38,0,0,1,229.85,26.79Z"/><path class="cls-2" d="M236.38,26.58h0a2.1,2.1,0,0,1-1.53.6c-1.23,0-1.85-.87-1.85-2.6a3.39,3.39,0,0,1,.46-1.89,1.56,1.56,0,0,1,1.44-.71,2,2,0,0,1,1.48.58h0V20.08h.9v7h-.9Zm-1.2-.15a1.93,1.93,0,0,0,1.2-.42V23.16a1.82,1.82,0,0,0-1.2-.43c-.83,0-1.25.61-1.25,1.85S234.35,26.43,235.18,26.43Z"/><path class="cls-2" d="M239.25,24.73c0,1.13.59,1.7,1.65,1.7a5.38,5.38,0,0,0,1.56-.2l.12.73a7.16,7.16,0,0,1-1.8.22c-1.66,0-2.5-.87-2.5-2.6s.82-2.6,2.45-2.6a1.71,1.71,0,0,1,2,1.74,4.88,4.88,0,0,1-.06,1Zm0-.57h2.54a2,2,0,0,0,0-.53,1,1,0,0,0-.3-.69,1.21,1.21,0,0,0-.84-.26C239.81,22.68,239.33,23.17,239.25,24.16Z"/><path class="cls-2" d="M244.58,27.08h-.9v-5h.9v.8h0a2.92,2.92,0,0,1,.83-.64,2.15,2.15,0,0,1,1-.26v.85a3.42,3.42,0,0,0-1.9.58Z"/><path class="cls-2" d="M247.66,24.73c0,1.13.59,1.7,1.65,1.7a5.38,5.38,0,0,0,1.56-.2L251,27a7.16,7.16,0,0,1-1.8.22c-1.66,0-2.5-.87-2.5-2.6s.82-2.6,2.45-2.6a1.71,1.71,0,0,1,2,1.74,4.88,4.88,0,0,1-.06,1Zm0-.57h2.54a1.68,1.68,0,0,0,0-.53,1,1,0,0,0-.3-.69,1.21,1.21,0,0,0-.84-.26C248.22,22.68,247.74,23.17,247.66,24.16Z"/><path class="cls-2" d="M254.44,22a6.71,6.71,0,0,1,1.7.23l-.17.72a6,6,0,0,0-1.53-.2,1.33,1.33,0,0,0-1.13.49,2.67,2.67,0,0,0,0,2.71,1.33,1.33,0,0,0,1.13.5,6.43,6.43,0,0,0,1.53-.2l.17.73a7.35,7.35,0,0,1-1.7.22c-1.63,0-2.45-.87-2.45-2.6S252.81,22,254.44,22Z"/><path class="cls-2" d="M257.79,27.08h-.9v-7h.9v2.7h0a2.49,2.49,0,0,1,1.78-.8,1.43,1.43,0,0,1,1.12.42,1.81,1.81,0,0,1,.38,1.23v3.45h-.9V23.83c0-.74-.33-1.1-1-1.1a2.38,2.38,0,0,0-1.4.58Z"/><path class="cls-2" d="M262.09,24.58c0-1.74.77-2.6,2.3-2.6s2.3.86,2.3,2.6-.77,2.6-2.3,2.6S262.09,26.31,262.09,24.58Zm1,0c0,1.23.45,1.85,1.35,1.85s1.35-.62,1.35-1.85-.45-1.85-1.35-1.85S263,23.34,263,24.58Z"/><path class="cls-2" d="M271.06,26.79a2.11,2.11,0,0,1-1.37.39,9.42,9.42,0,0,1-2.15-.22l.16-.73a8,8,0,0,0,1.89.23,1.13,1.13,0,0,0,.83-.25.74.74,0,0,0,.22-.49.54.54,0,0,0-.24-.45,2.37,2.37,0,0,0-.89-.3,3.64,3.64,0,0,1-1.39-.52,1.23,1.23,0,0,1-.48-1.07c0-.94.62-1.4,1.85-1.4a7.9,7.9,0,0,1,2,.23l-.17.72a7.17,7.17,0,0,0-1.78-.22,1.66,1.66,0,0,0-.53.07.75.75,0,0,0-.31.19.78.78,0,0,0-.12.21.39.39,0,0,0,0,.18.58.58,0,0,0,.22.45,2.19,2.19,0,0,0,.85.31,6.69,6.69,0,0,1,.75.19,3.4,3.4,0,0,1,.59.27,1.19,1.19,0,0,1,.45.44,1.41,1.41,0,0,1,.14.64A1.38,1.38,0,0,1,271.06,26.79Z"/><path class="cls-2" d="M275.19,27.08h-.9v-5h.9v.8h0a2.92,2.92,0,0,1,.83-.64,2.15,2.15,0,0,1,1-.26v.85a3.42,3.42,0,0,0-1.9.58Z"/><path class="cls-2" d="M278.27,24.73c0,1.13.59,1.7,1.65,1.7a5.43,5.43,0,0,0,1.56-.2l.12.73a7.21,7.21,0,0,1-1.8.22c-1.66,0-2.5-.87-2.5-2.6s.82-2.6,2.45-2.6a1.71,1.71,0,0,1,2,1.74,4.88,4.88,0,0,1-.06,1Zm0-.57h2.54a2.62,2.62,0,0,0,0-.53,1,1,0,0,0-.3-.69,1.21,1.21,0,0,0-.84-.26C278.83,22.68,278.35,23.17,278.27,24.16Z"/><path class="cls-2" d="M286.07,26.79a2.13,2.13,0,0,1-1.37.39,9.42,9.42,0,0,1-2.15-.22l.16-.73a8,8,0,0,0,1.89.23,1.13,1.13,0,0,0,.83-.25.74.74,0,0,0,.22-.49.54.54,0,0,0-.24-.45,2.37,2.37,0,0,0-.89-.3,3.64,3.64,0,0,1-1.39-.52,1.23,1.23,0,0,1-.48-1.07c0-.94.62-1.4,1.85-1.4a7.9,7.9,0,0,1,2,.23l-.17.72a7.11,7.11,0,0,0-1.78-.22,1.7,1.7,0,0,0-.53.07.75.75,0,0,0-.31.19.78.78,0,0,0-.12.21.39.39,0,0,0,0,.18.58.58,0,0,0,.22.45,2.19,2.19,0,0,0,.85.31,6.69,6.69,0,0,1,.75.19,3.09,3.09,0,0,1,.59.27,1.19,1.19,0,0,1,.45.44,1.41,1.41,0,0,1,.14.64A1.38,1.38,0,0,1,286.07,26.79Z"/><path class="cls-2" d="M288.37,24.73c0,1.13.59,1.7,1.65,1.7a5.43,5.43,0,0,0,1.56-.2l.12.73a7.27,7.27,0,0,1-1.8.22c-1.66,0-2.5-.87-2.5-2.6s.82-2.6,2.45-2.6a1.71,1.71,0,0,1,2,1.74,4.88,4.88,0,0,1-.06,1Zm0-.57h2.54a2.62,2.62,0,0,0,0-.53,1,1,0,0,0-.3-.69,1.22,1.22,0,0,0-.84-.26C288.93,22.68,288.45,23.17,288.37,24.16Z"/><path class="cls-2" d="M293.7,27.08h-.9v-5h.9v.8h0a2.92,2.92,0,0,1,.83-.64A2.15,2.15,0,0,1,295.6,22v.85a3.39,3.39,0,0,0-1.9.58Z"/><path class="cls-2" d="M298.2,27.12l-1.85-5h1l1.4,4h0l1.41-4h1l-1.86,5Z"/><path class="cls-2" d="M301.8,22.92l-.14-.73a10.55,10.55,0,0,1,1.93-.21,2.23,2.23,0,0,1,1.4.36,1.57,1.57,0,0,1,.45,1.29v3.45h-.9v-.5h0a2.27,2.27,0,0,1-1.58.6,1.65,1.65,0,0,1-1.17-.41,1.41,1.41,0,0,1-.43-1.06,1.27,1.27,0,0,1,.57-1.16,2.75,2.75,0,0,1,1.53-.37h1.1v-.5a.89.89,0,0,0-.27-.73,1.37,1.37,0,0,0-.88-.22A8.05,8.05,0,0,0,301.8,22.92Zm2.74,1.81h-1.05a1.6,1.6,0,0,0-1,.22.82.82,0,0,0-.29.68.78.78,0,0,0,.28.62,1.22,1.22,0,0,0,.77.23,2,2,0,0,0,1.25-.42Z"/><path class="cls-2" d="M309.84,26.58h0a2.1,2.1,0,0,1-1.53.6c-1.23,0-1.85-.87-1.85-2.6a3.39,3.39,0,0,1,.46-1.89,1.56,1.56,0,0,1,1.44-.71,2,2,0,0,1,1.48.58h0V20.08h.9v7h-.9Zm-1.2-.15a1.93,1.93,0,0,0,1.2-.42V23.16a1.82,1.82,0,0,0-1.2-.43c-.83,0-1.25.61-1.25,1.85S307.81,26.43,308.64,26.43Z"/><path class="cls-2" d="M311.74,24.58c0-1.74.77-2.6,2.3-2.6s2.3.86,2.3,2.6-.77,2.6-2.3,2.6S311.74,26.31,311.74,24.58Zm.95,0c0,1.23.45,1.85,1.35,1.85s1.35-.62,1.35-1.85-.45-1.85-1.35-1.85S312.69,23.34,312.69,24.58Z"/><path class="cls-2" d="M320.71,26.79a2.13,2.13,0,0,1-1.37.39,9.42,9.42,0,0,1-2.15-.22l.16-.73a8,8,0,0,0,1.89.23,1.13,1.13,0,0,0,.83-.25.74.74,0,0,0,.22-.49.54.54,0,0,0-.24-.45,2.37,2.37,0,0,0-.89-.3,3.64,3.64,0,0,1-1.39-.52,1.23,1.23,0,0,1-.48-1.07c0-.94.62-1.4,1.85-1.4a7.9,7.9,0,0,1,2,.23l-.17.72a7.17,7.17,0,0,0-1.78-.22,1.7,1.7,0,0,0-.53.07.75.75,0,0,0-.31.19.78.78,0,0,0-.12.21.39.39,0,0,0,0,.18.58.58,0,0,0,.22.45,2.19,2.19,0,0,0,.85.31,6.69,6.69,0,0,1,.75.19,3.09,3.09,0,0,1,.59.27,1.19,1.19,0,0,1,.45.44,1.41,1.41,0,0,1,.14.64A1.38,1.38,0,0,1,320.71,26.79Z"/></svg>